<svg width="970" height="847" viewBox="0 0 970 847" fill="none" xmlns="http://www.w3.org/2000/svg">
<path d="M970 847H0V640.482C59.8495 621.785 247.335 546.053 499.232 586.94C727.754 624.034 919.639 761.163 970 847Z" fill="#F0F0F0"/>
<path d="M333.302 415.757C333.737 423.97 353.087 662.077 353.087 662.077H333.302L281.848 483.263C281.848 483.263 295.224 411.713 296.158 411.9C300.575 413.019 324.778 417.312 333.302 415.757Z" fill="black"/>
<path d="M248.936 662.077H233.07V672.965H248.936V662.077Z" fill="#DE8E68"/>
<path d="M352.162 662.077H333.621V672.965H352.162V662.077Z" fill="#DE8E68"/>
<path d="M304.434 413.704L251.113 664.006H232.012C232.012 664.006 230.332 389.688 232.012 389.688C249.931 397.278 283.777 409.722 304.434 413.704Z" fill="black"/>
<path d="M338.99 277.447C342.039 278.754 358.34 292.255 365.184 301.152C370.286 297.357 428.521 249.013 429.704 246.338C432.006 245.031 436.921 252.435 429.704 258.471C434.619 258.284 463.674 257.537 463.674 258.471C463.674 259.404 469.958 262.079 427.277 268.923C421.615 275.767 370.348 336.056 362.011 336.056C353.673 336.056 319.703 303.081 318.272 297.17C316.841 291.259 338.99 277.447 338.99 277.447Z" fill="#DE8E68"/>
<path d="M302.63 250.631C289.315 263.013 313.705 300.343 320.611 301.961C329.384 304.076 349.418 287.464 353.711 275.954C355.64 270.541 313.58 240.49 302.63 250.631Z" fill="#025E2E"/>
<path d="M278.737 232.588C204.698 232.588 221.497 375.502 226.225 385.27C230.954 395.039 325.774 423.41 333.24 415.757C340.706 408.104 354.456 232.588 278.737 232.588Z" fill="#51A53B"/>
<path d="M291.492 213.363H269.094V245.903C269.094 250.071 291.492 250.071 291.492 245.903V213.363Z" fill="#D37C59"/>
<path d="M280.044 225.06C294.133 225.06 305.554 205.895 305.554 182.254C305.554 158.613 294.133 139.448 280.044 139.448C265.956 139.448 254.535 158.613 254.535 182.254C254.535 205.895 265.956 225.06 280.044 225.06Z" fill="#DE8E68"/>
<path d="M275.414 129.869C262.681 129.869 245.826 136.098 233.584 136.098C222.512 136.098 202.396 128 191.754 128C184.988 128 153 131.177 153 157.279C153 169.052 165.303 180.328 167.764 183.443C170.224 186.557 174.715 204 186.218 204C202.273 204 213.346 192.164 228.048 192.164C238.198 192.164 240.843 194.656 245.887 194.656C249.578 194.656 255.115 192.911 255.115 192.787C255.115 190.856 254.745 174.721 256.96 172.105C260.036 168.367 299.221 173.911 299.221 160.767C301.989 163.259 304.572 173.849 304.572 176.03C306.356 174.161 313 166.062 313 157.341C312.938 149.367 307.402 129.869 275.414 129.869Z" fill="black"/>
<path d="M254.742 361.605L194.684 366.1L200.641 445.702L260.699 441.207L254.742 361.605Z" fill="#DFDFDF"/>
<path d="M261.025 367.389L200.967 371.884L206.924 451.486L266.982 446.991L261.025 367.389Z" fill="#F2F2F2"/>
<path d="M222.43 451.532C228.994 451.532 234.314 444.039 234.314 434.796C234.314 425.552 228.994 418.059 222.43 418.059C215.867 418.059 210.547 425.552 210.547 434.796C210.547 444.039 215.867 451.532 222.43 451.532Z" fill="#DE8E68"/>
<path d="M214.903 294.432C213.347 297.917 203.081 336.803 205.259 370.027C207.437 403.251 213.098 421.979 213.098 424.592C213.098 427.205 232.137 426.147 232.137 424.592C232.137 423.037 227.222 375.751 228.279 367.352C229.337 358.952 243.585 310.36 243.212 304.387C242.838 298.414 214.903 294.432 214.903 294.432Z" fill="#DE8E68"/>
<path d="M242.839 252.996C225.853 247.583 205.757 286.344 207.686 293.064C210.112 301.525 233.817 310.734 245.701 308.867C251.3 307.934 256.775 257.475 242.839 252.996Z" fill="#025E2E"/>
<path d="M232.262 670.477V675.267L213.348 710.731H225.667L250.305 688.395V670.477H232.262Z" fill="black"/>
<path d="M333 669.73V687.711H385.574V680.618L352.225 669.73H333Z" fill="black"/>
<path d="M242.9 373.449C243.086 375.565 241.469 377.369 239.353 377.555C237.238 377.742 235.433 376.124 235.247 374.009L234.313 361.379C234.127 359.263 235.745 357.459 237.86 357.272C239.975 357.086 241.78 358.703 241.966 360.819L242.464 367.538" stroke="black" stroke-width="2.5" stroke-miterlimit="10" stroke-linecap="round" stroke-linejoin="round"/>
</svg>
