<svg width="1280" height="847" viewBox="0 0 1280 847" fill="none" xmlns="http://www.w3.org/2000/svg">
<path d="M471.191 363.95V518.501C471.191 529.811 462.062 538.953 450.769 538.953H330.833C319.54 538.953 310.411 529.811 310.411 518.501V211.857C310.411 200.547 319.54 191.404 330.833 191.404H450.769C462.062 191.404 471.191 200.547 471.191 211.857V363.95Z" fill="white"/>
<path d="M441.676 545.421L415.156 508.635C415.156 508.635 400.218 487.966 390.837 487.604C390.765 493.025 391.126 531.906 392.786 545.385H441.676V545.421Z" fill="#20536A"/>
<path d="M356.379 183.31H425.223C428.362 183.31 430.888 185.839 430.888 188.983V197.691C430.888 200.835 428.362 203.365 425.223 203.365H356.379C353.24 203.365 350.714 200.835 350.714 197.691V188.983C350.714 185.875 353.24 183.31 356.379 183.31Z" fill="#F3F3F3"/>
<path d="M466.284 539.531H471.191V479.691L429.841 472.825L390.801 487.641C392.641 491.832 402.347 519.657 423.166 544.012H466.247V539.531H466.284Z" fill="#0096A9"/>
<path d="M379.291 392.75C375.935 392.677 375.935 397.845 375.935 397.845C374.311 393.003 338.879 304.724 338.879 304.724C338.879 304.724 331.555 307.832 339.998 324.526C337.256 326.152 329.642 332.259 332.782 342.088C335.163 349.46 340.359 352.061 343.606 352.061C343.065 357.59 354.863 414.069 356.415 416.78C360.023 423.176 366.987 430.15 371.1 430.33C377.667 430.656 393.832 422.019 397.837 417.502C401.842 412.985 385.605 392.858 379.291 392.75Z" fill="#DE8E68"/>
<path d="M428.073 361.601C412.089 347.328 373.085 381.512 373.842 387.438C374.6 393.364 395.6 414.792 401.77 412.985C407.94 411.179 440.666 372.803 428.073 361.601Z" fill="black"/>
<path d="M471.191 363.95C464.083 352.422 453.655 344.979 438.717 344.979C386.868 344.979 385.389 480.124 390.801 487.641C395.6 494.289 452.789 496.024 471.191 491.435" fill="#666666"/>
<path d="M471.191 413.274L465.743 415.515C466.212 417.249 468.304 426.97 471.191 437.702" fill="#DE8E68"/>
<path d="M471.191 362.757C467.583 360.083 463.902 358.999 460.511 360.409C440.954 368.575 454.882 417.683 460.511 419.49C462.315 420.068 466.428 419.49 471.191 418.225" fill="black"/>
<path d="M448.676 356.831C448.676 361.131 424.898 362.071 424.898 356.831V327.562H448.676V356.831Z" fill="#DE8E68"/>
<path d="M453.638 323.063C459.554 308.173 455.388 292.53 444.334 288.126C433.279 283.721 419.522 292.222 413.607 307.112C407.691 322.003 411.856 337.645 422.911 342.05C433.965 346.455 447.722 337.954 453.638 323.063Z" fill="#DE8E68"/>
<path d="M456.078 328.033C458.271 324.967 458.315 321.237 456.177 319.703C454.038 318.169 450.527 319.412 448.334 322.478C446.141 325.545 446.096 329.274 448.235 330.808C450.373 332.342 453.885 331.1 456.078 328.033Z" fill="#DE8E68"/>
<path d="M472.201 311.517C472.201 307.542 468.485 303.17 467.799 298.183C467.438 295.654 468.232 285.139 465.274 281.561C459.14 274.19 455.532 275.707 450.841 273.973C442.686 270.973 439.547 266.023 432.8 266.023C425.151 266.023 422.048 269.998 416.563 269.998C410.285 269.998 405.162 267.107 396.358 267.107C391.667 267.107 385.533 273.25 385.533 278.67C385.533 291.498 397.44 289.655 397.44 292.763C397.44 294.931 396.719 296.666 396.719 299.629C396.719 303.531 401.77 305.772 404.656 305.772C413.46 305.772 414.615 304.688 414.615 304.688C416.347 301.183 418.584 297.967 421.254 295.112C421.615 294.75 427.316 298.762 436.625 299.087C444.274 299.34 449.65 300.821 449.65 304.399C449.65 306.928 448.712 314.408 448.784 316.504C448.856 318.6 449.578 319.973 450.047 319.973C450.516 319.973 450.769 319.286 453.727 319.286C456.867 319.286 457.119 323.153 457.66 323.153C460.836 323.153 472.201 320.587 472.201 311.517Z" fill="black"/>
<path d="M329.787 263.783H347.792C353.132 263.783 357.462 268.119 357.462 273.467V291.498C357.462 296.846 353.132 301.183 347.792 301.183H329.787C324.447 301.183 320.117 296.846 320.117 291.498V273.467C320.117 268.119 324.447 263.783 329.787 263.783Z" fill="#D7D8D6"/>
<path d="M352.987 274.443C357.212 274.443 360.637 271.013 360.637 266.782C360.637 262.551 357.212 259.122 352.987 259.122C348.763 259.122 345.338 262.551 345.338 266.782C345.338 271.013 348.763 274.443 352.987 274.443Z" fill="#0096A9"/>
<path d="M451.418 180.383H330.22C313.911 180.383 300.669 193.644 300.669 209.978V520.307C300.669 536.64 313.911 549.902 330.22 549.902H451.418C467.727 549.902 480.969 536.64 480.969 520.307V209.978C480.969 193.644 467.727 180.383 451.418 180.383ZM471.191 363.95V518.5C471.191 529.811 462.062 538.953 450.769 538.953H330.833C319.54 538.953 310.411 529.811 310.411 518.5V211.857C310.411 200.546 319.54 191.404 330.833 191.404H450.769C462.062 191.404 471.191 200.546 471.191 211.857V363.95Z" fill="#F3F3F3"/>
<path d="M470.18 226.311H513.947C521.849 226.311 528.272 232.743 528.272 240.656C528.272 248.57 521.849 255.002 513.947 255.002H470.18C462.278 255.002 455.856 248.57 455.856 240.656C455.856 232.706 462.278 226.311 470.18 226.311Z" fill="#9E9E9E"/>
<path d="M472.887 248.317L460.475 235.85V260.783L472.887 248.317Z" fill="#9E9E9E"/>
<path d="M477.289 244.74C479.282 244.74 480.897 243.122 480.897 241.126C480.897 239.131 479.282 237.513 477.289 237.513C475.296 237.513 473.681 239.131 473.681 241.126C473.681 243.122 475.296 244.74 477.289 244.74Z" fill="white"/>
<path d="M492.082 244.74C494.075 244.74 495.69 243.122 495.69 241.126C495.69 239.131 494.075 237.513 492.082 237.513C490.09 237.513 488.474 239.131 488.474 241.126C488.474 243.122 490.09 244.74 492.082 244.74Z" fill="white"/>
<path d="M506.84 244.74C508.832 244.74 510.448 243.122 510.448 241.126C510.448 239.131 508.832 237.513 506.84 237.513C504.847 237.513 503.231 239.131 503.231 241.126C503.231 243.122 504.847 244.74 506.84 244.74Z" fill="white"/>
</svg>
