<svg width="115" height="215" viewBox="0 0 115 215" fill="none" xmlns="http://www.w3.org/2000/svg">
<path d="M66.5232 106.168C66.6838 109.199 73.823 197.049 73.823 197.049H66.5232L47.5391 131.075C47.5391 131.075 52.4745 104.676 52.8188 104.745C54.4486 105.158 63.3783 106.742 66.5232 106.168Z" fill="black"/>
<path d="M35.3956 197.049H29.542V201.066H35.3956V197.049Z" fill="#DE8E68"/>
<path d="M73.4813 197.049H66.6406V201.066H73.4813V197.049Z" fill="#DE8E68"/>
<path d="M55.8717 105.411L36.199 197.761H29.1517C29.1517 197.761 28.5319 96.5503 29.1517 96.5503C35.7628 99.3508 48.2506 103.942 55.8717 105.411Z" fill="#212121"/>
<path d="M68.6216 55.1386C69.7464 55.6206 75.7607 60.602 78.2858 63.8846C80.1681 62.4843 101.654 44.648 102.09 43.6609C102.94 43.1788 104.753 45.9105 102.09 48.1372C103.904 48.0683 114.624 47.7929 114.624 48.1372C114.624 48.4815 116.943 49.4686 101.195 51.9937C99.1063 54.5188 80.1911 76.7625 77.115 76.7625C74.039 76.7625 61.5054 64.5962 60.9774 62.4154C60.4494 60.2347 68.6216 55.1386 68.6216 55.1386Z" fill="#DE8E68"/>
<path d="M55.206 45.2449C50.2936 49.813 59.2921 63.5863 61.8401 64.1831C65.0768 64.9636 72.4685 58.8345 74.0524 54.5878C74.764 52.5906 59.2462 41.5032 55.206 45.2449Z" fill="#20536A"/>
<path d="M46.3912 38.5879C19.0743 38.5879 25.2723 91.3164 27.0169 94.9204C28.7615 98.5244 63.7455 108.992 66.5001 106.169C69.2548 103.345 74.3279 38.5879 46.3912 38.5879Z" fill="#0096A9"/>
<path d="M51.0969 31.4946H42.833V43.5003C42.833 45.0383 51.0969 45.0383 51.0969 43.5003V31.4946Z" fill="#D37C59"/>
<path d="M46.8731 35.8102C52.0711 35.8102 56.2848 28.7393 56.2848 20.0169C56.2848 11.2945 52.0711 4.22363 46.8731 4.22363C41.6752 4.22363 37.4614 11.2945 37.4614 20.0169C37.4614 28.7393 41.6752 35.8102 46.8731 35.8102Z" fill="#DE8E68"/>
<path d="M45.1651 0.689517C40.467 0.689517 34.2483 2.98791 29.7318 2.98791C25.6465 2.98791 18.2249 0 14.2985 0C11.8019 0 0 1.17218 0 10.8024C0 15.1464 4.5392 19.3065 5.44704 20.4557C6.35489 21.6049 8.01169 28.0404 12.2558 28.0404C18.1795 28.0404 22.2648 23.6734 27.6891 23.6734C31.434 23.6734 32.4099 24.5928 34.271 24.5928C35.6327 24.5928 37.6754 23.9492 37.6754 23.9033C37.6754 23.1908 37.5392 17.2379 38.3563 16.2726C39.4911 14.8936 53.9484 16.9391 53.9484 12.0895C54.9698 13.0089 55.923 16.9162 55.923 17.7206C56.5812 17.0311 59.0323 14.0432 59.0323 10.8254C59.0096 7.88348 56.967 0.689517 45.1651 0.689517Z" fill="black"/>
<path d="M37.5377 86.1888L15.3792 87.8472L17.5772 117.216L39.7357 115.558L37.5377 86.1888Z" fill="#DFDFDF"/>
<path d="M39.8561 88.3231L17.6975 89.9814L19.8955 119.351L42.0541 117.692L39.8561 88.3231Z" fill="#F2F2F2"/>
<path d="M25.6167 119.368C28.0381 119.368 30.0011 116.603 30.0011 113.193C30.0011 109.783 28.0381 107.018 25.6167 107.018C23.1952 107.018 21.2322 109.783 21.2322 113.193C21.2322 116.603 23.1952 119.368 25.6167 119.368Z" fill="#DE8E68"/>
<path d="M22.8391 61.4058C22.2652 62.6913 18.4776 77.0384 19.281 89.2965C20.0845 101.555 22.1734 108.464 22.1734 109.428C22.1734 110.393 29.1978 110.002 29.1978 109.428C29.1978 108.855 27.3843 91.4084 27.7745 88.3095C28.1648 85.2105 33.4215 67.2823 33.2838 65.0786C33.1461 62.8749 22.8391 61.4058 22.8391 61.4058Z" fill="#DE8E68"/>
<path d="M33.146 46.1173C26.8792 44.1202 19.4646 58.4214 20.1762 60.9006C21.0715 64.0225 29.8175 67.4199 34.2019 66.7313C36.2679 66.3869 38.288 47.7701 33.146 46.1173Z" fill="#20536A"/>
<path d="M29.2436 200.148V201.916L22.2651 215H26.8103L35.9006 206.759V200.148H29.2436Z" fill="black"/>
<path d="M66.4114 199.873V206.507H85.8087V203.89L73.5046 199.873H66.4114Z" fill="black"/>
<path d="M33.1689 90.5588C33.2377 91.3393 32.6409 92.005 31.8604 92.0738C31.0799 92.1427 30.4142 91.5459 30.3453 90.7654L30.001 86.1054C29.9322 85.3249 30.529 84.6592 31.3095 84.5904C32.09 84.5215 32.7557 85.1183 32.8245 85.8988L33.0082 88.378" stroke="black" stroke-width="2.5" stroke-miterlimit="10" stroke-linecap="round" stroke-linejoin="round"/>
</svg>
