<svg width="528" height="528" viewBox="0 0 528 528" fill="none" xmlns="http://www.w3.org/2000/svg">
<path d="M376.396 62.5246C406.125 89.2346 425.581 126.502 456.816 180.067C488.197 233.632 531.47 303.489 515.059 345.137C498.649 386.784 422.264 400.208 350.142 427.519C278.019 454.831 210.117 495.87 147.653 487.87C85.1887 479.869 28.1615 422.842 13.8189 359.77C-0.669133 296.546 27.3952 227.29 47.611 164.218C67.6815 101.153 79.9035 44.2445 115.057 18.4792C150.21 -7.28607 208.307 -1.74984 257.499 8.95926C306.684 19.8005 346.667 35.8212 376.396 62.5246Z" fill="#F1F1F1"/>
<path d="M346.421 512.446H357.659V502.932H346.421V512.446Z" fill="#DE8E68"/>
<path d="M358.716 511.341V520.855H331.979V517.393L345.886 511.341H358.716Z" fill="black"/>
<path d="M171.747 395.742H182.985V386.229H171.747V395.742Z" fill="#DE8E68"/>
<path d="M184.041 394.256V403.769H157.311V400.314L171.218 394.256H184.041Z" fill="black"/>
<path d="M346.032 267.022C346.601 272.426 358.538 505.443 358.538 505.443H346.032L285.22 286.042L346.032 267.022Z" fill="black"/>
<path d="M352.453 241.349C352.453 272.994 340.819 301.468 317.267 301.468C284.935 301.468 242.132 280.855 230.352 269.221C227.413 277.916 185.712 387.425 185.712 387.425H168.443C168.443 387.425 179.509 259.92 200.253 227.217C207.078 218.127 262.77 220.4 290.907 227.217C319.044 234.035 352.453 241.349 352.453 241.349Z" fill="#666666"/>
<path d="M268.941 56.9685C269.137 55.991 269.685 55.1196 270.482 54.5203C271.279 53.9209 272.268 53.6354 273.261 53.7181C275.792 53.8965 279.927 60.5822 279.927 65.9929C279.927 71.4036 278.401 73.4384 278.864 77.3693C279.326 81.3002 289.335 134.601 289.335 137.852C291.859 138.03 300.89 136.768 300.89 136.768L294.567 162.23H276.162L264.27 59.6771L268.941 56.9685Z" fill="#D37C59"/>
<path d="M286.594 66.0461L282.716 81.7167C282.716 81.7167 244.457 77.2705 240.282 76.2399C236.107 75.2093 242.396 49.2987 246.684 50.3557C250.971 51.4127 286.594 66.0461 286.594 66.0461Z" fill="black"/>
<path d="M321.648 112.404C370.589 112.404 358.519 238.845 352.804 243.575C347.09 248.306 286.244 232.344 281.19 225.302C276.136 218.259 285.755 112.404 321.648 112.404Z" fill="#038743"/>
<path d="M304.18 144.505C301.492 145.416 285.722 151.567 285.722 151.567C285.458 148.396 273.335 85.5021 272.588 81.6505C274.118 77.8061 274.875 73.6978 274.815 69.5606C274.815 59.2347 270.62 50.8511 265.447 50.8511C260.274 50.8511 256.085 59.2347 256.085 69.5606C256.012 73.8826 256.845 78.172 258.53 82.1526C257.948 90.0143 252.729 164.661 263.379 175.304C274.61 186.535 301.914 176.407 318.51 168.863C322.064 167.634 317.222 140.977 304.18 144.505Z" fill="#DE8E68"/>
<path d="M292.469 72.5185L282.572 69.8906L280.736 76.8058L290.633 79.4337L292.469 72.5185Z" fill="black"/>
<path d="M352.837 135.632C360.295 150.113 330.758 176.202 322.586 174.26C314.413 172.318 301.233 143.157 303.698 137.924C306.162 132.692 345.583 121.54 352.837 135.632Z" fill="#025E2E"/>
<path d="M324.646 124.658C324.646 127.109 309.696 127.73 309.696 124.658V96.4355H324.646V124.658Z" fill="#D37C59"/>
<path d="M311.771 112.819C322.549 112.819 331.286 98.6895 331.286 81.2598C331.286 63.8302 322.549 49.7007 311.771 49.7007C300.993 49.7007 292.255 63.8302 292.255 81.2598C292.255 98.6895 300.993 112.819 311.771 112.819Z" fill="#DC8E6C"/>
<path d="M297.151 60.351C297.002 62.6177 297.459 64.8831 298.475 66.9148C299.491 68.9465 301.029 70.6713 302.931 71.9124C308.752 75.8763 312.901 74.1256 317.168 77.8582C319.421 80.111 324.938 84.4647 324.99 91.1901C324.99 96.1648 326.622 98.6752 328.056 98.6752C329.489 98.6752 333.268 97.6843 335.7 97.6843C359.575 97.6843 387.613 122.333 441.403 122.333C469.501 122.333 513.592 115.244 513.592 73.9802C513.592 51.6966 505.572 24.7686 463.178 24.7686C436.257 24.7686 417.395 37.9815 395.277 37.9815C366.869 37.9815 355.915 27.6952 336.288 27.6952C322.308 27.6952 290.848 35.7948 290.848 57.0148C290.848 65.0747 293.372 67.4134 294.151 67.8296C294.402 66.9443 295.942 62.3726 297.151 60.351Z" fill="black"/>
<path d="M322.982 93.7145C325.733 93.7145 327.963 91.4843 327.963 88.7332C327.963 85.9821 325.733 83.752 322.982 83.752C320.23 83.752 318 85.9821 318 88.7332C318 91.4843 320.23 93.7145 322.982 93.7145Z" fill="#DC8E6C"/>
<path fill-rule="evenodd" clip-rule="evenodd" d="M159.526 402.998C153.218 403.112 146.957 406.294 143.352 412.546L93.2889 499.346C85.9441 512.081 95.1251 527.999 109.815 527.999H209.941C224.63 527.999 233.811 512.081 226.467 499.346L176.403 412.546C175.965 411.786 175.488 411.072 174.976 410.403V402.995H159.979C159.911 402.995 159.844 402.995 159.777 402.995H159.526V402.998Z" fill="#757575"/>
<path d="M158.101 412.547C165.445 399.812 183.807 399.812 191.152 412.547L241.215 499.348C248.56 512.082 239.379 528.001 224.689 528.001H124.563C109.874 528.001 100.693 512.082 108.037 499.348L158.101 412.547Z" fill="#E9A115"/>
<path d="M181.691 481.026L168.824 481.476L165.525 444.039L182.37 443.451L181.691 481.026ZM167.476 495.416C167.392 493.011 168.028 491.123 169.386 489.752C170.743 488.355 172.76 487.61 175.437 487.516C178.088 487.424 180.114 488.028 181.512 489.329C182.936 490.602 183.69 492.442 183.774 494.847C183.857 497.226 183.207 499.114 181.825 500.512C180.467 501.883 178.515 502.612 175.967 502.701C173.394 502.791 171.356 502.201 169.854 500.93C168.352 499.633 167.559 497.795 167.476 495.416Z" fill="white"/>
</svg>
