<svg width="659" height="498" viewBox="0 0 659 498" fill="none" xmlns="http://www.w3.org/2000/svg">
  <g clip-path="url(#clip0)">
    <path d="M42.942 270.609C101.486 369.66 271.979 442.37 361.552 388.783C498.638 317.674 700.852 68.0021 639.174 4.805C577.496 -58.3922 389.515 -295.208 176.898 -169.283C-35.7203 -43.3576 -15.6017 171.557 42.942 270.609Z" fill="#EAEAEA"/>
    <path d="M246.354 288.285C200.735 287.817 151.644 297.828 132.801 302.892C91.8538 316.948 164.275 324.276 222.18 324.132C280.085 323.988 363.661 319.817 388.597 303.256C402.374 294.107 303.378 288.871 246.354 288.285Z" fill="#D1D1D1"/>
    <g clip-path="url(#clip1)">
      <path d="M188.413 148.564H320.308" stroke="#DEDEDE" stroke-width="9" stroke-miterlimit="10"/>
      <path d="M166.004 148.564H171.526" stroke="#DEDEDE" stroke-width="15" stroke-miterlimit="10"/>
      <path d="M337.482 148.564H343.004" stroke="#DEDEDE" stroke-width="15" stroke-miterlimit="10"/>
      <path d="M244.767 210.841C242.026 199.908 233.805 187.804 230.673 184.095C227.541 180.385 219.124 161.253 211.686 151.297C209.533 151.883 207.967 152.663 207.967 153.64C207.967 154.616 210.316 170.039 219.516 186.437C221.32 189.653 227.15 215.136 238.111 221.578C243.126 224.52 244.767 210.841 244.767 210.841Z" fill="#DE8E68"/>
      <path d="M263.95 210.841C266.691 199.908 274.912 187.804 278.044 184.095C281.176 180.385 289.593 161.253 297.031 151.297C299.184 151.883 300.75 152.663 300.75 153.64C300.75 154.616 298.401 170.039 289.201 186.437C287.398 189.653 281.567 215.136 270.606 221.578C265.6 224.52 263.95 210.841 263.95 210.841Z" fill="#DE8E68"/>
      <path d="M299.38 153.835C302.299 153.835 304.665 151.475 304.665 148.564C304.665 145.653 302.299 143.293 299.38 143.293C296.461 143.293 294.095 145.653 294.095 148.564C294.095 151.475 296.461 153.835 299.38 153.835Z" fill="#DE8E68"/>
      <path d="M207.968 153.835C210.887 153.835 213.253 151.475 213.253 148.564C213.253 145.653 210.887 143.293 207.968 143.293C205.049 143.293 202.683 145.653 202.683 148.564C202.683 151.475 205.049 153.835 207.968 153.835Z" fill="#DE8E68"/>
      <path d="M254.015 202.25C232.092 202.25 228.471 261.11 233.267 265.893C238.062 270.676 273.296 269.31 276.722 265.893C280.147 262.477 277.309 202.25 254.015 202.25Z" fill="#DE8E68"/>
      <path d="M245.452 188.39C246.912 188.39 248.095 187.21 248.095 185.755C248.095 184.299 246.912 183.119 245.452 183.119C243.993 183.119 242.81 184.299 242.81 185.755C242.81 187.21 243.993 188.39 245.452 188.39Z" fill="#DE8E68"/>
      <path d="M263.266 188.39C264.725 188.39 265.908 187.21 265.908 185.755C265.908 184.299 264.725 183.119 263.266 183.119C261.806 183.119 260.623 184.299 260.623 185.755C260.623 187.21 261.806 188.39 263.266 188.39Z" fill="#DE8E68"/>
      <path d="M274.194 227.651C269.854 226.159 266.262 223.047 264.175 218.97C262.088 214.892 261.668 210.166 263.003 205.786C260.419 203.556 257.438 202.254 254.014 202.254C250.835 202.254 248.042 203.496 245.597 205.627C246.334 207.767 246.637 210.031 246.488 212.288C246.338 214.545 245.74 216.75 244.727 218.775C243.715 220.799 242.308 222.602 240.59 224.078C238.871 225.554 236.875 226.675 234.718 227.374C230.531 244.011 230.607 263.248 233.259 265.897C238.055 270.68 273.289 269.314 276.715 265.897C278.625 264.004 278.594 244.553 274.194 227.651Z" fill="black"/>
      <path d="M248.263 257.953C247.566 256.264 232.915 235.631 210.289 235.631C207.85 235.631 222.597 272.528 222.597 275.832C222.597 279.135 250.655 284.031 254.365 284.031V257.732L248.263 257.953Z" fill="#025E2E"/>
      <path d="M209.238 235.621C206.949 235.621 205.115 238.14 205.115 241.382C205.115 258.865 228.24 296.436 229.942 296.436H239.257C233.263 276.476 230.732 235.621 209.238 235.621Z" fill="#038743"/>
      <path d="M260.455 257.953C261.154 256.264 275.805 235.631 298.429 235.631C300.868 235.631 286.121 272.528 286.121 275.832C286.121 279.135 258.061 284.031 254.352 284.031V257.732L260.455 257.953Z" fill="#025E2E"/>
      <path d="M299.123 235.621C301.411 235.621 303.245 238.14 303.245 241.382C303.245 258.865 280.12 296.436 278.419 296.436H269.104C275.097 276.476 277.626 235.621 299.123 235.621Z" fill="#038743"/>
      <path d="M238.945 305L239.258 296.43H229.942L217.62 302.523V305H238.945Z" fill="black"/>
      <path d="M269.417 305L269.104 296.43H278.419L290.739 302.523V305H269.417Z" fill="black"/>
      <path d="M258.861 208.498C258.861 211.036 249.856 211.036 249.856 208.498V194.832H258.861V208.498Z" fill="#D37C59"/>
      <path d="M264.427 184.79C265.11 184.839 267.277 180.76 267.277 175.505C267.277 174.138 266.494 167.306 263.167 167.306C262.188 167.306 261.601 170.234 261.797 171.015C261.797 169.453 258.001 160.473 252.597 160.473C250.443 160.473 250.052 163.011 250.052 163.791C250.052 166.134 250.248 168.477 251.031 169.843C250.248 168.672 248.668 165.744 245.745 165.744C244.18 165.744 242.809 166.409 242.809 167.306C242.809 169.691 244.767 171.796 245.354 172.381C244.767 171.991 244.011 171.6 242.222 171.6C240.997 171.6 240.265 173.553 240.265 174.529C240.265 178.884 242.251 183.853 244.473 184.44C246.695 185.028 257.453 177.282 257.453 177.282C257.453 177.282 261.965 184.614 264.427 184.79Z" fill="#000000"/>
      <path d="M254.358 197.273C259.71 197.273 264.048 191.985 264.048 185.462C264.048 178.938 259.71 173.65 254.358 173.65C249.007 173.65 244.669 178.938 244.669 185.462C244.669 191.985 249.007 197.273 254.358 197.273Z" fill="#DE8E68"/>
      <path d="M264.048 183.119C262.911 182.923 250.424 179.28 248.557 174.741C246.69 170.202 254.625 172.375 254.625 172.375L262.872 175.868L264.048 183.119Z" fill="#000000"/>
      <path d="M188.411 117H178.7V180.13H188.411V117Z" fill="#DEDEDE"/>
      <path d="M330.018 117H320.308V180.13H330.018V117Z" fill="#DEDEDE"/>
      <path d="M178.095 130.287H171.369V166.845H178.095V130.287Z" fill="#DEDEDE"/>
      <path d="M337.504 130.287H330.778V166.845H337.504V130.287Z" fill="#DEDEDE"/>
    </g>
  </g>
  <defs>
    <clipPath id="clip0">
      <rect width="646" height="341" fill="white" transform="translate(0 80)"/>
    </clipPath>
    <clipPath id="clip1">
      <rect width="177" height="188" fill="white" transform="translate(166.004 117)"/>
    </clipPath>
  </defs>
</svg>
