<svg width="215" height="215" viewBox="0 0 215 215" fill="none"
  xmlns="http://www.w3.org/2000/svg">
  <path d="M165.613 111.648C169.512 123.284 174.261 134.34 176.644 148.419C179.027 162.498 179.059 179.593 170.131 185.926C161.196 192.201 143.306 187.716 130.303 182.718C117.271 177.69 109.159 172.11 102.212 167.258C95.2912 162.376 89.5025 158.195 74.8481 153.396C60.2044 148.66 36.6337 143.376 31.2731 133.766C25.9126 124.156 38.707 110.216 46.8482 92.7953C54.9338 75.3807 58.3565 54.4295 70.0323 43.4437C81.7411 32.4862 101.721 31.4018 117.341 38.4435C133.023 45.4837 144.303 60.6156 151.476 74.2485C158.648 87.8813 161.713 100.083 165.613 111.648Z" fill="#F2F2F2"/>
  <path d="M164.509 62.3521C164.509 57.813 161.724 54.1318 158.293 54.1318C154.861 54.1318 152.088 57.813 152.088 62.3521C152.088 64.7374 152.855 66.8912 154.081 68.3845C153.652 71.5619 152.546 76.0102 152.358 76.8068C152.358 76.8068 162.442 83.8423 162.442 77.4354C162.442 72.5741 162.78 69.4921 163.086 67.6038C164.04 66.02 164.533 64.2011 164.509 62.3521Z" fill="#DC8E6C"/>
  <path d="M160.368 54.6904H151.832C151.357 54.6904 150.972 55.0755 150.972 55.5506V67.2364C150.972 67.7115 151.357 68.0966 151.832 68.0966H160.368C160.843 68.0966 161.228 67.7115 161.228 67.2364V55.5506C161.228 55.0755 160.843 54.6904 160.368 54.6904Z" fill="#EFEFEF"/>
  <path d="M116.023 92.565C118.168 91.7979 133.803 91.7979 146.524 99.7685C147.291 96.7023 150.203 74.6924 150.203 74.6924L163.232 75.5435C163.232 75.5435 166.144 104.053 160.32 118.767C157.56 124.593 125.823 112.482 125.823 112.482L116.023 92.565Z" fill="#9E9E9E"/>
  <path d="M102.883 87.8258C142.257 86.5458 140.414 178.074 136.165 181.955C131.917 185.836 79.048 186.462 75.537 182.409C72.0261 178.355 63.8966 89.0945 102.883 87.8258Z" fill="#666666"/>
  <path d="M109.066 88.3883C105.053 87.3148 100.176 87.8844 97.4209 88.6152C99.1185 93.6899 107.18 155.648 107.949 185.123C110.768 185.075 114.917 184.975 118.31 184.771C118.094 162.255 116.614 112.6 109.066 88.3883Z" fill="white"/>
  <path d="M105.336 96.5381C109.158 115.847 112.98 159.797 113.556 179.683" stroke="#D8D8D8" stroke-width="2" stroke-miterlimit="10" stroke-linecap="round"/>
  <path d="M109.159 92.422C109.159 94.2376 98.6242 94.2376 98.6242 92.2541C98.6242 90.2705 97.208 75.5548 97.208 75.5548L107.698 74.6924C107.698 74.6924 109.157 91.2691 109.159 92.422Z" fill="#D37C59"/>
  <path d="M122.028 78.4623C122.117 77.4455 122.164 76.4197 122.164 75.3621C122.164 61.3568 113.883 50 103.668 50C93.4524 50 85.1709 61.3477 85.1709 75.3621C85.1711 76.9327 85.2773 78.5014 85.4886 80.0577L122.028 78.4623Z" fill="black"/>
  <path d="M118.499 64.3714C116.229 63.4772 114.03 62.515 112.242 60.7266C107.562 65.8739 99.3529 71.9154 96.3662 73.8626C97.56 81.5791 102.129 87.3346 107.585 87.3346C113.951 87.3346 119.112 79.5115 119.112 69.8592C119.114 68.0182 118.919 66.1823 118.531 64.3828L118.499 64.3714Z" fill="#DC8E6C"/>
  <path d="M97.6878 74.7311C99.1669 74.7311 100.366 73.5321 100.366 72.0531C100.366 70.574 99.1669 69.375 97.6878 69.375C96.2088 69.375 95.0098 70.574 95.0098 72.0531C95.0098 73.5321 96.2088 74.7311 97.6878 74.7311Z" fill="#DC8E6C"/>
  <path d="M118.445 128.922L95.4609 120.36L82.8505 154.214L105.835 162.776L118.445 128.922Z" fill="white"/>
  <path d="M113.093 125.122L102 120.99L100.757 124.327L111.85 128.459L113.093 125.122Z" fill="#038743"/>
  <path d="M115.501 129.816L97.1045 122.963L85.9518 152.904L104.348 159.756L115.501 129.816Z" fill="#025E2E"/>
  <path d="M104.516 141.813C107.596 141.652 110.898 138.727 114 138.727C117.713 138.727 120.321 141.078 120.321 144.019C120.321 150.226 115.471 152.031 113.633 152.031C110.546 152.031 110.026 151.556 109.452 151.15C108.517 151.377 107.142 152.546 103.476 152.546C99.811 152.546 104.516 141.813 104.516 141.813Z" fill="#DC8E6C"/>
  <path d="M82.8869 95.5919C66.8549 91.8222 61.0222 147.564 63.5777 152.385C66.1332 157.205 102.434 155.61 104.468 155.224C105.053 152.954 105.746 142.304 105.035 141.026C104.037 140.633 86.5295 140.418 86.5295 140.418C86.9834 138.602 92.6731 115.584 92.866 112.956C93.7602 100.621 91.8765 97.7072 82.8869 95.5919Z" fill="#9E9E9E"/>
  <path d="M160.77 52.0557H151.143C150.194 52.0557 149.425 52.8249 149.425 53.7737V53.776C149.425 54.7248 150.194 55.494 151.143 55.494H160.77C161.719 55.494 162.488 54.7248 162.488 53.776V53.7737C162.488 52.8249 161.719 52.0557 160.77 52.0557Z" fill="#038743"/>
  <path d="M159.786 64.9351L156.956 66.5691C156.659 66.7402 156.558 67.1191 156.729 67.4155L156.73 67.4174C156.901 67.7138 157.28 67.8153 157.576 67.6442L160.407 66.0102C160.703 65.8391 160.804 65.4602 160.633 65.1638L160.632 65.1619C160.461 64.8655 160.082 64.764 159.786 64.9351Z" fill="#212121"/>
  <path d="M160.507 62.8476L157.552 61.4504C157.243 61.3041 156.874 61.4363 156.727 61.7457L156.726 61.7477C156.58 62.057 156.712 62.4264 157.022 62.5727L159.976 63.9699C160.285 64.1162 160.655 63.984 160.801 63.6746L160.802 63.6726C160.948 63.3633 160.816 62.9939 160.507 62.8476Z" fill="#212121"/>
  <path d="M151.346 64.0952L152.282 67.2266C152.38 67.5545 152.725 67.7409 153.053 67.643L153.055 67.6423C153.383 67.5444 153.569 67.1992 153.471 66.8714L152.536 63.7399C152.438 63.412 152.093 63.2256 151.765 63.3236L151.763 63.3242C151.435 63.4222 151.248 63.7673 151.346 64.0952Z" fill="#212121"/>
  <path d="M153.035 64.6215L155.127 67.1324C155.346 67.3953 155.737 67.4308 155.999 67.2118L156.001 67.2103C156.264 66.9913 156.3 66.6006 156.081 66.3377L153.989 63.8269C153.77 63.564 153.379 63.5284 153.116 63.7475L153.114 63.7489C152.851 63.9679 152.816 64.3586 153.035 64.6215Z" fill="#212121"/>
  <path d="M155.523 64.9293L158.783 65.1505C159.125 65.1736 159.42 64.9156 159.443 64.5742L159.443 64.572C159.467 64.2306 159.209 63.935 158.867 63.9119L155.607 63.6907C155.265 63.6676 154.97 63.9256 154.946 64.267L154.946 64.2692C154.923 64.6106 155.181 64.9062 155.523 64.9293Z" fill="#212121"/>
  <path d="M98.9014 93.9668L103.67 95.7415L105.34 94.373L107.06 95.7415L109.45 93.3086" stroke="#D8D8D8" stroke-width="2" stroke-miterlimit="10" stroke-linecap="round"/>
</svg>
