<svg width="215" height="215" viewBox="0 0 215 215" fill="none"
  xmlns="http://www.w3.org/2000/svg">
  <path d="M158.466 153.361C144.779 159.832 127.92 157.683 112.575 155.214C97.2295 152.745 83.4185 150 67.7992 142.722C52.213 135.442 34.8437 123.655 29.274 107.416C23.6714 91.1695 29.8722 70.4455 41.586 54.591C53.2669 38.7291 70.4539 27.768 88.9828 22.3705C107.537 17.0133 127.394 17.2092 138.152 27.5761C148.91 37.9431 150.543 58.4371 158.177 74.9621C165.806 91.5187 179.427 104.102 180.99 117.976C182.592 131.821 172.119 146.884 158.466 153.361Z" fill="#F2F2F2"/>
  <path d="M81.9799 170.168H126.967L139.039 199.001H72.3398L81.9799 170.168Z" fill="#D7D8D6"/>
  <path d="M119.156 113.137C117.558 113.167 116.152 111.289 116.015 108.944C115.878 106.598 117.063 104.673 118.661 104.643C120.258 104.614 121.665 106.491 121.801 108.837C121.938 111.182 120.754 113.108 119.156 113.137Z" fill="#DE8E68"/>
  <path d="M118.589 72.7681C119.026 73.6542 122.143 83.5757 122.102 92.1027C122.06 100.63 120.942 105.456 120.981 106.126C121.02 106.796 116.302 106.612 116.279 106.213C116.255 105.814 116.762 93.6704 116.376 91.522C115.989 89.3737 111.743 76.9822 111.746 75.4494C111.749 73.9165 118.589 72.7681 118.589 72.7681Z" fill="#DE8E68"/>
  <path d="M91.062 175.102H86.6328V178.141H91.062V175.102Z" fill="#DE8E68"/>
  <path d="M119.982 175.102H114.806V178.141H119.982V175.102Z" fill="#DE8E68"/>
  <path d="M114.615 106.335C114.736 108.628 120.138 175.101 120.138 175.101H114.615L100.25 125.181C100.25 125.181 103.984 105.206 104.245 105.258C105.478 105.571 112.235 106.769 114.615 106.335Z" fill="black"/>
  <path d="M106.555 105.759L91.6698 175.637H86.3373C86.3373 175.637 85.8684 99.0547 86.3373 99.0547C91.3397 101.174 100.789 104.648 106.555 105.759Z" fill="#212121"/>
  <path d="M111.962 60.9308C106.994 61.9721 107.445 74.4127 108.863 75.7948C110.656 77.565 117.84 76.4807 120.525 74.3475C121.767 73.3313 116.042 60.0844 111.962 60.9308Z" fill="#025E2E"/>
  <path d="M99.3818 55.1992C78.7121 55.1992 83.6129 101.958 84.933 104.685C86.253 107.412 112.513 108.471 114.597 106.335C116.682 104.199 120.52 55.1992 99.3818 55.1992Z" fill="#038743"/>
  <path d="M102.942 49.832H96.6895V58.9163C96.6895 60.08 102.942 60.08 102.942 58.9163V49.832Z" fill="#D37C59"/>
  <path d="M99.7465 53.0957C103.68 53.0957 106.868 47.7454 106.868 41.1455C106.868 34.5456 103.68 29.1953 99.7465 29.1953C95.8134 29.1953 92.625 34.5456 92.625 41.1455C92.625 47.7454 95.8134 53.0957 99.7465 53.0957Z" fill="#DE8E68"/>
  <path d="M98.5653 26.5211C94.9698 26.5211 90.2105 28.258 86.754 28.258C83.6275 28.258 77.9477 26 74.9428 26C73.0321 26 64 26.8858 64 34.1637C64 37.4465 67.4739 40.5904 68.1687 41.4588C68.8635 42.3273 70.1314 47.1908 73.3795 47.1908C77.913 47.1908 81.0395 43.8906 85.1908 43.8906C88.0567 43.8906 88.8036 44.5853 90.2279 44.5853C91.2701 44.5853 92.8333 44.099 92.8333 44.0643C92.8333 43.5258 92.7291 39.0271 93.3544 38.2976C94.2229 37.2554 105.287 38.8013 105.287 35.1363C106.069 35.8311 106.798 38.7839 106.798 39.3919C107.302 38.8708 109.178 36.6128 109.178 34.181C109.161 31.9577 107.597 26.5211 98.5653 26.5211Z" fill="black"/>
  <path d="M78.3699 112.66C80.1818 112.932 81.9616 111.085 82.3452 108.533C82.7289 105.981 81.5711 103.691 79.7592 103.419C77.9473 103.147 76.1675 104.994 75.7839 107.546C75.4002 110.098 76.558 112.388 78.3699 112.66Z" fill="#DE8E68"/>
  <path d="M82.8121 68.9792C82.2381 69.8765 77.79 80.1857 77.0121 89.4483C76.2343 98.7109 77.0201 104.116 76.9116 104.837C76.8031 105.559 82.103 106.057 82.1676 105.628C82.2321 105.198 82.8378 91.9401 83.4784 89.6652C84.1191 87.3903 90.0693 74.5669 90.2142 72.9024C90.359 71.238 82.8121 68.9792 82.8121 68.9792Z" fill="#DE8E68"/>
  <path d="M92.2442 58.6968C87.7797 56.4975 80.6229 66.3643 80.8765 68.2994C81.1951 70.7361 87.3572 74.2621 90.7153 74.2401C92.2999 74.2149 95.9058 60.512 92.2442 58.6968Z" fill="#025E2E"/>
  <path d="M86.4063 177.445V178.783L81.126 188.683H84.5651L91.4434 182.448V177.445H86.4063Z" fill="black"/>
  <path d="M114.632 177.234V182.254H129.309V180.274L119.999 177.234H114.632Z" fill="black"/>
  <path d="M112.161 190.836H97.9177C97.6282 192.747 98.6125 196.689 104.865 197.176C111.119 197.662 112.334 193.152 112.161 190.836Z" fill="white"/>
  <rect x="136" y="37" width="4" height="133" fill="#D7D8D6"/>
</svg>
