<svg width="659" height="442" viewBox="0 0 659 442" fill="none" xmlns="http://www.w3.org/2000/svg">
  <g clip-path="url(#clip0)">
    <path d="M42.942 270.609C101.486 369.66 271.979 442.37 361.552 388.783C498.638 317.674 700.852 68.0021 639.174 4.805C577.496 -58.3922 389.515 -295.208 176.898 -169.283C-35.7203 -43.3576 -15.6017 171.557 42.942 270.609Z" fill="#EAEAEA"/>
    <path d="M370.69 162.903C370.69 152.828 364.509 144.656 356.892 144.656C349.274 144.656 343.118 152.828 343.118 162.903C343.118 168.198 344.821 172.979 347.541 176.294C346.589 183.347 344.136 193.221 343.718 194.989C343.718 194.989 366.101 210.607 366.101 196.385C366.101 185.594 366.851 178.752 367.532 174.561C369.65 171.045 370.744 167.008 370.69 162.903Z" fill="#DC8E6C"/>
    <path d="M361.496 145.896H342.549C341.494 145.896 340.64 146.751 340.64 147.806V173.746C340.64 174.8 341.494 175.655 342.549 175.655H361.496C362.551 175.655 363.406 174.8 363.406 173.746V147.806C363.406 146.751 362.551 145.896 361.496 145.896Z" fill="#EFEFEF"/>
    <path d="M263.062 229.968C267.822 228.265 302.528 228.265 330.765 245.958C332.468 239.152 338.931 190.295 338.931 190.295L367.854 192.184C367.854 192.184 374.317 255.469 361.39 288.13C355.264 301.062 284.815 274.18 284.815 274.18L263.062 229.968Z" fill="#9E9E9E"/>
    <path d="M233.892 219.447C321.293 216.606 317.202 419.777 307.771 428.392C298.341 437.006 180.984 438.397 173.191 429.399C165.397 420.402 147.352 222.264 233.892 219.447Z" fill="#666666"/>
    <path d="M247.62 220.698C238.713 218.315 227.886 219.58 221.771 221.202C225.539 232.467 243.433 369.999 245.141 435.426C251.398 435.32 260.607 435.098 268.139 434.645C267.66 384.665 264.375 274.442 247.62 220.698Z" fill="white"/>
    <path d="M247.826 229.65C247.826 233.681 224.44 233.681 224.44 229.278C224.44 224.875 221.297 192.209 221.297 192.209L244.582 190.295C244.582 190.295 247.821 227.091 247.826 229.65Z" fill="#D37C59"/>
    <path d="M276.391 198.664C276.587 196.407 276.693 194.13 276.693 191.782C276.693 160.694 258.31 135.484 235.635 135.484C212.959 135.484 194.576 160.674 194.576 191.782C194.577 195.269 194.812 198.751 195.281 202.205L276.391 198.664Z" fill="black"/>
    <path d="M268.558 167.384C263.52 165.399 258.638 163.263 254.668 159.293C244.28 170.719 226.059 184.129 219.429 188.452C222.079 205.581 232.22 218.357 244.331 218.357C258.462 218.357 269.918 200.991 269.918 179.565C269.923 175.479 269.49 171.403 268.628 167.409L268.558 167.384Z" fill="#DC8E6C"/>
    <path d="M222.364 190.38C225.647 190.38 228.308 187.718 228.308 184.435C228.308 181.152 225.647 178.49 222.364 178.49C219.08 178.49 216.419 181.152 216.419 184.435C216.419 187.718 219.08 190.38 222.364 190.38Z" fill="#DC8E6C"/>
    <path d="M268.437 310.672L217.418 291.668L189.426 366.816L240.445 385.82L268.437 310.672Z" fill="white"/>
    <path d="M256.556 302.237L231.932 293.064L229.172 300.472L253.797 309.644L256.556 302.237Z" fill="#038743"/>
    <path d="M261.905 312.657L221.068 297.445L196.312 363.907L237.148 379.118L261.905 312.657Z" fill="#025E2E"/>
    <path d="M237.518 339.287C244.355 338.929 251.685 332.436 258.571 332.436C266.813 332.436 272.602 337.655 272.602 344.184C272.602 357.962 261.836 361.967 257.755 361.967C250.904 361.967 249.75 360.914 248.476 360.013C246.4 360.516 243.347 363.111 235.211 363.111C227.075 363.111 237.518 339.287 237.518 339.287Z" fill="#DC8E6C"/>
    <path d="M189.507 236.689C153.92 228.321 140.973 352.055 146.646 362.756C152.318 373.456 232.898 369.914 237.412 369.058C238.712 364.02 240.249 340.378 238.672 337.541C236.455 336.67 197.593 336.191 197.593 336.191C198.601 332.161 211.231 281.067 211.659 275.233C213.644 247.853 209.462 241.384 189.507 236.689Z" fill="#9E9E9E"/>
    <path d="M362.391 140.047H341.021C338.914 140.047 337.207 141.754 337.207 143.861V143.866C337.207 145.972 338.914 147.679 341.021 147.679H362.391C364.497 147.679 366.205 145.972 366.205 143.866V143.861C366.205 141.754 364.497 140.047 362.391 140.047Z" fill="#038743"/>
    <path d="M360.205 168.636L353.923 172.264C353.265 172.643 353.039 173.484 353.419 174.142L353.422 174.147C353.801 174.804 354.643 175.03 355.3 174.65L361.583 171.023C362.241 170.643 362.466 169.802 362.086 169.144L362.084 169.14C361.704 168.482 360.863 168.257 360.205 168.636Z" fill="#212121"/>
    <path d="M361.806 164.006L355.248 160.904C354.562 160.58 353.742 160.873 353.417 161.56L353.415 161.564C353.09 162.251 353.383 163.071 354.07 163.396L360.628 166.497C361.315 166.822 362.135 166.528 362.46 165.842L362.462 165.837C362.786 165.15 362.493 164.33 361.806 164.006Z" fill="#212121"/>
    <path d="M341.471 166.772L343.547 173.723C343.764 174.451 344.53 174.865 345.258 174.647L345.263 174.646C345.991 174.429 346.405 173.662 346.187 172.935L344.111 165.983C343.894 165.256 343.128 164.842 342.4 165.059L342.395 165.061C341.667 165.278 341.253 166.044 341.471 166.772Z" fill="#212121"/>
    <path d="M345.219 167.942L349.863 173.516C350.349 174.099 351.216 174.178 351.8 173.692L351.804 173.689C352.387 173.202 352.466 172.335 351.98 171.752L347.336 166.178C346.85 165.595 345.983 165.516 345.399 166.002L345.395 166.005C344.812 166.491 344.733 167.359 345.219 167.942Z" fill="#212121"/>
    <path d="M350.742 168.623L357.979 169.114C358.737 169.165 359.393 168.593 359.445 167.835L359.445 167.83C359.496 167.072 358.924 166.416 358.166 166.365L350.928 165.874C350.17 165.822 349.514 166.395 349.463 167.153L349.462 167.158C349.411 167.916 349.984 168.572 350.742 168.623Z" fill="#212121"/>
  </g>
  <defs>
    <clipPath id="clip0">
      <rect width="645" height="356" fill="white" transform="translate(0 80)"/>
    </clipPath>
  </defs>
</svg>
