<svg width="971" height="719" viewBox="0 0 971 719" fill="none" xmlns="http://www.w3.org/2000/svg">
<path d="M970.902 719H0.902344V512.482C60.7519 493.785 248.237 418.053 500.135 458.94C728.657 496.034 920.541 633.163 970.902 719Z" fill="#F0F0F0"/>
<path d="M334.205 287.757C334.64 295.97 353.99 534.077 353.99 534.077H334.205L282.751 355.264C282.751 355.264 296.128 283.713 297.061 283.9C301.478 285.02 325.681 289.313 334.205 287.757Z" fill="black"/>
<path d="M249.838 534.077H233.972V544.965H249.838V534.077Z" fill="#DE8E68"/>
<path d="M353.064 534.077H334.523V544.965H353.064V534.077Z" fill="#DE8E68"/>
<path d="M305.336 285.704L252.015 536.006H232.915C232.915 536.006 231.235 261.688 232.915 261.688C250.833 269.278 284.68 281.722 305.336 285.704Z" fill="#666666"/>
<path d="M339.893 149.447C342.941 150.754 359.243 164.255 366.086 173.152C371.188 169.357 429.424 121.013 430.606 118.338C432.908 117.031 437.824 124.435 430.606 130.471C435.521 130.284 464.577 129.537 464.577 130.471C464.577 131.404 470.861 134.079 428.18 140.923C422.518 147.767 371.251 208.056 362.913 208.056C354.576 208.056 320.605 175.081 319.174 169.17C317.743 163.259 339.893 149.447 339.893 149.447Z" fill="#DE8E68"/>
<path d="M303.531 122.631C290.217 135.013 314.606 172.343 321.512 173.961C330.285 176.076 350.319 159.464 354.612 147.954C356.541 142.541 314.482 112.49 303.531 122.631Z" fill="#5CBCA2"/>
<path d="M279.64 104.588C205.601 104.588 222.4 247.502 227.128 257.27C231.857 267.038 326.677 295.41 334.143 287.757C341.609 280.104 355.359 104.588 279.64 104.588Z" fill="#50ABAD"/>
<path d="M292.395 85.3623H269.996V117.902C269.996 122.071 292.395 122.071 292.395 117.902V85.3623Z" fill="#D37C59"/>
<path d="M280.947 97.0599C295.035 97.0599 306.456 77.8951 306.456 54.2541C306.456 30.6131 295.035 11.4482 280.947 11.4482C266.858 11.4482 255.437 30.6131 255.437 54.2541C255.437 77.8951 266.858 97.0599 280.947 97.0599Z" fill="#DE8E68"/>
<path d="M276.317 1.86885C263.583 1.86885 246.728 8.09836 234.487 8.09836C223.414 8.09836 203.299 0 192.657 0C185.89 0 153.902 3.17705 153.902 29.2787C153.902 41.0525 166.205 52.3279 168.666 55.4426C171.126 58.5574 175.617 76 187.12 76C203.176 76 214.248 64.1639 228.95 64.1639C239.1 64.1639 241.745 66.6557 246.79 66.6557C250.481 66.6557 256.017 64.9115 256.017 64.7869C256.017 62.8557 255.648 46.7213 257.862 44.1049C260.938 40.3672 300.123 45.9115 300.123 32.7672C302.891 35.259 305.475 45.8492 305.475 48.0295C307.259 46.1607 313.902 38.0623 313.902 29.341C313.841 21.3672 308.305 1.86885 276.317 1.86885Z" fill="black"/>
<path d="M255.643 233.605L195.585 238.1L201.543 317.701L261.601 313.207L255.643 233.605Z" fill="#DFDFDF"/>
<path d="M261.927 239.389L201.869 243.884L207.827 323.486L267.885 318.991L261.927 239.389Z" fill="#F2F2F2"/>
<path d="M223.333 323.533C229.896 323.533 235.217 316.039 235.217 306.796C235.217 297.553 229.896 290.06 223.333 290.06C216.77 290.06 211.45 297.553 211.45 306.796C211.45 316.039 216.77 323.533 223.333 323.533Z" fill="#DE8E68"/>
<path d="M215.805 166.433C214.249 169.917 203.983 208.803 206.161 242.027C208.339 275.251 214 293.979 214 296.592C214 299.205 233.039 298.148 233.039 296.592C233.039 295.037 228.124 247.751 229.182 239.352C230.239 230.952 244.487 182.36 244.114 176.387C243.74 170.415 215.805 166.433 215.805 166.433Z" fill="#DE8E68"/>
<path d="M243.74 124.995C226.755 119.582 206.658 158.344 208.587 165.063C211.014 173.525 234.719 182.733 246.602 180.867C252.202 179.933 257.677 129.475 243.74 124.995Z" fill="#5CBCA2"/>
<path d="M233.164 542.477V547.267L214.249 582.731H226.568L251.207 560.395V542.477H233.164Z" fill="black"/>
<path d="M333.902 541.73V559.711H386.476V552.619L353.128 541.73H333.902Z" fill="black"/>
<path d="M243.802 245.449C243.989 247.565 242.371 249.369 240.256 249.555C238.141 249.742 236.336 248.124 236.15 246.009L235.216 233.379C235.03 231.263 236.647 229.459 238.763 229.272C240.878 229.086 242.682 230.703 242.869 232.819L243.367 239.538" stroke="black" stroke-width="2.5" stroke-miterlimit="10" stroke-linecap="round" stroke-linejoin="round"/>
</svg>
