<svg width="20" height="13" viewBox="0 0 20 13" fill="none" xmlns="http://www.w3.org/2000/svg">
<path fill-rule="evenodd" clip-rule="evenodd" d="M19.6804 6.46873C19.6804 6.16405 19.6007 5.8828 19.4412 5.62499C18.4618 3.91405 17.1292 2.55468 15.4437 1.54687C13.7353 0.515624 11.8675 0 9.8402 0C7.81294 0 5.94512 0.515624 4.23675 1.54687C2.55116 2.55468 1.21864 3.91405 0.239172 5.62499C0.0797237 5.8828 0 6.16405 0 6.46873C0 6.77342 0.0797237 7.05467 0.239172 7.31248C1.21864 9.02342 2.55116 10.3828 4.23675 11.3906C5.94512 12.4218 7.81294 12.9375 9.8402 12.9375C11.8675 12.9375 13.7353 12.4218 15.4437 11.3906C17.1292 10.3828 18.4618 9.02342 19.4412 7.31248C19.6007 7.05467 19.6804 6.77342 19.6804 6.46873ZM14.6066 9.94919C13.1601 10.8164 11.5714 11.25 9.8402 11.25C8.10906 11.25 6.52027 10.8164 5.07385 9.94919C3.62744 9.08201 2.48283 7.92186 1.64003 6.46873C2.41449 5.1328 3.4509 4.04296 4.74926 3.19921C6.04762 2.35546 7.47127 1.86328 9.02019 1.72265C9.38464 2.09765 9.56686 2.55468 9.56686 3.09374C9.56686 3.6328 9.37894 4.09569 9.0031 4.48241C8.62726 4.86913 8.17739 5.06249 7.65349 5.06249C7.12959 5.06249 6.67972 4.86913 6.30388 4.48241C5.92804 4.09569 5.74012 3.6328 5.74012 3.09374C5.37567 3.79687 5.19344 4.54686 5.19344 5.34374C5.19344 6.21092 5.40414 7.0078 5.82554 7.73436C6.24693 8.46092 6.8107 9.04099 7.51682 9.47459C8.22295 9.90818 8.99741 10.125 9.8402 10.125C10.683 10.125 11.4575 9.90818 12.1636 9.47459C12.8697 9.04099 13.4335 8.46092 13.8549 7.73436C14.2763 7.0078 14.487 6.21092 14.487 5.34374C14.487 4.26561 14.1681 3.29296 13.5303 2.42578C14.487 2.84765 15.3468 3.40429 16.1099 4.09569C16.873 4.7871 17.5165 5.57811 18.0404 6.46873C17.1976 7.92186 16.053 9.08201 14.6066 9.94919Z" fill="#6B8592"/>
</svg>
