<svg width="21" height="19" viewBox="0 0 21 19" fill="none" xmlns="http://www.w3.org/2000/svg">
<path d="M9.60059 12.6365C8.6911 12.5646 7.82552 12.2156 7.12059 11.6365C6.41126 11.064 5.88039 10.3007 5.59059 9.43646C5.28932 8.57719 5.25102 7.64761 5.48059 6.76646L9.60059 12.6365ZM10.1206 13.7665H10.4106L11.5306 15.3865C11.0606 15.3865 10.5906 15.4565 10.1206 15.4565C8.09584 15.4695 6.10537 14.9338 4.36059 13.9065C2.65572 12.9314 1.23808 11.5241 0.250587 9.82646C0.0870486 9.57498 0 9.28144 0 8.98146C0 8.68148 0.0870486 8.38795 0.250587 8.13646C1.13534 6.62182 2.36113 5.33439 3.83059 4.37646L4.83059 5.74646C3.54292 6.57206 2.46734 7.68876 1.69059 9.00646C2.54745 10.4515 3.76349 11.6503 5.22059 12.4865C6.70858 13.3473 8.4017 13.7895 10.1206 13.7665ZM20.0006 9.85646C19.4286 10.8567 18.6993 11.7582 17.8406 12.5265C16.9965 13.3011 16.0387 13.9418 15.0006 14.4265L16.6806 16.8565C16.7158 16.897 16.7405 16.9455 16.7527 16.9978C16.7649 17.0501 16.7642 17.1045 16.7506 17.1565C16.7274 17.2609 16.667 17.3533 16.5806 17.4165L15.8406 17.9465C15.7952 17.9801 15.7432 18.0037 15.6881 18.0157C15.6329 18.0278 15.5758 18.028 15.5206 18.0165C15.4683 18.0102 15.4186 17.9902 15.3765 17.9586C15.3343 17.927 15.3013 17.8849 15.2806 17.8365L3.59059 1.17646C3.5554 1.13592 3.53063 1.08741 3.51843 1.03513C3.50623 0.982855 3.50697 0.928391 3.52059 0.876463C3.54096 0.770853 3.60201 0.677477 3.69059 0.616463L4.43059 0.0864633C4.47517 0.0511434 4.52678 0.0257383 4.58196 0.011943C4.63714 -0.00185226 4.69463 -0.0037204 4.75059 0.00646325C4.80433 0.0120749 4.85568 0.0316376 4.89953 0.0632115C4.94338 0.0947853 4.97822 0.137274 5.00059 0.186463L7.00059 3.00646C8.03055 2.72656 9.09326 2.58531 10.1606 2.58646C12.1887 2.57214 14.1827 3.1078 15.9306 4.13646C17.6177 5.10338 19.0212 6.49654 20.0006 8.17646C20.168 8.42425 20.2552 8.71747 20.2506 9.01646C20.2527 9.31511 20.1657 9.60759 20.0006 9.85646ZM18.5606 9.00646C17.7753 7.67279 16.677 6.55045 15.3606 5.73646C14.0458 4.90459 12.5506 4.40046 11.0006 4.26646C10.818 4.44398 10.674 4.65728 10.5776 4.89302C10.4813 5.12876 10.4346 5.38186 10.4406 5.63646C10.4358 5.89091 10.483 6.14365 10.5793 6.37922C10.6756 6.61479 10.8189 6.82823 11.0006 7.00646C11.1812 7.1906 11.3967 7.33687 11.6345 7.43673C11.8723 7.53659 12.1277 7.58802 12.3856 7.58802C12.6435 7.58802 12.8988 7.53659 13.1367 7.43673C13.3745 7.33687 13.59 7.1906 13.7706 7.00646C13.9583 6.82764 14.1069 6.61173 14.2067 6.37244C14.3066 6.13315 14.3556 5.8757 14.3506 5.61646C14.8906 6.60534 15.054 7.75637 14.8106 8.85646C14.5856 9.99424 13.9391 11.005 13.0006 11.6865L14.0006 13.0065C14.9514 12.586 15.8343 12.0266 16.6206 11.3465C17.3952 10.6821 18.0513 9.89081 18.5606 9.00646Z" fill="#6B8592"/>
</svg>
