<svg width="970" height="847" xmlns="http://www.w3.org/2000/svg">

 <g>
  <title>background</title>
  <rect fill="none" id="canvas_background" height="402" width="582" y="-1" x="-1"/>
 </g>
 <g>
  <title>Layer 1</title>
  <path id="svg_1" fill="#F0F0F0" d="m970,847l-970,0l0,-206.518c59.8495,-18.697 247.335,-94.429 499.232,-53.542c228.522,37.094 420.407,174.223 470.768,260.06z"/>
  <path id="svg_2" fill="black" d="m333.302,415.757c0.435,8.213 19.785,246.32 19.785,246.32l-19.785,0l-51.454,-178.814c0,0 13.376,-71.55 14.31,-71.363c4.417,1.119 28.62,5.412 37.144,3.857z"/>
  <path id="svg_3" fill="#DE8E68" d="m248.936,662.077l-15.866,0l0,10.888l15.866,0l0,-10.888z"/>
  <path id="svg_4" fill="#DE8E68" d="m352.162,662.077l-18.541,0l0,10.888l18.541,0l0,-10.888z"/>
  <path id="svg_5" fill="#666666" d="m304.434,413.704l-53.321,250.302l-19.101,0c0,0 -1.68,-274.318 0,-274.318c17.919,7.59 51.765,20.034 72.422,24.016z"/>
  <path id="svg_6" fill="#DE8E68" d="m338.99,277.447c3.049,1.307 19.35,14.808 26.194,23.705c5.102,-3.795 63.337,-52.139 64.52,-54.814c2.302,-1.307 7.217,6.097 0,12.133c4.915,-0.187 33.97,-0.934 33.97,0c0,0.933 6.284,3.608 -36.397,10.452c-5.662,6.844 -56.929,67.133 -65.266,67.133c-8.338,0 -42.308,-32.975 -43.739,-38.886c-1.431,-5.911 20.718,-19.723 20.718,-19.723z"/>
  <path id="svg_7" fill="#5cbca2" d="m302.63,250.631c-13.315,12.382 11.075,49.712 17.981,51.33c8.773,2.115 28.807,-14.497 33.1,-26.007c1.929,-5.413 -40.131,-35.464 -51.081,-25.323z"/>
  <path id="svg_8" fill="#50abad" d="m278.737,232.588c-74.039,0 -57.24,142.914 -52.512,152.682c4.729,9.769 99.549,38.14 107.015,30.487c7.466,-7.653 21.216,-183.169 -54.503,-183.169z"/>
  <path id="svg_9" fill="#D37C59" d="m291.492,213.363l-22.398,0l0,32.54c0,4.168 22.398,4.168 22.398,0l0,-32.54z"/>
  <path id="svg_10" fill="#DE8E68" d="m280.044,225.06c14.089,0 25.51,-19.165 25.51,-42.806c0,-23.641 -11.421,-42.806 -25.51,-42.806c-14.088,0 -25.509,19.165 -25.509,42.806c0,23.641 11.421,42.806 25.509,42.806z"/>
  <path id="svg_11" fill="black" d="m275.414,129.869c-12.733,0 -29.588,6.229 -41.83,6.229c-11.072,0 -31.188,-8.098 -41.83,-8.098c-6.766,0 -38.754,3.177 -38.754,29.279c0,11.773 12.303,23.049 14.764,26.164c2.46,3.114 6.951,20.557 18.454,20.557c16.055,0 27.128,-11.836 41.83,-11.836c10.15,0 12.795,2.492 17.839,2.492c3.691,0 9.228,-1.745 9.228,-1.869c0,-1.931 -0.37,-18.066 1.845,-20.682c3.076,-3.738 42.261,1.806 42.261,-11.338c2.768,2.492 5.351,13.082 5.351,15.263c1.784,-1.869 8.428,-9.968 8.428,-18.689c-0.062,-7.974 -5.598,-27.472 -37.586,-27.472z"/>
  <path id="svg_12" fill="#DFDFDF" d="m254.742,361.605l-60.058,4.495l5.957,79.602l60.058,-4.495l-5.957,-79.602z"/>
  <path id="svg_13" fill="#F2F2F2" d="m261.025,367.389l-60.058,4.495l5.957,79.602l60.058,-4.495l-5.957,-79.602z"/>
  <path id="svg_14" fill="#DE8E68" d="m222.43,451.532c6.564,0 11.884,-7.493 11.884,-16.736c0,-9.244 -5.32,-16.737 -11.884,-16.737c-6.563,0 -11.883,7.493 -11.883,16.737c0,9.243 5.32,16.736 11.883,16.736z"/>
  <path id="svg_15" fill="#DE8E68" d="m214.903,294.432c-1.556,3.485 -11.822,42.371 -9.644,75.595c2.178,33.224 7.839,51.952 7.839,54.565c0,2.613 19.039,1.555 19.039,0c0,-1.555 -4.915,-48.841 -3.858,-57.24c1.058,-8.4 15.306,-56.992 14.933,-62.965c-0.374,-5.973 -28.309,-9.955 -28.309,-9.955z"/>
  <path id="svg_16" fill="#5cbca2" d="m242.839,252.996c-16.986,-5.413 -37.082,33.348 -35.153,40.068c2.426,8.461 26.131,17.67 38.015,15.803c5.599,-0.933 11.074,-51.392 -2.862,-55.871z"/>
  <path id="svg_17" fill="black" d="m232.262,670.477l0,4.79l-18.914,35.464l12.319,0l24.638,-22.336l0,-17.918l-18.043,0z"/>
  <path id="svg_18" fill="black" d="m333,669.73l0,17.981l52.574,0l0,-7.093l-33.349,-10.888l-19.225,0z"/>
  <path id="svg_19" stroke-linejoin="round" stroke-linecap="round" stroke-miterlimit="10" stroke-width="2.5" stroke="black" d="m242.9,373.449c0.186,2.116 -1.431,3.92 -3.547,4.106c-2.115,0.187 -3.92,-1.431 -4.106,-3.546l-0.934,-12.63c-0.186,-2.116 1.432,-3.92 3.547,-4.107c2.115,-0.186 3.92,1.431 4.106,3.547l0.498,6.719"/>
 </g>
</svg>