<?xml version="1.0" standalone="no"?>
<!DOCTYPE svg PUBLIC "-//W3C//DTD SVG 20010904//EN"
 "http://www.w3.org/TR/2001/REC-SVG-20010904/DTD/svg10.dtd">
<svg version="1.0" xmlns="http://www.w3.org/2000/svg"
 width="598.000000pt" height="176.000000pt" viewBox="0 0 598.000000 176.000000"
 preserveAspectRatio="xMidYMid meet">
<metadata>
Created by potrace 1.15, written by Peter Selinger 2001-2017
</metadata>
<g transform="translate(0.000000,176.000000) scale(0.100000,-0.100000)"
fill="#c82d37" stroke="none">
<path d="M675 1412 c-61 -19 -125 -48 -125 -58 0 -3 42 -51 92 -107 l93 -102
83 4 c73 3 89 0 137 -24 148 -72 208 -246 134 -393 -52 -104 -141 -161 -289
-184 -36 -6 -72 -13 -80 -16 -8 -3 87 -11 213 -17 125 -7 230 -15 234 -19 3
-3 -88 -6 -203 -7 -120 -1 -198 -4 -184 -9 14 -4 64 -8 111 -9 47 -1 122 -4
165 -8 56 -6 -18 -9 -261 -13 -216 -3 -340 -9 -339 -15 1 -18 124 -93 188
-115 86 -31 239 -38 326 -15 207 54 378 230 420 432 19 90 8 244 -23 325 -62
161 -185 282 -343 339 -84 30 -265 36 -349 11z"/>
<path d="M439 1273 c-32 -31 -59 -60 -59 -64 0 -5 50 -42 111 -83 l112 -75 46
35 c25 20 46 40 46 44 0 13 -175 200 -186 200 -6 0 -37 -25 -70 -57z"/>
<path d="M5345 1177 c-3 -7 -4 -143 -3 -302 l3 -290 52 -3 52 -3 3 103 3 103
65 -102 65 -102 63 -1 c34 0 62 3 62 6 0 3 -31 50 -70 104 -38 54 -70 104 -70
111 0 7 26 47 58 89 83 107 83 100 10 100 l-63 -1 -55 -79 c-30 -44 -58 -80
-62 -80 -5 0 -8 81 -8 180 l0 180 -50 0 c-32 0 -52 -5 -55 -13z"/>
<path d="M336 1148 c-26 -41 -60 -138 -50 -148 15 -15 245 -100 255 -94 5 3 9
13 9 22 0 9 9 35 19 58 l19 41 -96 59 c-148 92 -139 88 -156 62z"/>
<path d="M1780 1145 c-70 -20 -127 -60 -167 -119 -84 -122 -60 -328 48 -405
57 -42 109 -54 205 -49 67 4 90 10 135 35 65 36 113 96 134 165 44 149 -14
307 -130 359 -59 26 -158 32 -225 14z m171 -131 c33 -29 50 -78 50 -149 1
-121 -59 -191 -159 -183 -89 8 -132 67 -132 185 0 79 32 140 85 164 35 15 132
5 156 -17z"/>
<path d="M2437 1140 c-107 -27 -187 -105 -211 -203 -11 -46 -9 -150 4 -198 17
-63 89 -132 159 -153 55 -16 169 -20 226 -7 29 6 30 8 29 59 -1 29 -4 55 -6
57 -2 2 -25 -1 -52 -7 -95 -20 -174 10 -202 78 -19 46 -18 148 2 190 9 19 31
44 48 57 27 19 43 22 118 21 l87 -1 6 49 c4 27 5 52 2 55 -11 10 -172 12 -210
3z"/>
<path d="M2758 1144 c-12 -11 -10 -552 2 -559 5 -3 70 -7 143 -8 129 -1 135 0
193 28 75 38 104 79 104 147 0 43 -5 55 -32 82 -18 18 -40 35 -48 39 -12 4 -9
10 13 27 83 65 73 180 -19 225 -32 16 -68 20 -194 23 -85 2 -158 0 -162 -4z
m267 -119 c14 -13 25 -31 25 -40 0 -27 -45 -62 -89 -70 -55 -9 -71 5 -71 60 0
68 6 75 62 75 39 0 54 -5 73 -25z m9 -224 c10 -8 16 -29 16 -52 0 -44 -24 -66
-83 -76 -56 -9 -77 9 -77 67 0 78 4 83 71 78 31 -2 64 -10 73 -17z"/>
<path d="M3478 1136 c-130 -35 -208 -148 -208 -300 0 -121 70 -221 176 -252
43 -12 80 -15 143 -11 117 7 122 10 115 61 -9 66 -8 65 -59 54 -136 -29 -218
36 -218 172 0 135 75 197 209 173 l54 -10 5 31 c12 75 11 80 -15 87 -40 11
-151 9 -202 -5z"/>
<path d="M3937 1143 c-4 -3 -7 -131 -7 -283 l0 -277 87 -6 c149 -9 250 18 290
79 23 35 32 91 22 129 -9 31 -52 78 -81 87 -8 3 4 20 30 45 39 37 42 44 42 92
0 47 -4 57 -33 86 -18 18 -51 38 -72 44 -43 12 -267 15 -278 4z m233 -86 c30
-15 45 -54 36 -90 -8 -35 -53 -57 -116 -57 l-50 0 0 73 c0 41 3 77 7 80 11 12
97 7 123 -6z m-1 -238 c36 -13 51 -35 51 -76 -1 -55 -42 -83 -124 -83 l-56 0
0 85 0 85 49 0 c26 0 62 -5 80 -11z"/>
<path d="M702 1060 c-23 -16 -42 -34 -42 -39 0 -7 194 -141 205 -141 3 0 5 19
5 43 0 39 -5 48 -63 105 l-63 63 -42 -31z"/>
<path d="M611 959 c-39 -68 -33 -75 122 -135 l138 -53 -3 41 c-3 40 -5 42
-103 105 -55 35 -107 68 -116 73 -12 7 -21 0 -38 -31z"/>
<path d="M4460 987 c-32 -11 -35 -15 -32 -47 2 -19 5 -37 7 -39 2 -2 18 2 36
8 40 14 124 14 150 1 13 -7 19 -21 19 -44 0 -34 -1 -34 -52 -41 -29 -4 -77
-17 -106 -31 -45 -20 -56 -30 -73 -69 -17 -38 -18 -51 -9 -79 15 -47 42 -68
93 -73 52 -6 107 10 132 37 24 26 35 25 32 -2 -2 -21 3 -23 46 -26 l47 -3 0
163 c0 176 -5 196 -53 232 -23 17 -45 21 -115 23 -51 2 -102 -2 -122 -10z"/>
<path d="M5040 989 c-14 -6 -37 -22 -52 -36 l-28 -27 0 32 c0 32 0 32 -50 32
l-50 0 0 -205 0 -205 55 0 55 0 0 121 c0 136 13 180 61 204 39 21 65 19 83 -7
13 -18 16 -53 16 -170 l0 -148 50 0 50 0 0 170 c0 184 -6 212 -51 236 -32 16
-102 18 -139 3z"/>
<path d="M267 953 c-20 -20 1 -240 25 -270 8 -10 81 -13 295 -13 l284 0 -3 42
-3 41 -135 48 c-74 27 -139 49 -144 49 -8 0 -3 -88 9 -140 3 -14 -6 -2 -20 25
-13 28 -27 69 -31 92 l-6 42 -125 45 c-132 49 -136 50 -146 39z"/>
<path d="M310 637 c0 -8 12 -19 27 -26 15 -7 33 -21 41 -32 12 -17 26 -19 166
-19 150 0 153 0 176 25 l23 25 -117 0 c-103 0 -121 3 -143 20 -20 16 -41 20
-99 20 -55 0 -74 -3 -74 -13z"/>
</g>
</svg>
