<svg width="228" height="210" viewBox="0 0 228 210" fill="none" xmlns="http://www.w3.org/2000/svg">
<path d="M196.571 95.6449C196.092 90.3397 188.671 81.9912 160.546 58.9162C148.639 49.1475 126.291 37.7048 112.864 33.0883C95.3314 27.0607 72.8545 18.4819 57.2375 24.8103C41.6059 31.1868 32.8014 52.4867 32.8326 72.385C32.8938 92.2661 41.7561 110.763 51.8741 128.588C61.992 146.414 73.344 163.578 88.0255 166.968C102.655 170.332 120.641 159.906 137.882 151.851C155.123 143.796 171.662 138.125 183.175 125.854C192.663 115.779 197.733 108.525 196.571 95.6449Z" fill="#F1F1F1"/>
<path d="M176.01 90.1553C176.719 90.4914 178.393 91.8356 179.036 92.6097C179.777 92.2397 192.456 83.9663 194.292 84.0663C196.127 84.1663 195.161 87.967 195.161 88.337C195.161 88.7071 179.867 101.153 177.375 101.153C174.883 101.153 171.57 95.5022 171.57 95.1661C171.57 94.8301 176.01 90.1553 176.01 90.1553Z" fill="#DE8E68"/>
<path d="M201.94 57.4643L200.057 57.1843L196.229 56.6182L195.688 60.6188L179.611 179.358L178.612 186.735C178.469 187.795 178.734 188.87 179.35 189.726C179.965 190.581 180.881 191.146 181.894 191.296L183.78 191.576C184.794 191.725 185.823 191.448 186.641 190.804C187.46 190.16 188 189.203 188.143 188.143L189.142 180.768L205.219 62.029L205.76 58.0284L201.94 57.4643Z" fill="#9E9E9E"/>
<path d="M202.78 44.1816L196.234 56.6216L205.765 58.0319L202.78 44.1816Z" fill="#D7D8D6"/>
<path d="M203.762 48.7464L202.778 44.1816L200.621 48.2803L203.762 48.7464Z" fill="#9E9E9E"/>
<path d="M189.286 179.578L179.754 178.167L179.269 181.744L188.801 183.155L189.286 179.578Z" fill="#F3F3F3"/>
<path d="M168.979 186.657H164.34V189.58H168.979V186.657Z" fill="#DE8E68"/>
<path d="M177.878 176.12L175.359 179.701L177.613 181.432L180.131 177.85L177.878 176.12Z" fill="#DE8E68"/>
<path d="M146.764 124.622C146.764 124.622 143.731 153.067 144.791 156.251C145.852 159.436 175.796 180.207 175.796 180.207L178.579 176.33L155.924 151.956C157.048 151.056 161.459 139.773 161.572 138.802C161.685 137.832 158.305 122.8 158.305 122.8L146.764 124.622Z" fill="#A8000B"/>
<path d="M165.233 84.2485C167.648 80.3518 177.099 88.4291 177.352 90.1214C177.604 91.8137 173.738 98.4768 170.701 98.3087C167.664 98.1407 163.827 86.5168 165.233 84.2485Z" fill="#1C1C1C"/>
<path d="M158.703 78.1719C177.122 78.1719 172.165 117.674 171.884 120.853C170.475 123.383 148.109 126.162 146.762 124.621C146.199 120.205 141.298 78.1719 158.703 78.1719Z" fill="black"/>
<path d="M156.996 80.1147C156.996 81.2308 162.91 81.4689 162.91 80.1147V72.5234H156.996V80.1147Z" fill="#DE8E68"/>
<path d="M163.676 75.8135C166.397 74.682 167.423 70.6665 165.968 66.8445C164.513 63.0225 161.128 60.8414 158.407 61.9728C155.686 63.1043 154.66 67.1198 156.115 70.9418C157.57 74.7638 160.955 76.9449 163.676 75.8135Z" fill="#DE8E68"/>
<path d="M157.116 73.3692C157.649 72.9704 157.637 72.0006 157.091 71.203C156.544 70.4054 155.669 70.0822 155.137 70.481C154.604 70.8798 154.615 71.8497 155.161 72.6472C155.708 73.4448 156.583 73.7681 157.116 73.3692Z" fill="#DE8E68"/>
<path d="M151.156 68.3616C151.156 67.3294 152.077 66.1952 152.251 64.899C152.341 64.2429 152.146 61.5105 152.879 60.5863C154.41 58.672 155.302 59.0641 156.467 58.618C158.498 57.8419 159.275 56.5557 160.951 56.5557C162.865 56.5557 163.631 57.5878 164.988 57.5878C166.546 57.5878 167.824 56.8377 170.012 56.8377C171.177 56.8377 172.701 58.438 172.701 59.8382C172.701 63.1627 169.742 62.6867 169.742 63.4948C169.742 64.0569 169.922 64.4949 169.922 65.2771C169.922 66.2772 168.666 66.8773 167.949 66.8773C165.763 66.8773 165.472 66.5993 165.472 66.5993C165.039 65.6926 164.485 64.8548 163.826 64.1109C163.738 64.0149 162.318 65.063 159.998 65.1451C158.098 65.2111 156.758 65.5951 156.758 66.5193C156.758 67.1734 156.988 69.1197 156.974 69.6598C156.961 70.1999 156.783 70.5599 156.659 70.5599C156.534 70.5599 156.467 70.3839 155.746 70.3839C154.963 70.3839 154.902 71.3841 154.768 71.3841C153.983 71.3781 151.156 70.712 151.156 68.3616Z" fill="black"/>
<path d="M150.902 96.7527C150.659 96.7527 150.418 96.8016 150.192 96.8967C150.17 96.8652 150.141 96.8393 150.108 96.821C150.075 96.8026 150.038 96.7923 150 96.7907C149.375 96.7907 143.445 96.5607 142.82 96.6747C143.851 95.7525 146.023 93.3641 146.023 93.3641L141.124 87.2432C140.02 87.6672 132.027 96.0986 132.027 99.1771C132.027 102.028 135.49 102.45 137.995 102.45C141.097 102.45 145.928 101.633 148.521 100.849C148.774 102.322 149.744 103.42 150.904 103.42C152.257 103.42 153.354 101.93 153.354 100.091C153.354 98.2529 152.255 96.7527 150.902 96.7527Z" fill="#DE8E68"/>
<path d="M152.683 82.444C155.745 85.9926 147.34 95.7961 145.82 95.7961C144.3 95.7961 139.011 90.0412 139.587 86.4666C140.163 82.8921 150.894 80.3756 152.683 82.444Z" fill="#1C1C1C"/>
<path d="M171.884 120.854L169.388 187.298H164.088L155.922 124.674" fill="#DB0011"/>
<path d="M169.155 188.845V193.183H156.984V191.757L163.901 188.845H169.155Z" fill="black"/>
<path d="M179.772 177.443L182.629 179.246L179.49 191.536L178.172 191.168L177.02 181.372L179.772 177.443Z" fill="black"/>
<rect x="33.5547" y="74.6699" width="92.205" height="130.516" rx="4" transform="rotate(-10.6716 33.5547 74.6699)" fill="#D7D8D6"/>
<rect x="59.4609" y="138.506" width="64.9331" height="5.19465" transform="rotate(-10.6716 59.4609 138.506)" fill="#9E9E9E"/>
<rect x="66.1953" y="174.24" width="64.9331" height="5.19465" transform="rotate(-10.6716 66.1953 174.24)" fill="#9E9E9E"/>
<rect x="56.75" y="123.451" width="33.7652" height="10.3893" transform="rotate(-10.6716 56.75 123.451)" fill="#9E9E9E"/>
<rect x="63.4805" y="159.187" width="33.7652" height="10.3893" transform="rotate(-10.6716 63.4805 159.187)" fill="#9E9E9E"/>
<path d="M85.0005 102.781C78.8525 103.802 73.0162 99.629 71.9948 93.4809C70.9735 87.3329 75.1469 81.4965 81.295 80.4752C87.443 79.4539 93.2794 83.6273 94.3007 89.7754C95.322 95.9234 91.1486 101.76 85.0005 102.781ZM80.8318 77.687C73.1223 78.9677 67.9259 86.2346 69.2066 93.9441C70.4873 101.654 77.7543 106.85 85.4637 105.569C93.1732 104.289 98.3697 97.0216 97.0889 89.3122C95.8082 81.6027 88.5413 76.4062 80.8318 77.687Z" fill="#00847F"/>
<path fill-rule="evenodd" clip-rule="evenodd" d="M81.9029 98.2366L75.5198 93.4114L76.7742 91.555L81.3701 95.0292L88.1799 84.9517L89.9672 86.3028L81.9029 98.2366Z" fill="#00847F"/>
</svg>
