<svg width="22" height="20" viewBox="0 0 22 20" fill="none" xmlns="http://www.w3.org/2000/svg">
<path d="M18.3333 16.1106H5.33011L6.31767 13.6661H17.8004L22 3.27724H2.80378L1.56811 0.22168H0V0.253457L5.07956 12.8191L3.74856 16.1106H3.05556C2.04356 16.1106 1.22222 16.9319 1.22222 17.9439C1.22222 18.9559 2.04356 19.7772 3.05556 19.7772C4.06756 19.7772 4.88889 18.9559 4.88889 17.9439C4.88889 17.818 4.87667 17.6958 4.85222 17.5772H16.5379C16.5134 17.6958 16.5012 17.818 16.5012 17.9439C16.5012 18.9559 17.3226 19.7772 18.3346 19.7772C19.3466 19.7772 20.1679 18.9559 20.1679 17.9439C20.1679 16.9319 19.3453 16.1106 18.3333 16.1106ZM19.6888 4.83557L16.7493 12.1078H6.47167L3.53222 4.83557H19.6888Z" fill="white"/>
</svg>
