<svg width="637" height="459" viewBox="0 0 637 459" fill="none" xmlns="http://www.w3.org/2000/svg">
<g clip-path="url(#clip0)">
<path d="M426.759 7.71844C327.232 -21.0094 156.351 113.467 83.3512 184.296C71.0588 196.31 48.3807 233.01 56.007 283.697C65.54 347.056 121.019 470.636 370.697 430.238C570.439 397.921 594.212 255.272 581.131 187.988C571.143 139.868 526.286 36.4463 426.759 7.71844Z" fill="#EDEDED"/>
<path d="M382.459 119.398L318.894 131.699C312.205 132.994 307.787 139.71 309.026 146.701L328.939 259.107C330.178 266.098 336.604 270.716 343.292 269.421L406.857 257.12C413.546 255.826 417.964 249.109 416.725 242.119L396.812 129.712C395.573 122.721 389.147 118.104 382.459 119.398Z" fill="#D0D0D0"/>
<path d="M369.485 121.907L306.785 134.041L331.183 271.763L393.883 259.629L369.485 121.907Z" fill="#D0D0D0"/>
<path d="M380.479 113.437L309.166 132.962C302.586 134.764 298.649 141.8 300.373 148.677L328.091 259.263C329.815 266.14 336.547 270.255 343.127 268.453L414.439 248.927C421.019 247.126 424.956 240.09 423.232 233.213L395.514 122.627C393.79 115.75 387.059 111.635 380.479 113.437Z" fill="#666666"/>
<path d="M365.201 117.62L297.25 136.226L331.211 271.716L399.162 253.111L365.201 117.62Z" fill="#666666"/>
<path d="M376.631 115.083L367.553 117.528L401.055 253.389L410.134 250.944L376.631 115.083Z" fill="#F3F3F3"/>
<path d="M388.259 129.573L311.391 150.62L320.346 186.348L397.214 165.301L388.259 129.573Z" fill="#F3F3F3"/>
<path d="M388.259 129.573L311.391 150.62L320.346 186.348L397.214 165.301L388.259 129.573Z" fill="#F3F3F3"/>
<path d="M360.871 235.925L331.406 243.992L336.133 262.851L365.597 254.783L360.871 235.925Z" fill="#F3F3F3"/>
<path d="M449.931 161.66C450.638 161.995 452.31 163.337 452.951 164.11C453.691 163.74 466.345 155.483 468.177 155.583C470.009 155.683 469.044 159.476 469.044 159.845C469.044 160.215 453.78 172.636 451.293 172.636C448.806 172.636 445.5 166.996 445.5 166.661C445.5 166.326 449.931 161.66 449.931 161.66Z" fill="#DE8E68"/>
<path d="M475.812 129.035L473.933 128.755L470.113 128.19L469.572 132.183L453.527 250.689L452.53 258.052C452.387 259.109 452.652 260.183 453.266 261.036C453.881 261.89 454.794 262.454 455.806 262.604L457.687 262.883C458.699 263.032 459.727 262.755 460.544 262.113C461.36 261.47 461.899 260.515 462.042 259.457L463.039 252.097L479.084 133.591L479.625 129.598L475.812 129.035Z" fill="#DFDFDF"/>
<path d="M476.65 115.777L470.117 128.193L479.63 129.6L476.65 115.777Z" fill="#F3F3F3"/>
<path d="M477.633 120.333L476.651 115.777L474.498 119.868L477.633 120.333Z" fill="#DFDFDF"/>
<path d="M463.187 250.908L453.674 249.5L453.19 253.07L462.703 254.478L463.187 250.908Z" fill="#F3F3F3"/>
<path d="M442.919 257.974H438.289V260.89H442.919V257.974Z" fill="#DE8E68"/>
<path d="M451.798 247.455L449.285 251.029L451.534 252.756L454.047 249.182L451.798 247.455Z" fill="#DE8E68"/>
<path d="M420.745 196.06C420.745 196.06 417.717 224.449 418.775 227.627C419.833 230.805 449.719 251.536 449.719 251.536L452.496 247.667L429.886 223.341C431.008 222.442 435.41 211.181 435.523 210.212C435.636 209.244 432.262 194.241 432.262 194.241L420.745 196.06Z" fill="#A8000B"/>
<path d="M439.178 155.765C441.588 151.876 451.021 159.937 451.273 161.626C451.525 163.315 447.666 169.965 444.635 169.798C441.604 169.63 437.774 158.029 439.178 155.765Z" fill="#1C1C1C"/>
<path d="M432.66 149.701C451.042 149.701 446.095 189.126 445.815 192.298C444.409 194.824 422.087 197.597 420.742 196.059C420.181 191.651 415.289 149.701 432.66 149.701Z" fill="black"/>
<path d="M430.957 151.64C430.957 152.754 436.859 152.991 436.859 151.64V144.063H430.957V151.64Z" fill="#DE8E68"/>
<path d="M437.623 147.345C440.338 146.216 441.363 142.208 439.911 138.394C438.459 134.579 435.08 132.402 432.364 133.532C429.649 134.661 428.624 138.668 430.076 142.483C431.528 146.297 434.907 148.474 437.623 147.345Z" fill="#DE8E68"/>
<path d="M431.075 144.907C431.607 144.509 431.595 143.541 431.05 142.745C430.505 141.949 429.631 141.626 429.1 142.024C428.568 142.422 428.579 143.39 429.124 144.186C429.67 144.982 430.543 145.305 431.075 144.907Z" fill="#DE8E68"/>
<path d="M425.125 139.911C425.125 138.881 426.044 137.749 426.218 136.455C426.307 135.8 426.113 133.073 426.844 132.151C428.372 130.24 429.262 130.631 430.426 130.186C432.452 129.412 433.228 128.128 434.901 128.128C436.811 128.128 437.575 129.158 438.929 129.158C440.484 129.158 441.76 128.409 443.943 128.409C445.107 128.409 446.627 130.007 446.627 131.404C446.627 134.722 443.674 134.247 443.674 135.053C443.674 135.614 443.854 136.052 443.854 136.832C443.854 137.83 442.601 138.429 441.884 138.429C439.703 138.429 439.413 138.152 439.413 138.152C438.98 137.247 438.427 136.411 437.77 135.668C437.682 135.572 436.265 136.619 433.95 136.7C432.053 136.766 430.716 137.15 430.716 138.072C430.716 138.725 430.945 140.667 430.932 141.206C430.918 141.745 430.741 142.105 430.617 142.105C430.492 142.105 430.426 141.929 429.705 141.929C428.924 141.929 428.863 142.927 428.729 142.927C427.946 142.921 425.125 142.256 425.125 139.911Z" fill="#FD8369"/>
<path d="M424.877 168.247C424.634 168.247 424.393 168.296 424.168 168.39C424.146 168.359 424.117 168.333 424.084 168.315C424.051 168.297 424.014 168.286 423.977 168.285C423.352 168.285 417.435 168.055 416.81 168.169C417.84 167.249 420.008 164.865 420.008 164.865L415.118 158.756C414.016 159.179 406.039 167.594 406.039 170.666C406.039 173.511 409.494 173.932 411.995 173.932C415.091 173.932 419.912 173.118 422.5 172.335C422.753 173.805 423.721 174.901 424.878 174.901C426.229 174.901 427.323 173.413 427.323 171.579C427.323 169.744 426.227 168.247 424.877 168.247Z" fill="#DE8E68"/>
<path d="M426.654 153.966C429.71 157.508 421.32 167.292 419.804 167.292C418.287 167.292 413.008 161.548 413.583 157.981C414.158 154.413 424.868 151.902 426.654 153.966Z" fill="#1C1C1C"/>
<path d="M445.817 192.3L443.326 258.614H438.037L429.887 196.113" fill="#DB0011"/>
<path d="M443.094 260.156V264.486H430.947V263.063L437.85 260.156H443.094Z" fill="black"/>
<path d="M453.69 248.781L456.542 250.58L453.409 262.846L452.093 262.479L450.943 252.702L453.69 248.781Z" fill="black"/>
</g>
<defs>
<clipPath id="clip0">
<rect width="637" height="459" fill="white"/>
</clipPath>
</defs>
</svg>
