<svg width="239" height="239" viewBox="0 0 239 239" fill="none" xmlns="http://www.w3.org/2000/svg">
  <path d="M207.689 130.161C207.197 124.712 199.575 116.138 170.691 92.4395C158.462 82.4068 135.51 70.6548 121.72 65.9137C103.714 59.7231 80.6293 50.9125 64.5903 57.4119C48.5362 63.9607 39.4937 85.8363 39.5258 106.272C39.5886 126.691 48.6904 145.687 59.0818 163.995C69.4732 182.302 81.1321 199.93 96.2103 203.411C111.236 206.866 129.707 196.159 147.414 187.886C165.121 179.613 182.107 173.789 193.931 161.186C203.676 150.839 208.883 143.389 207.689 130.161Z" fill="#F1F1F1"/>
  <path d="M103.04 217.062H96.7305V221.005H103.04V217.062Z" fill="#DE8E68"/>
  <path d="M144.836 217.062H136.949V221.005H144.836V217.062Z" fill="#DE8E68"/>
  <path d="M136.952 118.446C137.125 121.734 144.837 217.06 144.837 217.06H136.952L116.445 145.472C116.445 145.472 121.776 116.827 122.148 116.902C123.909 117.35 133.555 119.069 136.952 118.446Z" fill="#212121"/>
  <path d="M125.122 117.825L103.857 217.85H96.2392C96.2392 217.85 95.5692 108.228 96.2392 108.228C103.385 111.261 116.884 116.234 125.122 117.825Z" fill="#666666"/>
  <path d="M142.117 63.2743C143.337 63.8017 149.862 69.2519 152.602 72.8434C154.644 71.3113 177.956 51.7964 178.429 50.7164C179.35 50.189 181.318 53.1778 178.429 55.614C180.396 55.5387 192.027 55.2373 192.027 55.614C192.027 55.9908 194.542 57.0707 177.457 59.8335C175.191 62.5962 154.669 86.9333 151.332 86.9333C147.995 86.9333 134.396 73.622 133.823 71.236C133.251 68.85 142.117 63.2743 142.117 63.2743Z" fill="#DE8E68"/>
  <path d="M125.112 52.2677C119.771 57.1875 129.554 72.0212 132.324 72.664C135.842 73.5046 143.878 66.9036 145.599 62.3299C146.373 60.179 129.504 48.2379 125.112 52.2677Z" fill="#A8000B"/>
  <path d="M115.047 45.1338C85.3711 45.1338 92.1044 102.569 93.9996 106.495C95.8949 110.421 133.9 121.823 136.893 118.747C139.885 115.672 145.397 45.1338 115.047 45.1338Z" fill="#DB0011"/>
  <path d="M120.386 37.2471H111.711V50.1985C111.711 51.8576 120.386 51.8576 120.386 50.1985V37.2471Z" fill="#D37C59"/>
  <path d="M115.655 42.7701C121.317 42.7701 125.907 35.0021 125.907 25.4197C125.907 15.8374 121.317 8.06934 115.655 8.06934C109.993 8.06934 105.402 15.8374 105.402 25.4197C105.402 35.0021 109.993 42.7701 115.655 42.7701Z" fill="#DE8E68"/>
  <path d="M113.873 4.09227C108.726 4.09227 101.913 6.61337 96.9655 6.61337C92.4901 6.61337 84.3598 3.33594 80.0584 3.33594C77.3235 3.33594 64.3945 4.6217 64.3945 15.1851C64.3945 19.95 69.3672 24.5132 70.3617 25.7738C71.3563 27.0343 73.1713 34.0934 77.8207 34.0934C84.3101 34.0934 88.7855 29.3033 94.7278 29.3033C98.8303 29.3033 99.8994 30.3118 101.938 30.3118C103.43 30.3118 105.668 29.6059 105.668 29.5554C105.668 28.7739 105.519 22.2442 106.414 21.1854C107.657 19.6727 123.495 21.9165 123.495 16.597C124.614 17.6054 125.658 21.8913 125.658 22.7737C126.379 22.0173 129.064 18.7399 129.064 15.2103C129.039 11.9833 126.802 4.09227 113.873 4.09227Z" fill="black"/>
  <path d="M102.314 96.8309L78.2773 98.6299L80.6617 130.489L104.699 128.69L102.314 96.8309Z" fill="#DFDFDF"/>
  <path d="M104.826 99.1464L80.7891 100.945L83.1734 132.804L107.211 131.006L104.826 99.1464Z" fill="#F2F2F2"/>
  <path d="M92.7905 132.675C95.4039 132.675 97.5224 129.673 97.5224 125.971C97.5224 122.269 95.4039 119.268 92.7905 119.268C90.1771 119.268 88.0586 122.269 88.0586 125.971C88.0586 129.673 90.1771 132.675 92.7905 132.675Z" fill="#DE8E68"/>
  <path d="M89.5825 69.583C88.9733 70.9804 84.9529 86.5764 85.8057 99.9017C86.6585 113.227 88.8759 120.738 88.8759 121.786C88.8759 122.834 96.3319 122.41 96.3319 121.786C96.3319 121.162 94.407 102.197 94.8212 98.8287C95.2354 95.4599 100.815 75.9711 100.669 73.5756C100.523 71.18 89.5825 69.583 89.5825 69.583Z" fill="#DE8E68"/>
  <path d="M100.524 53.2291C94.1413 51.0431 86.5892 66.6971 87.3141 69.4109C88.2259 72.8281 97.1341 76.5469 101.6 75.7931C103.704 75.4162 105.762 55.0383 100.524 53.2291Z" fill="#A8000B"/>
  <path d="M96.5125 221.004V222.881L88.8438 236.777H93.8386L103.828 228.025V221.004H96.5125Z" fill="black"/>
  <path d="M136.949 220.216V227.314H158.243V224.514L144.736 220.216H136.949Z" fill="black"/>
  <path d="M147.203 22.278L167.708 27.7863V16.7451L147.203 22.278Z" fill="#DFDFDF"/>
  <path d="M186.636 7.2793H155.09V34.8822H186.636V7.2793Z" fill="#DFDFDF"/>
  <path d="M100.665 101.733C100.733 102.637 100.141 103.408 99.3663 103.487C98.5917 103.567 97.9311 102.876 97.8627 101.973L97.521 96.5784C97.4527 95.6749 98.045 94.9043 98.8196 94.8246C99.5941 94.7449 100.255 95.4358 100.323 96.3393L100.505 99.2091" stroke="black" stroke-width="2.5" stroke-miterlimit="10" stroke-linecap="round" stroke-linejoin="round"/>
  <path d="M178.75 17.1999L169.016 27.7859L164.555 22.934L165.698 21.6901L169.016 25.2893L177.607 15.9561L178.75 17.1999Z" fill="white"/>
</svg>
