<svg width="239" height="277" viewBox="0 0 239 277" fill="none" xmlns="http://www.w3.org/2000/svg">
<g clip-path="url(#clip0)">
<path d="M194.969 36.7835C219.798 47.2661 238.146 75.9836 238.975 104.291C239.754 132.647 223.011 160.535 205.232 184.566C187.505 208.544 168.746 228.614 145.677 237.43C122.561 246.239 95.0914 243.792 75.3953 231.487C55.7517 219.229 43.9341 197.076 30.8178 175.181C17.7046 153.342 3.40093 131.708 0.550094 105.905C-2.3533 80.1536 6.25176 50.1301 26.0004 38.7644C45.7491 27.3987 76.5857 34.7001 107.685 34.4389C138.785 34.1777 170.091 26.3601 194.969 36.7835Z" fill="#F2F2F2"/>
<path d="M63.9258 111.089C64.1268 115.166 63.9258 269.59 63.9258 269.59H74.6396L91.0273 168.107C91.2344 164.817 94.2213 128.444 94.2213 128.444L75.36 108.959L63.9258 111.089Z" fill="#212121"/>
<path d="M107.224 109.988C107.224 109.988 119.499 188.973 119.499 192.188C119.499 195.404 99.401 268.269 99.401 268.269H89.0891L97.8611 184.259L67.7852 113.191" fill="#666666"/>
<path d="M56.1424 80.1074C55.5827 80.9253 52.0609 89.1875 52.3268 92.4402C52.735 97.4156 56.13 100.168 61.9368 103.187C63.6065 103.187 65.3875 83.7923 65.3875 83.7923L60.1651 80.1074H56.1424Z" fill="#DE8E68"/>
<path d="M67.7868 58.5293C59.9671 64.6055 53.3348 76.5652 54.6241 78.7668C55.2425 79.7961 58.4644 81.6308 62.1439 83.2975" fill="#A8000B"/>
<path d="M99.7207 26.1421C101.996 16.7778 97.8933 7.72527 90.5578 5.92277C83.2223 4.12027 75.4314 10.2504 73.1564 19.6147C70.8814 28.979 74.9837 38.0315 82.3193 39.834C89.6548 41.6365 97.4457 35.5064 99.7207 26.1421Z" fill="#DE8E68"/>
<path d="M85.5744 43.4453C102.967 43.4453 110.072 106.167 107.218 109.991C103.326 115.209 75.4728 119.411 63.9303 111.092C59.4902 107.905 58.8161 43.4453 85.5744 43.4453Z" fill="#DB0011"/>
<path d="M63.9258 269.59V277H89.0916V272.815L74.6396 269.59" fill="black"/>
<path d="M89.0918 268.268V276.999H115.448V273.604L99.416 268.268" fill="black"/>
<path d="M110.243 76.0956C110.731 76.618 114.958 82.8217 115.549 84.1464C116.727 83.1358 154.557 51.2372 155.179 50.8049C155.8 50.3727 156.876 50.41 157.297 50.6961C157.638 50.9205 157.885 51.2629 157.992 51.6584C158.098 52.0539 158.057 52.4749 157.875 52.8417C157.541 53.4637 152.838 57.6244 152.838 57.6244C153.222 58.1064 155.185 63.1129 152.671 65.4638C150.961 67.0652 149.023 67.597 147.158 66.605C145.921 67.9515 116.356 100.811 111.198 100.811C108.811 100.811 100.624 92.3621 96.9316 85.9967" fill="#DE8E68"/>
<path d="M84.1016 62.0961C84.1016 72.3579 92.1408 86.6622 94.9236 86.6622C97.7064 86.6622 111.62 76.4004 111.62 73.9127C111.62 71.425 100.798 53.0781 91.5224 53.0781C87.812 53.0781 84.1016 57.1206 84.1016 62.0961Z" fill="#A8000B"/>
<path d="M83.1753 21.052C88.506 21.0924 98.184 10.5757 98.184 10.1683C98.184 9.23541 96.539 4.30664 86.994 4.30664C80.1761 4.30664 69.4499 9.10792 69.4499 24.8769C69.4499 32.9961 66.293 41.6689 66.293 45.587C66.293 51.542 71.0639 55.2953 78.5992 55.2953C82.2385 55.2953 87.7113 53.4917 87.7113 50.5314C87.7113 46.2027 92.1267 32.1379 83.6917 29.0749" fill="black"/>
<path d="M84.654 28.6463C84.1486 28.9765 83.5593 29.1536 82.9565 29.1563C81.0302 29.1563 79.4688 27.3402 79.4688 25.0982C79.4688 22.8561 81.0302 21.0557 82.9565 21.0557C83.3171 21.0554 83.675 21.1185 84.014 21.2422" fill="#DE8E68"/>
<path d="M225.819 0H164.594V45.5188H225.819V0Z" fill="#D3D3D3"/>
<path d="M195.206 110.958C209.602 110.958 221.272 99.2212 221.272 84.7435C221.272 70.2658 209.602 58.5293 195.206 58.5293C180.811 58.5293 169.141 70.2658 169.141 84.7435C169.141 99.2212 180.811 110.958 195.206 110.958Z" fill="#D3D3D3"/>
</g>
<defs>
<clipPath id="clip0">
<rect width="239" height="277" fill="white"/>
</clipPath>
</defs>
</svg>
