<svg width="312" height="312" viewBox="0 0 312 312" fill="none" xmlns="http://www.w3.org/2000/svg">
<path d="M222.416 36.9464C239.983 52.7295 251.48 74.751 269.937 106.403C288.48 138.056 314.05 179.335 304.353 203.944C294.656 228.554 249.52 236.487 206.902 252.625C164.284 268.764 124.16 293.014 87.2496 288.287C50.3389 283.559 16.6411 249.861 8.16586 212.591C-0.395239 175.232 16.1882 134.308 28.1339 97.038C39.9938 59.772 47.2159 26.1445 67.9881 10.9195C88.7604 -4.30541 123.091 -1.034 152.159 5.29411C181.223 11.7003 204.849 21.1671 222.416 36.9464Z" fill="#F1F1F1"/>
<path d="M204.704 302.809H211.344V297.187H204.704V302.809Z" fill="#DE8E68"/>
<path d="M211.969 302.157V307.778H196.17V305.733L204.388 302.157H211.969Z" fill="black"/>
<path d="M101.487 233.848H108.127V228.226H101.487V233.848Z" fill="#DE8E68"/>
<path d="M108.752 232.969V238.591H92.9571V236.549L101.175 232.969H108.752Z" fill="black"/>
<path d="M204.474 157.785C204.81 160.979 211.864 298.671 211.864 298.671H204.474L168.539 169.025L204.474 157.785Z" fill="black"/>
<path d="M208.268 142.615C208.268 161.314 201.394 178.14 187.476 178.14C168.371 178.14 143.078 165.96 136.118 159.085C134.38 164.223 109.74 228.933 109.74 228.933H99.5349C99.5349 228.933 106.074 153.589 118.332 134.265C122.365 128.893 155.274 130.236 171.9 134.265C188.527 138.294 208.268 142.615 208.268 142.615Z" fill="#666666"/>
<path d="M158.92 33.6633C159.036 33.0857 159.36 32.5708 159.831 32.2167C160.302 31.8625 160.886 31.6938 161.473 31.7426C162.968 31.8481 165.412 35.7987 165.412 38.996C165.412 42.1932 164.51 43.3956 164.784 45.7184C165.057 48.0411 170.971 79.5372 170.971 81.4579C172.462 81.5633 177.799 80.8177 177.799 80.8177L174.063 95.863H163.187L156.16 35.2639L158.92 33.6633Z" fill="#D37C59"/>
<path d="M169.351 39.0273L167.059 48.2871C167.059 48.2871 144.452 45.6599 141.985 45.0509C139.518 44.4419 143.234 29.131 145.768 29.7557C148.301 30.3803 169.351 39.0273 169.351 39.0273Z" fill="black"/>
<path d="M190.065 66.4203C218.984 66.4203 211.852 141.136 208.475 143.931C205.099 146.726 169.144 137.294 166.158 133.133C163.171 128.971 168.855 66.4203 190.065 66.4203Z" fill="#DB0011"/>
<path d="M179.743 85.3889C178.154 85.9276 168.836 89.5621 168.836 89.5621C168.68 87.6882 161.516 50.5238 161.075 48.2479C161.979 45.9762 162.426 43.5485 162.391 41.1039C162.391 35.0022 159.912 30.0482 156.855 30.0482C153.798 30.0482 151.323 35.0022 151.323 41.1039C151.28 43.6577 151.772 46.1924 152.768 48.5446C152.424 53.1901 149.34 97.2995 155.633 103.589C162.27 110.225 178.404 104.24 188.211 99.7823C190.311 99.0562 187.449 83.3042 179.743 85.3889Z" fill="#DE8E68"/>
<path d="M172.823 42.8523L166.975 41.2994L165.89 45.3857L171.738 46.9385L172.823 42.8523Z" fill="black"/>
<path d="M208.495 80.1462C212.902 88.7034 195.448 104.12 190.619 102.972C185.79 101.824 178.002 84.5926 179.458 81.5008C180.914 78.409 204.208 71.8193 208.495 80.1462Z" fill="#A8000B"/>
<path d="M191.837 73.6618C191.837 75.1101 183.003 75.4771 183.003 73.6618V56.9846H191.837V73.6618Z" fill="#D37C59"/>
<path d="M184.229 66.6661C190.598 66.6661 195.761 58.3168 195.761 48.0175C195.761 37.7182 190.598 29.3689 184.229 29.3689C177.86 29.3689 172.697 37.7182 172.697 48.0175C172.697 58.3168 177.86 66.6661 184.229 66.6661Z" fill="#DC8E6C"/>
<path d="M175.589 35.662C175.501 37.0014 175.771 38.34 176.372 39.5406C176.972 40.7411 177.881 41.7604 179.005 42.4937C182.444 44.836 184.896 43.8015 187.418 46.0072C188.749 47.3384 192.009 49.911 192.04 53.8851C192.04 56.8247 193.004 58.3081 193.851 58.3081C194.698 58.3081 196.931 57.7225 198.368 57.7225C212.477 57.7225 229.044 72.2877 260.829 72.2877C277.432 72.2877 303.486 68.0989 303.486 43.7156C303.486 30.548 298.747 14.636 273.696 14.636C257.788 14.636 246.643 22.4436 233.573 22.4436C216.786 22.4436 210.314 16.3654 198.716 16.3654C190.455 16.3654 171.865 21.1515 171.865 33.6906C171.865 38.4532 173.356 39.8352 173.817 40.0811C173.965 39.558 174.875 36.8566 175.589 35.662Z" fill="black"/>
<path d="M190.853 55.3764C192.479 55.3764 193.797 54.0585 193.797 52.4329C193.797 50.8072 192.479 49.4894 190.853 49.4894C189.228 49.4894 187.91 50.8072 187.91 52.4329C187.91 54.0585 189.228 55.3764 190.853 55.3764Z" fill="#DC8E6C"/>
<path fill-rule="evenodd" clip-rule="evenodd" d="M103.395 238.133H94.2658V238.135C90.538 238.203 86.8388 240.083 84.7083 243.777L55.1256 295.069C50.7855 302.593 56.2106 312 64.8907 312H124.056C132.736 312 138.162 302.593 133.821 295.069L104.239 243.777C103.98 243.328 103.698 242.906 103.395 242.511V238.133Z" fill="#9E9E9E"/>
<path d="M93.4231 243.777C97.7631 236.252 108.613 236.252 112.953 243.777L142.536 295.068C146.876 302.593 141.451 312 132.771 312H73.6055C64.9253 312 59.5002 302.593 63.8403 295.068L93.4231 243.777Z" fill="#D7D8D6"/>
<path d="M107.363 284.242L99.7596 284.508L97.8106 262.386L107.764 262.039L107.363 284.242ZM98.963 292.745C98.9134 291.324 99.2897 290.209 100.092 289.399C100.894 288.573 102.085 288.133 103.667 288.078C105.234 288.023 106.431 288.38 107.257 289.148C108.099 289.901 108.544 290.988 108.594 292.409C108.643 293.815 108.259 294.931 107.442 295.757C106.64 296.567 105.486 296.998 103.981 297.05C102.46 297.103 101.256 296.755 100.369 296.004C99.4807 295.237 99.0121 294.151 98.963 292.745Z" fill="#9E9E9E"/>
</svg>
