<svg width="15" height="15" viewBox="0 0 15 15" fill="none" xmlns="http://www.w3.org/2000/svg">
<path d="M4.35833 10.75C3.38083 10.75 2.56667 11.4258 2.34167 12.3333H0V13.3333H2.34167C2.56667 14.2408 3.38083 14.9167 4.35833 14.9167C5.33583 14.9167 6.15 14.2408 6.37417 13.3333H15V12.3333H6.37417C6.15 11.4258 5.33583 10.75 4.35833 10.75ZM4.35833 13.9167C3.76083 13.9167 3.275 13.4308 3.275 12.8333C3.275 12.2358 3.76083 11.75 4.35833 11.75C4.95583 11.75 5.44167 12.2358 5.44167 12.8333C5.44167 13.4308 4.95583 13.9167 4.35833 13.9167ZM10.6417 5.75C9.66417 5.75 8.85 6.42583 8.62583 7.33333H0V8.33333H8.62583C8.85083 9.24083 9.665 9.91667 10.6417 9.91667C11.6192 9.91667 12.4333 9.24083 12.6583 8.33333H15V7.33333H12.6583C12.4333 6.42583 11.6192 5.75 10.6417 5.75ZM10.6417 8.91667C10.0442 8.91667 9.55833 8.43083 9.55833 7.83333C9.55833 7.23583 10.0442 6.75 10.6417 6.75C11.2392 6.75 11.725 7.23583 11.725 7.83333C11.725 8.43083 11.2392 8.91667 10.6417 8.91667ZM6.37417 2.33333C6.15 1.42583 5.33583 0.75 4.35833 0.75C3.38083 0.75 2.56667 1.42583 2.34167 2.33333H0V3.33333H2.34167C2.56667 4.24083 3.38083 4.91667 4.35833 4.91667C5.33583 4.91667 6.15 4.24083 6.37417 3.33333H15V2.33333H6.37417ZM4.35833 3.91667C3.76083 3.91667 3.275 3.43083 3.275 2.83333C3.275 2.23583 3.76083 1.75 4.35833 1.75C4.95583 1.75 5.44167 2.23583 5.44167 2.83333C5.44167 3.43083 4.95583 3.91667 4.35833 3.91667Z" fill="#666666"/>
</svg>
