<svg width="18" height="18" viewBox="0 0 18 18" fill="none" xmlns="http://www.w3.org/2000/svg">
<path d="M14.9641 3.66795H3.03607C4.55377 1.97038 6.72297 1 9.00007 1C11.2772 1 13.4464 1.97038 14.9641 3.66795V3.66795Z" fill="#E3161A"/>
<path d="M16.548 6.33997H1.45203C1.80517 5.35309 2.3488 4.44522 3.05203 3.66797H14.964C15.6615 4.44659 16.1997 5.35437 16.548 6.33997V6.33997Z" fill="white"/>
<path d="M17.0001 8.99997C17.0007 9.9058 16.8479 10.8052 16.5481 11.66H1.45206C0.849314 9.93785 0.849314 8.06208 1.45206 6.33997H16.5481C16.8479 7.19474 17.0007 8.09414 17.0001 8.99997V8.99997Z" fill="#241E50"/>
<path d="M14.9641 14.332C13.4464 16.0296 11.2772 17 9.00007 17C6.72297 17 4.55377 16.0296 3.03607 14.332H14.9641Z" fill="#E3161A"/>
<path d="M16.548 11.66V11.66C16.1949 12.6469 15.6513 13.5548 14.948 14.332H3.03604C2.33281 13.5548 1.78918 12.6469 1.43604 11.66H16.548V11.66Z" fill="white"/>
<path fill-rule="evenodd" clip-rule="evenodd" d="M9.00012 17C13.4184 17 17.0001 13.4183 17.0001 9C17.0001 4.58172 13.4184 1 9.00012 1C4.58184 1 1.00012 4.58172 1.00012 9C1.00012 13.4183 4.58184 17 9.00012 17Z" stroke="#DCE2E5" stroke-width="0.5"/>
</svg>
