<svg width="457" height="315" viewBox="0 0 457 315" fill="none" xmlns="http://www.w3.org/2000/svg">
<g clip-path="url(#clip0)">
<path d="M412.215 153.141C353.35 104.894 184.595 49.6027 97.0749 56.8065C-37.0051 63.5253 -232.99 130.618 -171.483 165.192C-109.977 199.766 78.0289 322.598 285.791 306.002C493.553 289.406 471.081 201.387 412.215 153.141Z" fill="#EAEAEA"/>
<path d="M257.795 45.3188C257.795 38.4281 253.567 32.8398 248.358 32.8398C243.149 32.8398 238.938 38.4281 238.938 45.3188C238.938 48.9398 240.103 52.2094 241.963 54.4764C241.312 59.2999 239.634 66.0527 239.348 67.262C239.348 67.262 254.656 77.9425 254.656 68.2164C254.656 60.8365 255.169 56.1578 255.635 53.2913C257.083 50.887 257.832 48.1256 257.795 45.3188Z" fill="#DC8E6C"/>
<path d="M251.507 33.6875H238.549C237.828 33.6875 237.243 34.2721 237.243 34.9933V52.7332C237.243 53.4544 237.828 54.039 238.549 54.039H251.507C252.228 54.039 252.813 53.4544 252.813 52.7332V34.9933C252.813 34.2721 252.228 33.6875 251.507 33.6875Z" fill="#EFEFEF"/>
<path d="M184.189 91.1827C187.445 90.0182 211.18 90.0181 230.491 102.118C231.655 97.4635 236.075 64.0508 236.075 64.0508L255.855 65.3428C255.855 65.3428 260.275 108.623 251.435 130.959C247.245 139.803 199.066 121.419 199.066 121.419L184.189 91.1827Z" fill="#9E9E9E"/>
<path d="M164.236 83.9889C224.009 82.0458 221.212 220.992 214.762 226.884C208.312 232.775 128.054 233.726 122.724 227.573C117.394 221.419 105.053 85.9149 164.236 83.9889Z" fill="#666666"/>
<path d="M173.629 84.8437C167.537 83.214 160.133 84.0788 155.951 85.1882C158.528 92.8919 170.766 186.949 171.934 231.693C176.213 231.621 182.511 231.47 187.661 231.159C187.334 196.978 185.088 121.598 173.629 84.8437Z" fill="white"/>
<path d="M167.965 97.2148C173.767 126.528 179.569 193.246 180.444 223.434" stroke="#D8D8D8" stroke-width="2" stroke-miterlimit="10" stroke-linecap="round"/>
<path d="M173.77 90.9656C173.77 93.7219 157.776 93.7219 157.776 90.7107C157.776 87.6995 155.626 65.36 155.626 65.36L171.551 64.0508C171.551 64.0508 173.766 89.2154 173.77 90.9656Z" fill="#D37C59"/>
<path d="M193.305 69.7742C193.439 68.2306 193.512 66.6734 193.512 65.0678C193.512 43.8068 180.94 26.5664 165.432 26.5664C149.925 26.5664 137.353 43.793 137.353 65.0678C137.353 67.4521 137.515 69.8336 137.835 72.1962L193.305 69.7742Z" fill="black"/>
<path d="M187.947 48.3808C184.502 47.0234 181.164 45.5626 178.449 42.8477C171.344 50.6616 158.883 59.8331 154.349 62.7892C156.161 74.5032 163.096 83.2406 171.379 83.2406C181.043 83.2406 188.878 71.3646 188.878 56.7116C188.881 53.9169 188.585 51.1299 187.996 48.3981L187.947 48.3808Z" fill="#DC8E6C"/>
<path d="M156.354 64.1095C158.599 64.1095 160.42 62.2893 160.42 60.044C160.42 57.7987 158.599 55.9785 156.354 55.9785C154.109 55.9785 152.289 57.7987 152.289 60.044C152.289 62.2893 154.109 64.1095 156.354 64.1095Z" fill="#DC8E6C"/>
<path d="M187.866 146.376L152.975 133.379L133.831 184.772L168.723 197.769L187.866 146.376Z" fill="white"/>
<path d="M179.739 140.607L162.899 134.334L161.012 139.4L177.852 145.672L179.739 140.607Z" fill="#DB0011"/>
<path d="M183.395 147.733L155.467 137.33L138.537 182.782L166.464 193.185L183.395 147.733Z" fill="#A8000B"/>
<path d="M166.717 165.945C171.392 165.701 176.405 161.26 181.115 161.26C186.751 161.26 190.71 164.829 190.71 169.294C190.71 178.717 183.347 181.456 180.556 181.456C175.871 181.456 175.082 180.736 174.21 180.119C172.791 180.464 170.703 182.238 165.139 182.238C159.574 182.238 166.717 165.945 166.717 165.945Z" fill="#DC8E6C"/>
<path d="M133.887 95.7774C109.549 90.0548 100.695 174.675 104.574 181.993C108.454 189.311 163.561 186.889 166.649 186.303C167.537 182.858 168.588 166.689 167.51 164.749C165.994 164.153 139.417 163.826 139.417 163.826C140.106 161.07 148.743 126.127 149.036 122.138C150.393 103.412 147.534 98.9885 133.887 95.7774Z" fill="#9E9E9E"/>
<path d="M252.12 29.6875H237.505C236.064 29.6875 234.896 30.8552 234.896 32.2956V32.2991C234.896 33.7395 236.064 34.9072 237.505 34.9072H252.12C253.56 34.9072 254.728 33.7395 254.728 32.2991V32.2956C254.728 30.8552 253.56 29.6875 252.12 29.6875Z" fill="#DB0011"/>
<path d="M250.622 49.2386L246.325 51.7192C245.875 51.9789 245.721 52.5541 245.981 53.004L245.983 53.007C246.242 53.4569 246.818 53.611 247.268 53.3513L251.564 50.8707C252.014 50.611 252.168 50.0357 251.908 49.5859L251.907 49.5829C251.647 49.133 251.072 48.9789 250.622 49.2386Z" fill="#212121"/>
<path d="M251.717 46.0719L247.232 43.9509C246.762 43.7289 246.201 43.9295 245.979 44.3991L245.978 44.4022C245.756 44.8718 245.956 45.4325 246.426 45.6546L250.911 47.7756C251.381 47.9977 251.941 47.7971 252.163 47.3275L252.165 47.3243C252.387 46.8547 252.186 46.294 251.717 46.0719Z" fill="#212121"/>
<path d="M237.81 47.9642L239.23 52.7179C239.379 53.2157 239.903 53.4986 240.4 53.35L240.404 53.349C240.901 53.2003 241.184 52.6763 241.036 52.1786L239.616 47.4248C239.467 46.9271 238.943 46.6441 238.445 46.7928L238.442 46.7937C237.944 46.9424 237.661 47.4664 237.81 47.9642Z" fill="#212121"/>
<path d="M240.376 48.7626L243.552 52.5742C243.884 52.9733 244.477 53.0273 244.876 52.6948L244.879 52.6926C245.278 52.3601 245.332 51.767 245 51.3679L241.824 47.5563C241.491 47.1572 240.898 47.1032 240.499 47.4357L240.497 47.4379C240.097 47.7704 240.043 48.3635 240.376 48.7626Z" fill="#212121"/>
<path d="M244.152 49.2296L249.102 49.5653C249.62 49.6004 250.069 49.2088 250.104 48.6905L250.104 48.6871C250.139 48.1688 249.747 47.7201 249.229 47.685L244.279 47.3493C243.761 47.3141 243.312 47.7058 243.277 48.2241L243.277 48.2275C243.242 48.7458 243.633 49.1944 244.152 49.2296Z" fill="#212121"/>
<path d="M158.194 93.3116L165.432 96.0059L167.968 93.9284L170.58 96.0059L174.208 92.3125" stroke="#D8D8D8" stroke-width="2" stroke-miterlimit="10" stroke-linecap="round"/>
</g>
<defs>
<clipPath id="clip0">
<rect width="457" height="315" fill="white"/>
</clipPath>
</defs>
</svg>
