<svg width="121" height="29" viewBox="0 0 121 29" fill="none" xmlns="http://www.w3.org/2000/svg">
<path d="M14.7621 29C17.6818 29 20.5359 28.1496 22.9635 26.5563C25.3912 24.963 27.2833 22.6984 28.4006 20.0489C29.5179 17.3994 29.8102 14.4839 29.2406 11.6712C28.671 8.85846 27.2651 6.27481 25.2005 4.24695C23.136 2.21909 20.5057 0.838098 17.6421 0.278612C14.7785 -0.280873 11.8103 0.006275 9.11291 1.10375C6.41548 2.20122 4.10995 4.05972 2.48787 6.44423C0.865784 8.82874 0 11.6322 0 14.5C0 18.3456 1.55529 22.0338 4.32373 24.753C7.09216 27.4723 10.847 29 14.7621 29Z" fill="#E41E26"/>
<path d="M2.47338 14.4872C2.47338 12.0999 3.1941 9.76617 4.54441 7.78118C5.89471 5.79619 7.81395 4.24907 10.0594 3.33548C12.3049 2.42189 14.7758 2.18285 17.1596 2.6486C19.5433 3.11434 21.733 4.26395 23.4516 5.95205C25.1702 7.64014 26.3406 9.79091 26.8148 12.1324C27.2889 14.4738 27.0456 16.9008 26.1155 19.1064C25.1854 21.312 23.6103 23.1972 21.5894 24.5235C19.5685 25.8498 17.1926 26.5578 14.7621 26.5578C13.1479 26.5594 11.5491 26.2484 10.0574 25.6424C8.56569 25.0364 7.21031 24.1473 6.06885 23.0261C4.92739 21.9049 4.02228 20.5736 3.40531 19.1084C2.78835 17.6432 2.47166 16.0728 2.47338 14.4872ZM14.7621 27.1459C17.3116 27.1485 19.8046 26.4082 21.9256 25.0188C24.0467 23.6294 25.7006 21.6532 26.678 19.3404C27.6554 17.0275 27.9125 14.4819 27.4167 12.0255C26.9209 9.56907 25.6945 7.3123 23.8926 5.54067C22.0908 3.76904 19.7945 2.56214 17.2942 2.07266C14.7939 1.58318 12.202 1.83312 9.8463 2.79085C7.49065 3.74859 5.47711 5.37108 4.06043 7.45307C2.64375 9.53507 1.88758 11.983 1.88758 14.4872C1.88758 17.8423 3.24358 21.0602 5.65766 23.4338C8.07173 25.8074 11.3464 27.1426 14.7621 27.1459Z" fill="white"/>
<path d="M14.4627 8.09391H13.5645C13.5241 8.09395 13.484 8.08594 13.4468 8.07037C13.4096 8.0548 13.376 8.03198 13.348 8.00331C13.3201 7.97463 13.2983 7.94068 13.284 7.90351C13.2698 7.86634 13.2633 7.82672 13.2651 7.78704C13.2633 7.74673 13.2697 7.70648 13.2838 7.66859C13.2979 7.6307 13.3195 7.59591 13.3473 7.56622C13.3751 7.53653 13.4086 7.51252 13.4459 7.49555C13.4831 7.47859 13.5235 7.46902 13.5645 7.46737H14.4627V4.66711H12.3148L12.8355 8.59259H9.8284C9.8284 8.59259 10.9609 16.2645 7.91479 22.5556H11.9112C14.0201 16.7121 13.7988 16.0216 13.7988 16.0216H14.4627V13.4643H13.7858C13.7122 13.4496 13.6461 13.4104 13.5986 13.3533C13.5511 13.2962 13.5251 13.2248 13.5251 13.151C13.5251 13.0773 13.5511 13.0058 13.5986 12.9487C13.6461 12.8916 13.7122 12.8524 13.7858 12.8377H14.4627V8.09391Z" fill="white"/>
<path d="M15.0746 8.09391H15.9467C15.9872 8.09395 16.0272 8.08594 16.0644 8.07037C16.1016 8.0548 16.1352 8.03198 16.1632 8.00331C16.1912 7.97463 16.2129 7.94068 16.2272 7.90351C16.2415 7.86634 16.2479 7.82672 16.2461 7.78704C16.2479 7.74673 16.2415 7.70648 16.2274 7.66859C16.2133 7.6307 16.1917 7.59591 16.1639 7.56622C16.1361 7.53653 16.1026 7.51252 16.0654 7.49555C16.0281 7.47859 15.9878 7.46902 15.9467 7.46737H15.0746V4.66711H17.1964L16.6757 8.59259H19.6959C19.6959 8.59259 18.5503 16.2645 21.6095 22.5556H17.587C15.4781 16.7121 15.7254 16.0216 15.7254 16.0216H15.0746V13.4643H15.7254C15.799 13.4496 15.8652 13.4104 15.9127 13.3533C15.9602 13.2962 15.9861 13.2248 15.9861 13.151C15.9861 13.0773 15.9602 13.0058 15.9127 12.9487C15.8652 12.8916 15.799 12.8524 15.7254 12.8377H15.0746V8.09391Z" fill="white"/>
<path d="M12.5751 16.6226L12.8485 17.6455C12.8685 17.7201 12.8579 17.7994 12.819 17.8664C12.78 17.9333 12.7158 17.9826 12.6402 18.0035C12.6043 18.013 12.5668 18.0152 12.53 18.0099C12.4931 18.0046 12.4578 17.992 12.4261 17.9729C12.3944 17.9537 12.3671 17.9284 12.3457 17.8985C12.3243 17.8686 12.3094 17.8347 12.3018 17.7989L12.0544 16.8655H11.716L11.4817 17.7989C11.4726 17.8352 11.4562 17.8693 11.4335 17.8993C11.4108 17.9293 11.3823 17.9546 11.3496 17.9736C11.3169 17.9927 11.2806 18.0051 11.2429 18.0103C11.2053 18.0154 11.1669 18.0131 11.1302 18.0035C11.0546 17.9826 10.9904 17.9333 10.9515 17.8664C10.9125 17.7994 10.9019 17.7201 10.9219 17.6455L11.1953 16.6226C11.0014 16.4177 10.8943 16.1479 10.8959 15.8682V11.6102C10.8941 11.4742 10.9197 11.3392 10.9711 11.2129C11.0225 11.0866 11.0988 10.9715 11.1955 10.8741C11.2922 10.7767 11.4075 10.699 11.5347 10.6454C11.662 10.5918 11.7988 10.5634 11.9373 10.5617C12.2112 10.5717 12.4701 10.6874 12.6577 10.8837C12.8454 11.08 12.9467 11.3411 12.9396 11.6102V15.8554C12.9412 15.9933 12.9143 16.1301 12.8606 16.2575C12.8069 16.385 12.7275 16.5005 12.6272 16.597L12.5751 16.6226ZM11.4686 13.3876V15.8426C11.4701 15.9652 11.5163 16.0831 11.5988 16.175C11.6377 16.219 11.6857 16.2542 11.7396 16.2785C11.7935 16.3027 11.852 16.3154 11.9112 16.3157C12.0343 16.3126 12.1512 16.2621 12.2367 16.175C12.3173 16.087 12.3635 15.9737 12.3669 15.8554V13.3876H11.4686ZM12.3148 12.7866V11.6102C12.3165 11.5515 12.3065 11.4929 12.2851 11.438C12.2638 11.383 12.2317 11.3327 12.1906 11.29C12.1495 11.2472 12.1002 11.2129 12.0456 11.1888C11.991 11.1648 11.932 11.1516 11.8722 11.1499C11.7502 11.1532 11.6343 11.2032 11.5492 11.2892C11.4641 11.3751 11.4165 11.4903 11.4166 11.6102V12.7866H12.3148Z" fill="#E41E26"/>
<path d="M18.9018 13.0807L17.6651 10.6129L16.3633 13.0807L17.3266 14.9859V17.735C17.3249 17.772 17.3306 17.8089 17.3434 17.8437C17.3562 17.8785 17.3758 17.9104 17.4012 17.9378C17.4266 17.9651 17.4572 17.9872 17.4913 18.0029C17.5255 18.0185 17.5624 18.0275 17.6 18.0291C17.6387 18.0291 17.6771 18.0215 17.7127 18.0065C17.7483 17.9916 17.7805 17.9697 17.8073 17.9422C17.834 17.9148 17.8548 17.8822 17.8684 17.8466C17.882 17.811 17.8882 17.773 17.8864 17.735V14.9731L18.9018 13.0807ZM17.6651 14.2954L17.0663 13.0807L17.6651 11.8787L18.2639 13.0807L17.6651 14.2954Z" fill="#E41E26"/>
<path d="M118.331 23.4506L120.792 20.7782H119.073L116.392 23.7191V20.7782H114.999V27.5167H116.392V25.3942L117.394 24.448L119.36 27.5167H121L118.331 23.4506Z" fill="#010101"/>
<path d="M74.9041 24.6909H77.9243V23.4634H74.9041V21.9929H78.3148V20.7782H73.4982V27.5167H78.3538V26.2892H74.9041V24.6909Z" fill="#010101"/>
<path d="M70.9598 23.5401L69.7752 23.2716C69.2935 23.131 68.7988 22.9519 68.7988 22.5172C68.7988 22.0825 69.1243 21.7628 69.8533 21.7628C70.1291 21.737 70.4064 21.7925 70.6499 21.9224C70.8934 22.0522 71.0919 22.2504 71.2201 22.4916V22.5683L72.4308 22.0952V22.0185C72.2151 21.5329 71.8445 21.1293 71.3749 20.8687C70.9052 20.608 70.362 20.5045 69.8272 20.5736C69.5279 20.5382 69.2243 20.5635 68.9354 20.6481C68.6465 20.7327 68.3783 20.8748 68.1476 21.0654C67.9169 21.2561 67.7286 21.4913 67.5942 21.7564C67.4599 22.0215 67.3825 22.311 67.3669 22.6067C67.3669 23.8854 68.213 24.2562 69.0462 24.4608L70.2438 24.7293C70.6734 24.8571 71.103 25.0489 71.116 25.5093V25.6499C71.1166 25.7732 71.083 25.8943 71.0188 26.0002C70.9546 26.1061 70.8621 26.1927 70.7515 26.2509C70.4651 26.3913 70.1469 26.4573 69.8272 26.4427C69.5173 26.4541 69.2106 26.3784 68.943 26.2244C68.6755 26.0703 68.4584 25.8444 68.3172 25.5732V25.4837L67.0154 25.9696V26.0591C67.2378 26.5978 67.6321 27.051 68.1391 27.3508C68.6462 27.6505 69.2385 27.7805 69.8272 27.7213C71.3894 27.7213 72.5219 26.8391 72.5219 25.6243V25.4837C72.5487 25.0311 72.3997 24.5853 72.1049 24.2365C71.8101 23.8876 71.3916 23.6616 70.9337 23.6041" fill="#010101"/>
<path d="M60.6367 20.6248C60.2793 20.5895 59.9184 20.6303 59.5786 20.7443C59.2387 20.8584 58.9279 21.043 58.6672 21.2857C58.4065 21.5284 58.2022 21.8234 58.068 22.1507C57.9339 22.4779 57.8732 22.8297 57.8899 23.1821V25.3175C57.9055 25.6557 57.9918 25.9873 58.1434 26.2914C58.2951 26.5955 58.5088 26.8657 58.7713 27.0852C59.0339 27.3047 59.3396 27.4688 59.6695 27.5672C59.9993 27.6656 60.3463 27.6964 60.6888 27.6574C61.0126 27.695 61.3408 27.6655 61.6523 27.5706C61.9637 27.4758 62.2514 27.3178 62.4968 27.1069C62.7422 26.896 62.9398 26.6369 63.0768 26.3463C63.2139 26.0556 63.2873 25.74 63.2923 25.4197V23.9237H60.2071V25.2024H61.9385V25.3302C61.9422 25.4925 61.9098 25.6536 61.8434 25.8022C61.7771 25.9509 61.6784 26.0835 61.5544 26.1907C61.4304 26.2979 61.2839 26.3772 61.1254 26.4229C60.9669 26.4686 60.8001 26.4798 60.6367 26.4555C60.2754 26.4631 59.9221 26.3504 59.6343 26.1358C59.5034 26.0333 59.3979 25.9029 59.3258 25.7545C59.2536 25.6061 59.2167 25.4435 59.2178 25.2791V23.0159C59.2345 22.688 59.379 22.3789 59.6213 22.1528C59.8636 21.9266 60.1853 21.8007 60.5195 21.8011C60.832 21.8011 61.8213 21.8779 61.8213 22.8369V23.0159H63.1231V22.7474C63.1231 21.75 62.4331 20.5864 60.5195 20.5864" fill="#010101"/>
<path d="M83.574 25.1257L80.7752 20.8166L80.7491 20.7782H79.4213V27.5167H80.7752V23.1565L83.587 27.5167H84.9278V20.7782H83.574V25.1257Z" fill="#010101"/>
<path d="M112.33 20.7782V25.1257L109.531 20.8166L109.505 20.7782H108.178V27.5167H109.531V23.1565L112.343 27.5167H113.684V20.7782H112.33Z" fill="#010101"/>
<path d="M88.8852 20.6248C88.5273 20.5897 88.1659 20.6305 87.8254 20.7445C87.4849 20.8584 87.1733 21.0429 86.9117 21.2853C86.65 21.5278 86.4444 21.8226 86.3088 22.1498C86.1731 22.4771 86.1106 22.8291 86.1254 23.1821V25.3175C86.1428 25.6563 86.2306 25.9881 86.3837 26.2922C86.5367 26.5964 86.7517 26.8665 87.0152 27.0858C87.2788 27.3051 87.5853 27.469 87.9159 27.5673C88.2465 27.6657 88.5941 27.6963 88.9373 27.6574C89.2611 27.695 89.5893 27.6655 89.9008 27.5706C90.2122 27.4758 90.5 27.3178 90.7454 27.1069C90.9908 26.896 91.1884 26.6369 91.3254 26.3463C91.4624 26.0556 91.5358 25.74 91.5408 25.4197V23.9237H88.5207V25.2024H90.2521V25.2919C90.2539 25.4531 90.2201 25.6127 90.1529 25.7598C90.0857 25.9069 89.9868 26.0378 89.863 26.1437C89.7391 26.2495 89.5934 26.3276 89.4358 26.3726C89.2782 26.4176 89.1126 26.4284 88.9503 26.4043C87.974 26.4043 87.5314 25.8417 87.5314 25.2791V23.0159C87.5481 22.688 87.6926 22.3789 87.9349 22.1528C88.1773 21.9266 88.4989 21.8007 88.8331 21.8011C89.458 21.8011 90.1349 22.0697 90.1349 22.8369V23.0159H91.4367V22.7474C91.4367 21.75 90.7467 20.5864 88.8331 20.5864" fill="#010101"/>
<path d="M103.817 20.7782L101.213 27.5167H102.619L103.127 26.1102H105.587L106.069 27.5167H107.54L105.014 20.7782H103.817ZM105.236 24.9083H103.582L104.415 22.53L105.236 24.9083Z" fill="#010101"/>
<path d="M100.002 23.9365C100.265 23.8088 100.484 23.6093 100.635 23.3621C100.785 23.1149 100.859 22.8304 100.849 22.5428C100.849 21.4048 100.08 20.7782 98.7006 20.7782H95.7456V27.5168H98.8568C99.1326 27.5376 99.4099 27.5033 99.6719 27.4158C99.9338 27.3283 100.175 27.1895 100.381 27.0078C100.586 26.8261 100.752 26.6052 100.869 26.3586C100.985 26.112 101.049 25.8448 101.057 25.5732C101.08 25.2292 100.99 24.887 100.8 24.597C100.61 24.307 100.33 24.0845 100.002 23.9621V23.9365ZM97.1515 24.6909H98.6485C99.3385 24.6909 99.6639 24.9594 99.6639 25.4965C99.6639 26.0335 99.2864 26.3532 98.6355 26.3532H97.1515V24.6909ZM98.5444 23.5145H97.1515V21.9674H98.4532C99.1041 21.9674 99.4426 22.2103 99.4426 22.709C99.4426 23.2077 99.1041 23.489 98.5053 23.489" fill="#010101"/>
<path d="M42.0994 20.7782V23.4634H39.4828V20.7782H38.0899V27.5167H39.4828V24.6909H42.0994V27.5167H43.5053V20.7782H42.0994Z" fill="#010101"/>
<path d="M55.2734 20.7782V25.1257L52.4746 20.8166L52.4485 20.7782H51.1207V27.5167H52.4746V23.1565L55.2864 27.5167H56.6272V20.7782H55.2734Z" fill="#010101"/>
<path d="M47.9444 20.7782H46.6426L44.0391 27.5167H45.5621L46.0698 26.1102H48.5172L49.0118 27.5167H50.4828L47.9444 20.7782ZM48.1657 24.9083H46.4604L47.2935 22.53L48.1657 24.9083Z" fill="#010101"/>
<path d="M69.8142 1.40653C69.5241 2.62058 69.4275 3.87149 69.5278 5.11464C69.7361 5.3448 70.1136 5.22972 70.413 5.22972C71.103 5.153 72.0533 4.75662 72.561 5.40873C72.6937 5.68849 72.7562 5.99542 72.7432 6.30379C72.3667 6.39258 71.9836 6.45243 71.5976 6.48281C70.8947 6.71297 69.9444 6.62346 69.5929 7.39066C69.4951 7.69438 69.4951 8.02036 69.5929 8.32408L69.8142 8.51588C70.6933 8.44336 71.5783 8.54333 72.4178 8.80997C72.588 8.97749 72.7219 9.17716 72.8114 9.39693C72.9009 9.61669 72.9441 9.852 72.9385 10.0886L72.8213 10.2293C71.8059 10.127 70.7775 10.2293 69.7621 10.2293C69.3195 10.3955 69.3195 10.8942 69.1503 11.2394C68.9811 11.5847 68.8249 12.3646 69.3325 12.6332C70.0746 12.8505 70.8686 12.5181 71.6497 12.6332C72.7562 12.8505 74.2533 12.6332 74.7219 13.9118C74.7264 14.2663 74.622 14.6138 74.4225 14.9092C73.9929 14.9092 73.6284 14.6407 73.1207 14.6151C71.8189 14.5128 69.2154 14.2059 69.0331 14.2315C68.197 14.3182 67.3916 14.5891 66.6769 15.0243C66.2343 15.3183 65.6095 15.1649 65.1669 15.4206C64.4449 15.5609 63.7019 15.5609 62.9799 15.4206C62.4852 15.4206 62.1207 15.7914 61.6781 15.8298C61.526 15.2513 61.4259 14.6609 61.3787 14.0653C61.3006 13.8351 61.4568 13.6689 61.587 13.5026C61.9254 13.3748 62.1598 13.7712 62.4852 13.7967C63.4082 13.7478 64.3262 13.6324 65.232 13.4515L67.3539 12.7866C67.5447 12.558 67.6754 12.2868 67.7344 11.997C67.7934 11.7071 67.779 11.4074 67.6923 11.1243C67.6923 11.1243 67.5621 10.9325 67.458 10.9709C66.9449 11.0889 66.4221 11.1616 65.8959 11.1883C65.5701 11.3499 65.2303 11.4826 64.8805 11.5847C64.515 11.0325 64.3584 10.3718 64.4379 9.71782C64.8805 9.60274 65.284 9.84568 65.7396 9.71782C66.4132 9.59719 67.0691 9.39534 67.6923 9.11685C68.1349 8.75882 67.9657 8.09392 67.8485 7.65917C67.4977 7.57613 67.1319 7.57613 66.7811 7.65917C66.2303 7.81854 65.6622 7.91297 65.0888 7.94048C64.7112 7.58245 64.6852 7.08378 64.3728 6.66182C64.0083 6.66182 63.9692 7.10935 63.6828 7.26279C62.8273 7.83668 61.8275 8.16844 60.7929 8.22178C60.7148 8.22178 60.6107 8.22178 60.5716 8.05556C60.7148 7.6336 61.2095 7.36508 61.3657 6.93034C61.7885 6.59653 62.1649 6.20962 62.4852 5.77954C63.3054 5.04037 63.927 4.11358 64.2947 3.08157C64.2947 2.91535 64.2947 2.6724 64.4639 2.62125C64.9976 2.62125 65.258 3.31173 65.7657 3.51632C65.9479 3.60582 66.1432 3.65697 66.2604 3.86155V4.06614C65.5965 4.5776 64.516 5.03792 64.7112 6.02249C65.2736 6.31806 65.9113 6.44688 66.5467 6.3933C66.9373 6.12478 67.471 6.15035 67.9136 5.93298C68.3562 5.71561 68.161 5.44709 68.213 5.16579C68.0438 4.01499 68.5124 2.60847 67.7444 1.66226C67.8876 1.36817 68.3041 1.38095 68.6296 1.27866C69.0331 1.50882 69.5929 0.920637 69.8142 1.44489" fill="#010101"/>
<path d="M86.542 1.96914C86.8702 2.07196 87.1512 2.28464 87.3361 2.57011C87.232 3.13272 86.3858 2.6724 86.2426 3.29894C86.0994 3.92548 86.4249 4.32187 86.1645 4.73104C85.6983 5.1278 85.3743 5.66123 85.2402 6.25265C85.2402 6.40608 85.3444 6.44444 85.4355 6.50838C85.5289 6.53829 85.6304 6.53253 85.7196 6.49225C85.8089 6.45196 85.8794 6.3801 85.9172 6.29101C86.0083 6.12478 85.9172 5.86905 86.1385 5.74118C86.4231 5.69733 86.713 5.69733 86.9976 5.74118C87.0757 5.84347 87.0888 6.0097 87.232 6.03527C87.3752 6.06085 87.8828 5.86905 87.961 6.17593C87.961 7.00705 86.6592 7.07099 86.8935 7.90212C86.9976 8.1067 87.271 7.97884 87.4142 7.90212C87.5574 7.8254 88.0391 7.60802 88.2473 7.90212C88.3385 8.63095 87.7527 9.10406 87.284 9.57716C87.0627 9.76896 86.6852 9.74339 86.6071 10.0886C86.529 10.4339 86.4769 10.6512 86.7112 10.7663C87.2059 10.6512 87.5444 10.1014 88.013 10.0375C88.2343 10.0375 88.2734 10.2932 88.3385 10.4466C88.3385 10.8047 88.6249 11.0604 88.5207 11.4184C88.3775 11.5207 88.2343 11.4184 88.0781 11.4184C87.6417 11.7104 87.1693 11.9467 86.6722 12.1217C86.5802 12.2064 86.5152 12.3156 86.4852 12.4359C86.4551 12.5562 86.4613 12.6825 86.503 12.7994C86.9325 13.0679 87.3491 12.4797 87.8047 12.7099C88.1432 13.8862 86.8414 14.3849 86.1385 14.9987C85.247 15.3482 84.2992 15.5387 83.3396 15.5613C82.9621 15.5613 82.6237 16.0344 82.2462 15.817C82.1081 15.6924 82.0037 15.536 81.9423 15.3619C81.881 15.1878 81.8646 15.0015 81.8947 14.8197C82.103 14.6662 82.3373 14.8197 82.5586 14.8197C83.0793 14.6918 83.5219 14.3593 84.0296 14.1803C84.5373 14.0013 84.9929 13.899 85.2272 13.4515C85.3704 12.582 85.3834 11.6869 85.4876 10.7919C85.1101 10.3444 84.6154 10.7919 84.1858 10.8814C83.7562 10.9709 83.4178 11.4568 83.2746 10.8814C83.1314 10.306 82.9231 10.2293 83.0533 9.74339C83.3659 9.55507 83.7282 9.46166 84.0947 9.47487C84.6284 9.09127 85.6308 9.25749 85.7479 8.41358C85.7462 8.33189 85.7224 8.25212 85.679 8.18246C85.6355 8.1128 85.5739 8.05576 85.5006 8.0172C84.9929 8.09391 84.4592 8.57981 84.0036 8.0172C82.8059 8.75882 81.8556 10.1909 80.2805 9.96076C80.1503 9.82011 80.2805 9.69224 80.3976 9.56437C81.1136 8.46473 82.155 7.46737 82.8189 6.34215C83.9254 5.40873 84.1858 4.15564 85.2663 3.22222C85.4355 2.90256 85.4746 2.36552 85.9692 2.35273C86.2947 2.12257 85.4746 1.55996 86.1645 1.66226L86.542 1.96914Z" fill="#010101"/>
<path d="M88.8852 4.34744C88.9412 4.3774 88.984 4.42649 89.0056 4.4854C89.0272 4.54432 89.0261 4.60898 89.0024 4.66711C88.8592 5.05071 88.4426 5.153 88.1172 5.25529C87.3882 5.153 87.3101 4.37302 86.9456 3.9127C86.9456 3.83598 86.9456 3.74647 87.0237 3.70811C87.6355 3.92549 88.2473 4.16843 88.8852 4.34744Z" fill="#010101"/>
<path d="M94.4568 1.47046C94.9287 1.79126 95.365 2.15983 95.7586 2.57011C95.8237 2.92813 95.2639 2.92813 95.342 3.27337C95.5243 4.25794 95.0426 4.99956 94.9905 5.89462C94.8629 6.54947 94.776 7.21133 94.7302 7.87654C94.7302 7.97884 94.7302 8.17063 94.9254 8.13228C95.0122 8.09372 95.1091 8.08286 95.2025 8.10121C95.2959 8.11955 95.3811 8.16619 95.4462 8.23457C95.6805 8.57981 96.1361 8.84832 96.097 9.27028C95.9278 9.43651 95.6675 9.27028 95.4852 9.46208C95.2065 9.87416 94.8639 10.2409 94.4698 10.5489C94.4412 10.6044 94.4263 10.6658 94.4263 10.728C94.4263 10.7902 94.4412 10.8515 94.4698 10.907C95.167 11.5846 95.9945 12.1192 96.9041 12.4797C97.9671 12.7773 99.0142 13.1272 100.041 13.5282C100.049 13.5441 100.054 13.5616 100.054 13.5794C100.054 13.5971 100.049 13.6146 100.041 13.6305C98.9349 14.321 97.4379 14.0013 96.1361 14.2315C95.7842 14.2735 95.4276 14.2076 95.1153 14.0428C94.803 13.878 94.5503 13.6223 94.3917 13.3108C93.6951 12.395 92.9199 11.5394 92.0746 10.7535C92.0746 10.3188 91.7621 10.0375 91.4627 9.7306C91.3716 9.66667 91.2544 9.56437 91.1373 9.7306C90.7858 10.3316 91.0461 11.2011 90.916 11.8276C90.7858 12.4541 90.6686 12.7482 90.916 13.1063C91.2024 13.1063 91.4107 12.8377 91.684 12.761C91.9574 12.6843 92.2828 12.2751 92.6864 12.3391C92.8035 12.582 92.6864 12.8505 92.5562 13.0807C91.8964 14.3119 90.8254 15.2826 89.5231 15.8298C89.1325 15.8298 88.8982 16.5203 88.4556 16.2134C88.013 15.9065 87.3361 15.4206 87.5704 14.7429C87.7787 14.5639 88.1172 14.7429 88.3385 14.5895C89.5231 14.1675 89.1716 12.7738 89.5231 11.8404C89.6894 11.1276 89.7681 10.3978 89.7574 9.66667C89.5621 8.88668 89.8485 8.04277 89.6663 7.31393C89.8223 6.28743 89.7467 5.2398 89.445 4.24515C89.244 3.80853 89.1893 3.32052 89.2888 2.85141L89.445 2.7619C89.8621 2.89689 90.3064 2.93017 90.7396 2.85889C91.1728 2.78761 91.5818 2.61389 91.9314 2.35273C92.7124 2.097 93.4024 1.64947 94.2095 1.4321L94.4568 1.47046ZM93.155 3.23501L91.8533 3.92548C91.5278 4.11728 91.0852 3.92548 90.8509 4.3858C90.6166 4.84612 90.6947 5.20414 90.968 5.42152C91.905 5.21867 92.7714 4.77775 93.4805 4.14286C93.5993 3.87333 93.6355 3.57559 93.5846 3.28615C93.4935 3.15829 93.3373 3.28615 93.2071 3.19665L93.155 3.23501ZM92.8556 5.98413C92.3564 6.27411 91.8287 6.51401 91.2805 6.70018C90.942 6.87919 90.9681 7.30115 90.955 7.6336C90.942 7.96605 90.955 8.13227 91.2805 8.09391L92.5823 7.54409C93.142 7.31393 93.0248 6.6746 93.1941 6.26543C93.1908 6.23178 93.1808 6.1991 93.1646 6.16928C93.1484 6.13946 93.1264 6.11308 93.0998 6.09168C93.0731 6.07028 93.0424 6.05427 93.0095 6.04459C92.9765 6.03491 92.9419 6.03174 92.9077 6.03527L92.8556 5.98413ZM93.5195 8.42637C92.9728 8.59259 92.5692 9.0657 92.0225 9.25749V9.52601C92.0563 9.63201 92.1134 9.72938 92.1899 9.81116C92.2665 9.89294 92.3604 9.95712 92.4651 9.99912C93.142 10.3955 93.5456 9.62831 94.0272 9.33422C94.1574 9.12963 94.4959 8.97619 94.3917 8.6821C94.2876 8.38801 93.845 8.47751 93.5586 8.42637" fill="#010101"/>
<path d="M84.9278 12.0322C84.8999 12.388 84.7801 12.7309 84.5797 13.0285C84.3792 13.3261 84.1047 13.5685 83.7823 13.7328C83.1574 13.7328 83.1314 13.1318 82.871 12.7866C82.871 12.4158 83.3397 12.6332 83.561 12.5053C83.9612 12.2501 84.4008 12.0601 84.8627 11.9427L84.9278 12.0322Z" fill="#010101"/>
<path d="M52.4225 5.67725C52.7479 6.03527 53.7243 5.83069 53.4899 6.54674L52.826 7.5313C52.7349 8.66931 52.2663 9.62831 52.2012 10.7535C52.0059 11.1499 51.9538 11.8404 51.3941 11.802C50.8343 11.7637 50.6911 11.9299 50.3266 11.9683C49.3094 12.2967 48.2564 12.507 47.1894 12.5948C46.7598 12.4541 46.2781 12.6587 45.8876 12.5948C45.7053 12.3646 45.7965 12.0194 45.7053 11.7509C45.1976 10.3188 45.1325 8.70767 44.6769 7.22443C44.6999 7.10491 44.7701 6.99917 44.8722 6.93033C45.1143 6.85963 45.3721 6.85963 45.6142 6.93033C47.0201 6.49559 48.3349 5.8179 49.7929 5.49824C50.613 4.7694 51.6414 5.49823 52.4876 5.63889L52.4225 5.67725ZM50.613 6.53395C49.1941 7.27557 47.684 7.81261 46.3172 8.55423C46.161 8.6821 46.0828 8.88668 46.3172 9.01455C46.7254 9.05457 47.1376 9.01103 47.5278 8.88668C48.3089 8.63095 49.0769 8.36243 49.871 8.11949C50.0663 8.01719 50.2355 8.11949 50.3527 8.33686C50.3996 8.50503 50.4003 8.68244 50.3545 8.85094C50.3088 9.01943 50.2183 9.17297 50.0923 9.29585C49.0668 9.78969 47.9822 10.1548 46.8639 10.3827C46.782 10.4085 46.7069 10.4516 46.644 10.5091C46.581 10.5665 46.5316 10.6369 46.4994 10.7152C46.4994 10.843 46.4994 11.0348 46.6166 11.1243C47.2188 11.2296 47.8376 11.199 48.426 11.0348C49.2331 10.664 50.561 10.843 50.7953 9.75617C50.7041 8.73324 51.1988 7.95326 51.0296 6.89197C51.0326 6.84142 51.0228 6.79092 51.0011 6.74499C50.9793 6.69906 50.9464 6.65912 50.9051 6.62874C50.8639 6.59835 50.8156 6.57847 50.7647 6.57085C50.7137 6.56324 50.6616 6.56813 50.613 6.5851" fill="#010101"/>
<path d="M41.8521 1.16358C41.8521 1.40652 41.6047 1.54718 41.5266 1.73897C41.3008 2.39907 41.3475 3.11985 41.6568 3.74647C41.6778 4.69831 41.7999 5.6454 42.0213 6.57231C41.9627 7.42378 41.9627 8.27816 42.0213 9.12963C42.0213 10.6768 42.0213 12.3135 41.9302 13.8607C41.787 14.4233 41.9302 15.1393 41.7609 15.6764C41.3183 16.5203 40.1207 16.1878 39.3006 16.2901V16.1623C40.0379 13.4242 40.4743 10.6164 40.6024 7.78703C40.7307 6.51227 40.7525 5.22931 40.6675 3.95106C40.7579 3.56654 40.7593 3.16697 40.6714 2.78187C40.5835 2.39677 40.4087 2.03599 40.1598 1.72619C40.4982 1.41931 40.9278 1.38095 41.2923 1.11243C41.4485 1.01014 41.787 0.856699 41.8911 1.11243" fill="#010101"/>
<path d="M51.9669 2.0075C52.0144 2.41019 51.9834 2.81809 51.8757 3.20944C51.2335 4.02947 50.307 4.58918 49.2722 4.78219C48.8024 5.1305 48.2602 5.37294 47.6843 5.49227C47.1083 5.6116 46.5127 5.60491 45.9396 5.47266C45.3408 5.21693 45.445 4.50088 45.4059 3.98942C45.8355 3.74647 46.3562 4.194 46.7077 3.86155C47.61 3.46459 48.5466 3.14792 49.5065 2.91534C50.2876 2.64683 50.8083 1.63668 51.7325 1.79012L51.9669 2.0075Z" fill="#010101"/>
<path d="M44.7941 3.65697C44.8404 3.81918 44.8624 3.98719 44.8592 4.15564C44.2603 4.44974 43.7527 5.11464 42.9586 5.11464C42.6201 5.02513 42.1645 5.11464 41.9562 4.85891C41.839 4.3858 42.4769 4.30908 42.5811 3.89991C42.6852 3.49074 43.3101 3.26058 43.4402 2.78748C44.1041 2.46781 44.2603 3.37566 44.742 3.65697" fill="#010101"/>
<path d="M39.0533 6.3933C39.3391 7.26635 39.3391 8.20544 39.0533 9.07849C38.7408 9.48766 38.1811 9.4493 37.7515 9.4493C37.5912 9.44162 37.4355 9.39421 37.299 9.31148C37.1624 9.22876 37.0494 9.11341 36.9704 8.97619C36.9704 8.34965 37.4 7.90212 37.6473 7.36508C37.8947 6.82804 38.2852 6.41887 38.6757 6.08642C38.9101 5.98413 39.0402 6.22707 39.1183 6.3933" fill="#010101"/>
<path d="M54.1148 12.9784C55.0911 12.9784 54.7396 14.0653 55.1172 14.6023C55.1172 14.8325 54.8698 14.7429 54.7396 14.7941C53.2876 14.5062 51.7917 14.5062 50.3396 14.7941C49.8405 14.9403 49.3566 15.133 48.8947 15.3695C47.6542 15.6614 46.3917 15.8538 45.1195 15.9449C44.8683 15.8768 44.6049 15.8644 44.3482 15.9086C44.0915 15.9528 43.8481 16.0526 43.6355 16.2006C43.5717 16.1947 43.5109 16.1712 43.4602 16.1327C43.4096 16.0942 43.371 16.0424 43.3491 15.9832C43.3078 15.4802 43.2118 14.983 43.0627 14.5C43.0627 14.3593 43.1408 14.2698 43.232 14.2059C43.3231 14.142 43.7006 14.3082 43.9479 14.3082C44.9083 14.366 45.8703 14.2267 46.7728 13.899C47.5018 13.8095 48.1657 13.4899 48.9207 13.4259C50.0012 13.2853 50.9515 12.5564 52.1752 12.8761C52.7479 13.119 53.4769 12.8761 54.1148 13.0168" fill="#010101"/>
<path d="M109.193 1.41931C108.854 1.5216 109.024 1.9052 108.893 2.13536C108.225 3.21925 107.425 4.21962 106.511 5.11464C106.511 5.19136 106.511 5.28086 106.511 5.31922H106.993C107.31 5.32967 107.628 5.28642 107.93 5.19136C109.024 4.94841 109.232 3.68254 110.156 3.1455C110.325 2.9537 110.95 3.1455 110.768 2.72354C110.586 2.30159 110.312 2.19929 110.065 2.04585C109.818 1.89242 109.57 1.40652 109.154 1.39374" fill="#010101"/>
<path d="M117.798 1.82848C116.689 2.08655 115.604 2.43733 114.556 2.87698C114.449 2.93518 114.327 2.96181 114.205 2.9537H113.866H113.515C113.375 2.94601 113.237 2.98673 113.124 3.06878C113.007 3.56746 113.437 3.95106 113.528 4.34744C113.558 4.477 113.633 4.59237 113.739 4.67395C113.846 4.75552 113.978 4.79829 114.114 4.79497C114.318 4.78051 114.52 4.73745 114.712 4.66711C114.911 4.60483 115.116 4.5662 115.324 4.55203H115.494C116.066 4.19212 116.677 3.89619 117.316 3.66975C117.611 3.52923 117.86 3.30919 118.033 3.03527C118.205 2.76135 118.296 2.44483 118.292 2.12257C118.292 1.84127 118.032 1.84127 117.824 1.80291" fill="#010101"/>
<path d="M118.93 5.01234C116.912 5.01234 115.155 6.15035 113.28 6.64903C113.095 6.67331 112.906 6.67331 112.721 6.64903C112.408 6.64903 112.096 6.64903 111.744 6.64903C111.393 6.64903 111.666 6.93033 111.64 7.08377C111.833 7.49901 111.998 7.92613 112.135 8.36243C112.176 8.44533 112.238 8.51617 112.316 8.5678C112.394 8.61943 112.484 8.65003 112.578 8.65652H112.682C113.124 8.05555 113.853 8.08112 114.504 7.92768C115.155 7.77425 115.389 7.44179 115.962 7.44179C116.17 7.44179 116.379 7.94047 116.561 8.23456C117.069 9.07848 116.73 10.1909 116.912 11.1627C116.743 12.0066 117.056 13.0551 116.678 13.8095C116.301 14.5639 115.715 14.5 115.181 14.7302C114.647 14.9603 114.413 14.8836 114.14 15.0882C114.14 15.28 114.387 15.3439 114.517 15.4718C115.822 15.7986 117.167 15.9491 118.514 15.9193L118.644 15.7914C118.761 14.6023 118.462 14.1675 118.553 13.3236C118.344 12.2751 118.553 11.3545 118.344 10.4978C118.389 9.9997 118.345 9.49771 118.214 9.01455C118.214 8.40079 117.524 7.81261 117.381 7.46737C117.238 7.12213 117.251 6.84082 117.381 6.73853C117.778 6.52455 118.231 6.4311 118.683 6.47001H119.373C119.784 6.4984 120.196 6.4236 120.57 6.25264C120.675 5.97134 120.44 5.69003 120.362 5.42151L120.128 5.11463C119.736 5.01969 119.334 4.97245 118.93 4.97398" fill="#010101"/>
<path d="M109.349 5.11464C109.319 5.11585 109.29 5.12477 109.265 5.14048C109.24 5.1562 109.22 5.17816 109.206 5.20415C108.969 5.81618 108.654 6.39622 108.269 6.93034C107.527 7.83619 106.649 8.6253 105.665 9.27028C104.858 9.75617 104.285 10.5489 103.478 11.0348V11.2394C103.954 11.3601 104.446 11.4075 104.936 11.3801H105.027C106.199 11.3801 106.993 10.4466 107.865 9.74339C108.06 9.74339 108.178 9.32143 108.386 9.32143C108.404 9.31332 108.424 9.30912 108.444 9.30912C108.465 9.30912 108.485 9.31332 108.503 9.32143C108.565 9.8033 108.516 10.2928 108.36 10.7535C108.35 12.2015 107.989 13.6262 107.305 14.9092C107.305 15.0243 107.071 15.3056 107.305 15.4462C107.854 15.5826 108.432 15.5468 108.959 15.3439C109.323 15.2416 109.388 14.7941 109.518 14.5384C109.754 13.4983 109.842 12.4311 109.779 11.3673C109.876 10.433 109.681 9.49176 109.219 8.66931C109.135 8.33366 109.125 7.9842 109.19 7.6445C109.255 7.30481 109.394 6.98279 109.596 6.70018C109.648 6.65098 109.709 6.61301 109.776 6.58876C109.844 6.56452 109.915 6.55455 109.987 6.55952H110.521C110.562 6.53333 110.595 6.49724 110.618 6.45471C110.641 6.41218 110.652 6.36462 110.651 6.31658L109.557 5.24251C109.497 5.18703 109.426 5.14361 109.349 5.11464Z" fill="#010101"/>
</svg>
