<svg width="124" height="27" viewBox="0 0 124 27" fill="none" xmlns="http://www.w3.org/2000/svg">
  <path d="M52.6546 13.9482L39.7208 0.974182V26.9353L52.6546 13.9482Z" fill="#ED1C24"/>
  <path d="M26.774 13.9482L39.7208 0.974182H13.8272L26.774 13.9482Z" fill="#ED1C24"/>
  <path d="M0.893494 13.9482L13.8272 26.9353V0.961121L0.893494 13.9482Z" fill="#ED1C24"/>
  <path d="M26.774 13.9482L13.8272 26.9353H39.7208L26.774 13.9482Z" fill="#ED1C24"/>
  <path d="M64.0254 7.19336H59.3364V11.8447H56.9789V0.974182H59.3364V5.42952H64.0254V0.974182H66.3829V11.8447H64.0254V7.19336Z" fill="black"/>
  <path d="M72.0096 12.0407C69.6652 12.0407 67.7505 11.113 67.7114 8.49991H70.0689C70.095 9.66274 70.7723 10.3552 72.0617 10.3552C73.0256 10.3552 74.1066 9.87179 74.1066 8.78736C74.1066 7.95116 73.3772 7.67679 72.1529 7.32402L71.3714 7.10191C69.6651 6.60542 67.9719 5.93908 67.9719 3.99232C67.9719 1.5752 70.2252 0.752075 72.2701 0.752075C74.3802 0.752075 76.2037 1.48375 76.2167 3.90086H73.8592C73.768 2.90788 73.1949 2.333 72.0878 2.333C71.2151 2.333 70.3424 2.80336 70.3424 3.75714C70.3424 4.55414 71.0588 4.78931 72.5958 5.27274L73.4945 5.56018C75.357 6.14812 76.5293 6.78833 76.5293 8.60444C76.5293 11.0869 74.1457 12.0407 72.0096 12.0407Z" fill="black"/>
  <path d="M77.8578 0.974182H81.622C82.8073 0.974182 83.2892 1.00031 83.7451 1.10484C85.0606 1.40534 86.0505 2.26767 86.0505 3.71794C86.0505 5.11594 85.1648 5.83455 83.8884 6.17425C85.3602 6.44863 86.4413 7.19336 86.4413 8.80042C86.4413 11.2698 84.0186 11.8447 82.104 11.8447H77.8448V0.974182H77.8578ZM81.6351 5.49484C82.664 5.49484 83.7191 5.2858 83.7191 4.01844C83.7191 2.89481 82.7292 2.59431 81.7914 2.59431H80.1372V5.49484H81.6351ZM81.8565 10.2115C82.9506 10.2115 84.0317 9.95018 84.0317 8.63056C84.0317 7.33708 83.1069 7.03657 81.9867 7.03657H80.1242V10.2115H81.8565Z" fill="black"/>
  <path d="M92.576 12.0407C89.0853 12.0407 87.5093 9.7934 87.5093 6.48783C87.5093 3.20839 89.2546 0.752075 92.6932 0.752075C94.8553 0.752075 96.9524 1.71892 97.0175 4.17524H94.5948C94.4776 3.0908 93.7613 2.51592 92.7062 2.51592C90.5962 2.51592 89.9449 4.80238 89.9449 6.55315C89.9449 8.2778 90.5962 10.303 92.6281 10.303C93.6961 10.303 94.4776 9.72807 94.6339 8.63057H97.0826C96.8091 11.0999 94.8293 12.0407 92.576 12.0407Z" fill="black"/>
  <path d="M58.6461 21.2387C58.3856 20.5985 57.7343 19.7623 56.9659 19.3443L57.578 18.704C58.1381 19.0699 58.9196 19.7493 59.3494 20.5855L58.6461 21.2387ZM57.7604 26.9092L56.9659 26.3343C58.2032 24.9755 58.7372 23.2508 59.0238 21.879L59.8834 22.2579C59.5969 23.9172 58.7633 25.6288 57.7604 26.9092ZM59.3755 18.4035C58.9977 17.502 58.2683 16.9925 57.6952 16.692L58.4246 16.0779C59.128 16.4829 59.6229 16.9925 60.0397 17.6588L59.3755 18.4035ZM60.0658 26.8961L60.0788 16.4306H68.1412V17.3583H64.898C65.1064 17.5412 65.419 17.8156 65.6535 18.2598L65.4581 18.4558H67.9198V19.3835H65.5102V20.4548H67.516V21.3825L65.5102 21.3694V22.4146H67.5291V23.3292H65.5102V24.5182H67.998V25.4328H61.9283V21.1342C61.9023 21.1604 61.7199 21.5001 61.4464 21.8006C61.225 21.6176 60.9906 21.3563 61.0166 21.3563C60.9906 21.3955 61.0036 21.1212 61.0166 26.0207H68.3757L68.3887 26.9222C65.6144 26.8961 62.8661 26.8961 60.0658 26.8961ZM61.0166 17.3583V20.7031C61.6939 19.9845 62.2279 18.691 62.4233 17.3452L61.0166 17.3583ZM62.8661 19.3704V20.4418H64.5464L64.5594 19.3704H62.8661ZM62.8661 21.3563V22.3885H64.5464L64.5594 21.3563H62.8661ZM64.5464 23.3162H62.8792L62.8661 24.4921H64.5464V23.3162ZM63.7779 17.5543L63.9733 17.3452H63.1136L63.3611 17.4759C63.296 17.8809 63.1397 18.2206 63.0745 18.4427H64.6245C64.5333 18.1945 64.1947 17.907 63.7779 17.5543ZM72.5176 22.9765L79.8637 22.9895L79.8506 25.2107L78.6133 25.2237C78.483 25.5242 78.2876 25.8378 78.1313 25.9946H81.5439V26.8961L70.7983 26.9092L70.7853 25.9946H74.3671C74.1718 25.681 73.8592 25.4328 73.6508 25.2107L72.5046 25.2237L72.5176 22.9765ZM81.1792 22.6498H71.15V21.7744H81.1792V22.6498ZM77.8578 20.5855V20.0367H76.8289L76.8158 19.3312L77.8448 19.3443V18.8608H76.8289V18.1814H77.8448L77.8578 17.698H76.8289L76.8419 17.0186H77.8448L77.8578 16.3261H78.7175V17.0186L79.7855 17.0317V17.698L78.7305 17.7111V18.1814L79.7595 18.1945L79.7725 18.8739H78.7305L78.7175 19.3443L79.7855 19.3312V20.0367H78.7305L78.7175 20.5855L79.8376 20.5724L79.8637 16.9271H80.8145V21.4217H71.5407V16.9402L72.4916 16.9533L72.4785 20.5724H73.5987L73.5856 20.0367H72.6218V19.3443H73.5856L73.5987 18.8608H72.6218V18.1684H73.5987L73.5856 17.7111H72.6218V17.0317H73.5856V16.3261L74.4844 16.3131L74.4974 17.0186L75.5264 17.0317L75.5133 17.7111H74.4844V18.1553L75.5264 18.1684V18.8608H74.4974V19.3312L75.5394 19.3443L75.5264 20.0498H74.4974L74.4844 20.5724L75.7217 20.5593V16.0779H76.6726V20.5593L77.8578 20.5855ZM73.4814 24.4267H78.8998V23.8257H73.4684L73.4814 24.4267ZM76.9331 25.9946C77.2717 25.7725 77.5062 25.4066 77.5843 25.2107H74.823C74.9663 25.3674 75.2268 25.681 75.3961 25.9946H76.9331Z" fill="black"/>
  <path d="M85.5686 26.9092V20.4156C85.5686 20.4156 85.4904 20.5071 85.4514 20.5463C85.0215 21.0036 84.7089 21.487 84.24 21.9443L83.6669 21.4086C84.5787 20.5202 85.3472 19.3704 85.803 18.2076C86.1026 17.4367 86.298 16.6397 86.4673 15.8297L87.1446 16.1432C87.0013 17.0839 86.7148 18.0639 86.3371 18.9392V26.9223H85.5686V26.9092Z" fill="black"/>
  <path d="M92.1983 22.8458C92.0941 22.6106 91.9638 22.4016 91.8987 22.1664H94.3213V21.4478H91.0521V20.2589H93.3835L93.3965 16.4176H87.8219V20.2589L90.3096 20.2458V21.4609L86.9622 21.4478V22.1664H89.5542C89.437 22.4539 89.2676 22.7413 89.0592 23.081C88.4601 24.087 87.5744 24.9102 86.5715 25.4328L87.1967 26.0077C88.6294 25.2368 89.7626 23.7604 90.3096 22.3101L90.2966 26.9092H91.0651L91.0911 22.2187C91.2474 22.6368 91.4819 23.0549 91.6903 23.4468C92.2113 24.3876 93.0449 25.2368 93.9827 25.7725C94.1129 25.864 94.2562 25.9554 94.4125 26.0077L94.9986 25.4459C93.8524 24.8579 92.7453 24.0087 92.1983 22.8458ZM88.5903 19.5533L88.5773 17.1493H92.6281V19.5533H88.5903Z" fill="black"/>
  <path d="M97.9553 26.9092V16.496H100.964V17.097C100.521 18.3513 100.091 19.4226 99.8569 20.0759C100.456 20.8468 100.925 21.7091 100.834 22.7282C100.795 23.1332 100.56 23.4468 100.222 23.6689C99.8439 23.8257 99.5183 23.8257 99.1666 23.7996L98.9321 23.0287C99.2447 23.0418 99.6745 23.1855 99.935 22.9242C100.261 22.5714 100.078 22.0357 99.9611 21.6307C99.7918 21.095 99.4401 20.6508 99.0494 20.1935C99.5182 19.0437 99.8178 18.2729 100.143 17.1884H98.6977V26.8961H97.9553V26.9092Z" fill="black"/>
  <path d="M103.074 23.9433C103.061 24.1916 102.983 24.4529 102.905 24.688C103.374 24.9102 103.843 25.08 104.259 25.4458L103.817 25.9815C103.465 25.6941 103.048 25.4458 102.631 25.3021C102.267 25.9554 101.615 26.5825 100.977 26.9223L100.365 26.4258C101.316 25.9946 102.149 25.0931 102.371 24.0609L102.436 23.7996L103.074 23.9433Z" fill="black"/>
  <path d="M102.735 19.3181H105.627V18.7171C106.018 19.0176 106.421 19.4488 106.864 19.6578C107.216 19.8277 107.542 20.0106 107.906 20.1282L108.375 19.4749C107.659 19.1875 106.929 18.8216 106.317 18.3121C105.614 17.7111 104.963 17.0055 104.52 16.2085L104.624 15.9864L103.947 15.6337C103.139 17.2277 101.785 18.6779 100.196 19.5141L100.717 20.1282C101.433 19.7624 102.123 19.2136 102.735 18.6518V19.3181ZM104.064 16.8749C104.468 17.4759 105.002 18.1292 105.549 18.6257H102.774C103.282 18.0638 103.686 17.489 104.064 16.8749Z" fill="black"/>
  <path d="M103.973 20.3634H101.394V23.277H103.973V20.3634ZM103.269 22.5845H102.097V21.0558H103.269V22.5845Z" fill="black"/>
  <path d="M106.148 24.8056C106.239 24.5182 106.317 24.2046 106.343 23.9041L105.653 23.7604C105.575 24.8709 104.924 25.9031 103.921 26.3996L104.52 26.9092C105.106 26.5433 105.575 26.0207 105.861 25.4197C106.513 25.681 107.19 26.0599 107.659 26.6478L108.167 26.1514C107.646 25.5242 106.903 25.0931 106.148 24.8056Z" fill="black"/>
  <path d="M104.663 23.277H107.268V20.3634H104.663V23.277ZM105.366 21.0558H106.565V22.5845H105.366V21.0558Z" fill="black"/>
  <path d="M101.407 0.934998H102.384V10.9954H107.828V11.8055H101.407V0.934998Z" fill="black"/>
  <path d="M109.092 0.934998H110.186V2.07169H109.092V0.934998ZM109.183 4.21444H110.095V11.8055H109.183V4.21444Z" fill="black"/>
  <path d="M115.396 1.54908C114.289 1.54908 114.106 1.95411 114.106 3.01241V4.21444H115.786V4.89384H114.106V11.8186H113.194V4.89384H111.671V4.21444H113.194V3.0908C113.194 1.90184 113.377 0.830475 114.979 0.830475C115.291 0.830475 115.604 0.843539 115.93 0.86967V1.57521C115.786 1.57521 115.578 1.54908 115.396 1.54908Z" fill="black"/>
  <path d="M117.545 8.34312C117.545 9.87178 118.404 11.309 120.059 11.309C121.257 11.309 122.012 10.5512 122.208 9.41449H123.08C122.768 11.113 121.661 11.9884 119.941 11.9884C117.636 11.9884 116.607 10.2899 116.607 8.14714C116.607 5.9652 117.675 4.09683 120.059 4.09683C122.468 4.09683 123.119 6.12198 123.119 8.1602H117.545V8.34312ZM119.993 4.80237C118.47 4.80237 117.688 6.09585 117.571 7.4808H122.182V7.32401C122.182 5.99133 121.439 4.80237 119.993 4.80237Z" fill="black"/>
</svg>
