<svg width="184" height="287" viewBox="0 0 184 287" fill="none" xmlns="http://www.w3.org/2000/svg">
<ellipse rx="91.5" ry="18.9906" transform="matrix(-1 0 0 1 92.4984 267.594)" fill="#D7D8D6"/>
<path d="M69.6488 252.898H61.5151V258.054H69.6488V252.898Z" fill="#DE8E68"/>
<path d="M122.757 252.898H113.252V258.054H122.757V252.898Z" fill="#DE8E68"/>
<path d="M112.905 136.259C113.128 140.148 123.048 252.897 123.048 252.897H112.905L86.5253 168.225C86.5253 168.225 93.3833 134.344 93.8618 134.433C96.1265 134.963 108.535 136.996 112.905 136.259Z" fill="black"/>
<path d="M98.0954 135.284L70.7593 253.808H60.9668C60.9668 253.808 60.1055 123.912 60.9668 123.912C70.1532 127.506 87.5055 133.399 98.0954 135.284Z" fill="#212121"/>
<path d="M119.911 70.7693C121.473 71.388 129.831 77.7811 133.339 81.9941C135.955 80.1969 165.811 57.3054 166.417 56.0386C167.597 55.4199 170.117 58.9258 166.417 61.7835C168.937 61.6952 183.833 61.3416 183.833 61.7835C183.833 62.2255 187.055 63.4923 165.173 66.7331C162.271 69.9738 135.987 98.5219 131.713 98.5219C127.438 98.5219 110.022 82.9074 109.289 80.1085C108.555 77.3097 119.911 70.7693 119.911 70.7693Z" fill="#DE8E68"/>
<path d="M97.1698 58.0673C90.3437 63.9302 102.848 81.607 106.388 82.373C110.886 83.3747 121.157 75.5085 123.358 70.0581C124.346 67.495 102.784 53.2651 97.1698 58.0673Z" fill="#A8000B"/>
<path d="M84.9279 49.5283C46.9699 49.5283 55.5822 117.201 58.0064 121.827C60.4306 126.452 109.042 139.887 112.87 136.263C116.698 132.639 123.747 49.5283 84.9279 49.5283Z" fill="#DB0011"/>
<path d="M91.4761 40.4189H79.9929V55.8272C79.9929 57.8012 91.4761 57.8012 91.4761 55.8272V40.4189Z" fill="#D37C59"/>
<path d="M85.5885 45.9637C92.8112 45.9637 98.6664 36.8888 98.6664 25.6943C98.6664 14.4998 92.8112 5.4248 85.5885 5.4248C78.3658 5.4248 72.5106 14.4998 72.5106 25.6943C72.5106 36.8888 78.3658 45.9637 85.5885 45.9637Z" fill="#DE8E68"/>
<path d="M83.4273 0.883843C76.8245 0.883843 68.0845 3.82998 61.7369 3.82998C55.9954 3.82998 45.5649 0 40.0466 0C36.5378 0 19.9511 1.50253 19.9511 13.8469C19.9511 19.4151 26.3306 24.7476 27.6065 26.2207C28.8824 27.6937 31.2109 35.9429 37.1758 35.9429C45.5011 35.9429 51.2426 30.3453 58.8661 30.3453C64.1292 30.3453 65.5008 31.5237 68.1164 31.5237C70.0303 31.5237 72.9011 30.6988 72.9011 30.6399C72.9011 29.7266 72.7097 22.0961 73.858 20.8587C75.4529 19.091 95.7716 21.7131 95.7716 15.4967C97.207 16.6752 98.5467 21.6836 98.5467 22.7148C99.4717 21.8309 102.917 18.0009 102.917 13.8763C102.885 10.1053 100.014 0.883843 83.4273 0.883843Z" fill="black"/>
<path d="M56.0476 153.198C59.4122 153.198 62.1398 149.65 62.1398 145.273C62.1398 140.896 59.4122 137.348 56.0476 137.348C52.6829 137.348 49.9553 140.896 49.9553 145.273C49.9553 149.65 52.6829 153.198 56.0476 153.198Z" fill="#DE8E68"/>
<path d="M52.1948 78.8076C51.3973 80.4575 46.1343 98.8709 47.2507 114.603C48.3671 130.336 51.2697 139.204 51.2697 140.441C51.2697 141.678 61.0303 141.177 61.0303 140.441C61.0303 139.704 58.5104 117.314 59.0527 113.336C59.5949 109.359 66.8994 86.3497 66.708 83.5214C66.5166 80.6931 52.1948 78.8076 52.1948 78.8076Z" fill="#DE8E68"/>
<path d="M66.5244 59.187C57.8164 56.6238 47.5135 74.9783 48.5023 78.1602C49.7463 82.1669 61.8992 86.5272 67.9916 85.6434C70.8624 85.2015 73.6694 61.3082 66.5244 59.187Z" fill="#A8000B"/>
<path d="M61.096 256.871V259.14L51.3992 275.933H57.7149L70.3463 265.356V256.871H61.096Z" fill="black"/>
<path d="M112.932 256.521V265.035H139.885V261.676L122.788 256.521H112.932Z" fill="black"/>
</svg>
