<svg width="259" height="471" viewBox="0 0 259 471" fill="none" xmlns="http://www.w3.org/2000/svg">
  <path d="M213.626 88.8412L216.319 86.3896C225.884 77.716 232.199 71.9769 232.199 64.9749C232.199 59.2359 227.704 54.7598 221.984 54.7598C218.752 54.7598 215.65 56.2642 213.626 58.623C211.601 56.2642 208.5 54.7598 205.268 54.7598C199.547 54.7598 195.053 59.2359 195.053 64.9749C195.053 71.9769 201.368 77.716 210.933 86.3896L213.626 88.8412Z" fill="#DB0011"/>
  <path d="M177.032 359.943H188.617V377.51H177.032V359.943Z" fill="#DE8E68"/>
  <path d="M40.515 434.15H52.0996V451.717H40.515V434.15Z" fill="#DE8E68"/>
  <path d="M103.588 197.383C117.596 197.383 180.138 259.546 185.589 269.995C191.041 280.444 189.451 362.293 189.451 362.293L175.973 364.868L154.091 288.621C144.551 287.486 104.421 278.854 83.6746 262.12C62.9283 245.311 85.6432 207.832 85.6432 207.832L103.588 197.383Z" fill="black"/>
  <path d="M126.984 112.958C133.874 119.091 147.655 134.461 148.791 136.43C152.274 134.764 188.542 115.683 191.268 114.472C193.993 113.261 199.748 103.645 201.716 103.645C202.852 103.645 203.912 105.84 203.912 107.355C203.912 109.929 202.701 111.898 201.944 112.731C204.518 112.352 227.233 110.61 227.233 112.125C227.233 116.062 201.792 121.286 199.824 122.347C197.855 123.407 156.438 161.719 142.052 161.719C136.449 161.719 111.689 144.91 111.689 143.093C109.342 141.503 105.708 139.156 105.708 139.156V125.829L114.34 119.545C114.34 119.469 125.621 111.746 126.984 112.958Z" fill="#DE8E68"/>
  <path d="M127.892 108.566C126.377 96.3004 98.1352 68.4367 85.1877 80.8542C73.9059 91.6817 94.3494 130.373 99.5738 131.887C105.48 132.493 128.27 116.895 127.892 108.566Z" fill="#A8000B"/>
  <path d="M41.7274 83.0476C27.3413 76.9903 7.2007 110.306 9.4722 122.42C9.4722 127.72 39.0017 139.078 43.5447 136.049C48.0876 133.021 56.1136 89.105 41.7274 83.0476Z" fill="#FED892"/>
  <path d="M99.7256 202.758L52.1756 434.072H39.9852L35.6693 227.744C35.6693 224.186 35.9722 201.774 35.9722 198.896C49.7526 202.909 79.1307 206.09 99.7256 202.758Z" fill="#212121"/>
  <path d="M52.1005 451.713H40.5159V464.282H72.4683L52.1005 451.713Z" fill="black"/>
  <path d="M188.617 377.512H177.032V390.081H208.984L188.617 377.512Z" fill="black"/>
  <path d="M120.321 390.076H258.201V470.79H120.321V390.076Z" fill="#D1D1D1"/>
  <path d="M73.225 65.2559C37.6382 65.2559 25.2207 94.861 25.2207 104.477C25.2207 114.093 36.351 172.773 35.8967 198.896C35.821 203.211 99.7258 207.073 108.433 200.789C112.522 197.836 121.305 65.2559 73.225 65.2559Z" fill="#DB0011"/>
  <path d="M9.47139 122.422C-0.598915 137.868 0.00682068 173.455 0.00682068 178.831C0.00682068 184.207 37.5623 232.514 40.8181 232.514C42.7867 230.545 48.2383 224.564 48.2383 222.746C46.4968 219.566 24.1604 170.729 20.1474 167.246C21.9646 165.05 37.9408 139.988 38.6223 135.824C24.6147 133.477 11.0614 127.571 9.47139 122.422Z" fill="#DE8E68"/>
  <path d="M9.47079 122.423C7.1993 110.308 25.5984 75.1758 41.726 83.0504C55.7336 89.9406 48.0862 133.023 43.5432 136.052C38.0917 138.399 11.5909 130.449 9.47079 122.423Z" fill="#A8000B"/>
  <path d="M82.3118 57.9843C83.069 60.3315 83.4475 67.6003 82.6147 70.8561C82.5389 71.0075 67.4714 72.1433 65.8056 69.4932C65.7299 67.2974 62.0955 47.7625 57.1739 41.7052C56.7196 41.0238 57.7039 39.1309 57.7039 39.1309L75.1944 46.3997L82.3118 57.9843Z" fill="#D38466"/>
  <path d="M59.6719 40.7991C58.5361 42.3135 57.0975 42.9949 55.8104 42.9949C52.9331 42.9949 46.27 40.3448 46.27 30.8802C46.27 24.0658 52.9331 20.5828 52.9331 17.327C52.9331 14.2226 52.1002 14.1469 52.1002 11.5725C52.1002 10.2853 53.3874 6.0452 57.4004 6.0452C59.6719 6.0452 60.5048 7.93812 62.7763 7.93812C65.2749 7.93812 67.5464 3.09226 71.3323 3.09226C73.9066 3.09226 76.3296 5.5152 79.0554 5.5152C82.1597 5.5152 84.2798 0.896484 88.5956 0.896484C93.0629 0.896484 94.6529 4.90945 96.3944 4.90945C98.5902 4.90945 98.9688 4.30373 101.165 4.30373C102.527 4.30373 106.692 6.72666 106.692 11.1182C106.692 14.2226 105.405 19.2956 98.9688 19.2956C95.183 19.2956 93.0629 25.2772 89.7314 25.2772C88.4442 25.2772 87.3085 24.2172 87.0056 24.7472C85.7184 27.0187 83.0683 33.2275 83.0683 33.2275L71.0294 39.9662L59.6719 40.7991Z" fill="black"/>
  <path d="M62.3227 37.6906C62.3227 38.7506 62.7013 38.9778 64.2914 38.9778C65.0485 38.9778 66.1085 37.9935 66.1085 36.9334C66.1085 34.4348 64.2914 33.9048 64.2914 30.649C64.2914 25.1216 78.7532 22.2444 83.8262 19.3672C85.6434 21.1844 86.9306 23.5316 87.4606 26.1817L90.7164 42.915C92.155 50.1838 87.3849 57.2255 80.1919 58.6641C72.9988 60.1027 65.8814 55.3326 64.4428 48.1395L63.9128 45.2623C63.6099 45.338 63.307 45.4137 63.0799 45.4137C61.187 45.4137 59.7484 43.6722 59.7484 41.5522C59.597 39.5835 62.3227 36.1006 62.3227 37.6906Z" fill="#DE8E68"/>
</svg>
