<svg width="661" height="368" viewBox="0 0 661 368" fill="none" xmlns="http://www.w3.org/2000/svg">
  <mask id="mask0" mask-type="alpha" maskUnits="userSpaceOnUse" x="0" y="0" width="661" height="368">
    <rect width="661" height="368" fill="#C4C4C4"/>
  </mask>
  <g mask="url(#mask0)">
    <path d="M63.942 190.609C122.486 289.66 292.979 362.37 382.552 308.783C519.638 237.674 721.852 -11.9979 660.174 -75.195C598.496 -138.392 410.515 -375.208 197.898 -249.283C-14.7203 -123.358 5.3983 91.5574 63.942 190.609Z" fill="#EAEAEA"/>
    <path d="M391.69 82.9033C391.69 72.8276 385.509 64.6562 377.892 64.6562C370.275 64.6562 364.118 72.8276 364.118 82.9033C364.118 88.1981 365.821 92.979 368.542 96.2939C367.589 103.347 365.136 113.221 364.718 114.989C364.718 114.989 387.101 130.607 387.101 116.385C387.101 105.594 387.852 98.7523 388.532 94.5608C390.65 91.0452 391.744 87.0076 391.69 82.9033Z" fill="#DC8E6C"/>
    <path d="M382.496 65.8965H363.549C362.494 65.8965 361.639 66.7513 361.639 67.8058V93.7456C361.639 94.8001 362.494 95.655 363.549 95.655H382.496C383.55 95.655 384.405 94.8001 384.405 93.7456V67.8058C384.405 66.7513 383.55 65.8965 382.496 65.8965Z" fill="#EFEFEF"/>
    <path d="M284.061 149.966C288.822 148.263 323.528 148.263 351.765 165.956C353.468 159.15 359.931 110.293 359.931 110.293L388.853 112.182C388.853 112.182 395.317 175.467 382.39 208.128C376.264 221.06 305.815 194.178 305.815 194.178L284.061 149.966Z" fill="#9E9E9E"/>
    <path d="M254.891 139.447C342.293 136.606 338.202 339.777 328.771 348.392C319.34 357.006 201.984 358.397 194.19 349.399C186.397 340.402 168.351 142.264 254.891 139.447Z" fill="#666666"/>
    <path d="M268.62 140.698C259.713 138.315 248.887 139.58 242.771 141.202C246.539 152.467 264.433 289.999 266.141 355.426C272.398 355.32 281.607 355.098 289.139 354.645C288.66 304.665 285.376 194.442 268.62 140.698Z" fill="white"/>
    <path d="M260.34 158.787C268.824 201.649 277.308 299.207 278.587 343.348" stroke="#D8D8D8" stroke-width="2" stroke-miterlimit="10" stroke-linecap="round"/>
    <path d="M268.826 149.649C268.826 153.679 245.44 153.679 245.44 149.276C245.44 144.873 242.297 112.207 242.297 112.207L265.581 110.293C265.581 110.293 268.821 147.089 268.826 149.649Z" fill="#D37C59"/>
    <path d="M297.391 118.662C297.588 116.405 297.693 114.128 297.693 111.78C297.693 80.6917 279.31 55.4824 256.635 55.4824C233.96 55.4824 215.577 80.6716 215.577 111.78C215.577 115.267 215.813 118.749 216.282 122.204L297.391 118.662Z" fill="black"/>
    <path d="M289.558 87.3837C284.52 85.3988 279.638 83.2628 275.668 79.293C265.28 90.7188 247.059 104.129 240.429 108.452C243.079 125.581 253.22 138.357 265.331 138.357C279.462 138.357 290.918 120.991 290.918 99.5652C290.923 95.4787 290.49 91.4035 289.628 87.4089L289.558 87.3837Z" fill="#DC8E6C"/>
    <path d="M243.363 110.38C246.646 110.38 249.308 107.718 249.308 104.435C249.308 101.152 246.646 98.4902 243.363 98.4902C240.08 98.4902 237.419 101.152 237.419 104.435C237.419 107.718 240.08 110.38 243.363 110.38Z" fill="#DC8E6C"/>
    <path d="M289.438 230.672L238.418 211.668L210.426 286.816L261.445 305.82L289.438 230.672Z" fill="white"/>
    <path d="M277.556 222.237L252.932 213.064L250.173 220.472L274.797 229.644L277.556 222.237Z" fill="#DB0011"/>
    <path d="M282.904 232.657L242.068 217.445L217.312 283.907L258.148 299.118L282.904 232.657Z" fill="#A8000B"/>
    <path d="M258.518 259.287C265.354 258.929 272.684 252.436 279.571 252.436C287.813 252.436 293.601 257.655 293.601 264.184C293.601 277.962 282.836 281.967 278.755 281.967C271.903 281.967 270.75 280.914 269.475 280.013C267.4 280.516 264.347 283.111 256.211 283.111C248.074 283.111 258.518 259.287 258.518 259.287Z" fill="#DC8E6C"/>
    <path d="M210.508 156.689C174.92 148.321 161.973 272.055 167.646 282.756C173.318 293.456 253.899 289.914 258.412 289.058C259.712 284.02 261.249 260.378 259.672 257.541C257.455 256.67 218.593 256.191 218.593 256.191C219.601 252.161 232.231 201.067 232.659 195.233C234.644 167.853 230.463 161.384 210.508 156.689Z" fill="#9E9E9E"/>
    <path d="M383.391 60.0469H362.02C359.914 60.0469 358.207 61.7543 358.207 63.8605V63.8656C358.207 65.9718 359.914 67.6792 362.02 67.6792H383.391C385.497 67.6792 387.204 65.9718 387.204 63.8656V63.8605C387.204 61.7543 385.497 60.0469 383.391 60.0469Z" fill="#DB0011"/>
    <path d="M381.205 88.6344L374.922 92.2616C374.264 92.6413 374.039 93.4825 374.419 94.1403L374.421 94.1446C374.801 94.8025 375.642 95.0278 376.3 94.648L382.583 91.0209C383.241 90.6411 383.466 89.8 383.086 89.1422L383.084 89.1378C382.704 88.48 381.863 88.2546 381.205 88.6344Z" fill="#212121"/>
    <path d="M382.806 84.0038L376.248 80.9024C375.562 80.5777 374.742 80.8711 374.417 81.5578L374.415 81.5623C374.09 82.249 374.384 83.0689 375.07 83.3936L381.628 86.495C382.315 86.8197 383.135 86.5263 383.46 85.8396L383.462 85.8351C383.787 85.1484 383.493 84.3285 382.806 84.0038Z" fill="#212121"/>
    <path d="M362.471 86.7722L364.547 93.7232C364.764 94.451 365.531 94.8648 366.258 94.6474L366.263 94.646C366.991 94.4286 367.405 93.6624 367.188 92.9346L365.111 85.9835C364.894 85.2557 364.128 84.8419 363.4 85.0593L363.395 85.0608C362.667 85.2781 362.254 86.0444 362.471 86.7722Z" fill="#212121"/>
    <path d="M366.219 87.9421L370.863 93.5156C371.349 94.0992 372.217 94.1781 372.8 93.6919L372.804 93.6887C373.388 93.2025 373.467 92.3352 372.98 91.7517L368.337 86.1782C367.85 85.5946 366.983 85.5157 366.4 86.0019L366.396 86.0051C365.812 86.4913 365.733 87.3586 366.219 87.9421Z" fill="#212121"/>
    <path d="M371.741 88.6211L378.979 89.112C379.737 89.1634 380.393 88.5907 380.444 87.8329L380.445 87.8279C380.496 87.07 379.923 86.414 379.166 86.3626L371.928 85.8718C371.17 85.8204 370.514 86.3931 370.463 87.1509L370.462 87.1559C370.411 87.9137 370.983 88.5697 371.741 88.6211Z" fill="#212121"/>
    <path d="M246.055 153.08L256.639 157.02L260.347 153.982L264.166 157.02L269.471 151.619" stroke="#D8D8D8" stroke-width="2" stroke-miterlimit="10" stroke-linecap="round"/>
  </g>
</svg>
