<svg width="457" height="315" viewBox="0 0 457 315" fill="none"
  xmlns="http://www.w3.org/2000/svg">
  <path d="M412.215 153.141C353.35 104.894 184.595 49.6027 97.0749 56.8065C-37.0051 63.5253 -232.99 130.618 -171.483 165.192C-109.977 199.766 78.0289 322.598 285.791 306.002C493.553 289.406 471.081 201.387 412.215 153.141Z" fill="#EAEAEA"/>
  <path d="M257.795 45.3183C257.795 38.4277 253.567 32.8394 248.358 32.8394C243.149 32.8394 238.938 38.4277 238.938 45.3183C238.938 48.9393 240.103 52.2089 241.963 54.476C241.312 59.2994 239.634 66.0522 239.348 67.2615C239.348 67.2615 254.656 77.942 254.656 68.2159C254.656 60.836 255.169 56.1573 255.635 53.2908C257.083 50.8865 257.832 48.1252 257.795 45.3183Z" fill="#DC8E6C"/>
  <path d="M251.507 33.6875H238.549C237.828 33.6875 237.243 34.2721 237.243 34.9933V52.7332C237.243 53.4544 237.828 54.039 238.549 54.039H251.507C252.228 54.039 252.813 53.4544 252.813 52.7332V34.9933C252.813 34.2721 252.228 33.6875 251.507 33.6875Z" fill="#EFEFEF"/>
  <path d="M184.188 91.1822C187.444 90.0177 211.179 90.0177 230.49 102.118C231.655 97.463 236.075 64.0503 236.075 64.0503L255.855 65.3423C255.855 65.3423 260.275 108.622 251.434 130.958C247.245 139.803 199.065 121.418 199.065 121.418L184.188 91.1822Z" fill="#9E9E9E"/>
  <path d="M164.236 83.9889C224.009 82.0458 221.212 220.992 214.762 226.884C208.312 232.775 128.054 233.726 122.724 227.573C117.394 221.419 105.053 85.9149 164.236 83.9889Z" fill="#666666"/>
  <path d="M173.629 84.8427C167.538 83.213 160.134 84.0778 155.951 85.1872C158.528 92.8909 170.766 186.948 171.934 231.693C176.213 231.62 182.511 231.469 187.662 231.158C187.335 196.977 185.088 121.597 173.629 84.8427Z" fill="white"/>
  <path d="M167.965 97.2158C173.767 126.529 179.569 193.247 180.444 223.435" stroke="#D8D8D8" stroke-width="2" stroke-miterlimit="10" stroke-linecap="round"/>
  <path d="M173.77 90.9651C173.77 93.7214 157.777 93.7214 157.777 90.7102C157.777 87.699 155.627 65.3595 155.627 65.3595L171.551 64.0503C171.551 64.0503 173.767 89.2149 173.77 90.9651Z" fill="#D37C59"/>
  <path d="M193.305 69.7732C193.439 68.2297 193.511 66.6724 193.511 65.0669C193.511 43.8058 180.939 26.5654 165.432 26.5654C149.925 26.5654 137.353 43.792 137.353 65.0669C137.353 67.4511 137.514 69.8327 137.835 72.1952L193.305 69.7732Z" fill="black"/>
  <path d="M187.947 48.3818C184.502 47.0244 181.164 45.5635 178.449 42.8486C171.344 50.6626 158.883 59.8341 154.349 62.7901C156.161 74.5042 163.096 83.2416 171.379 83.2416C181.043 83.2416 188.878 71.3655 188.878 56.7126C188.881 53.9179 188.585 51.1309 187.996 48.399L187.947 48.3818Z" fill="#DC8E6C"/>
  <path d="M156.355 64.1095C158.6 64.1095 160.42 62.2893 160.42 60.044C160.42 57.7987 158.6 55.9785 156.355 55.9785C154.109 55.9785 152.289 57.7987 152.289 60.044C152.289 62.2893 154.109 64.1095 156.355 64.1095Z" fill="#DC8E6C"/>
  <path d="M187.866 146.376L152.975 133.379L133.831 184.772L168.723 197.769L187.866 146.376Z" fill="white"/>
  <path d="M179.739 140.608L162.898 134.335L161.011 139.401L177.852 145.673L179.739 140.608Z" fill="#DB0011"/>
  <path d="M183.395 147.733L155.468 137.33L138.537 182.782L166.465 193.185L183.395 147.733Z" fill="#A8000B"/>
  <path d="M166.717 165.946C171.392 165.702 176.405 161.261 181.115 161.261C186.751 161.261 190.71 164.83 190.71 169.295C190.71 178.718 183.347 181.457 180.556 181.457C175.871 181.457 175.082 180.737 174.21 180.12C172.791 180.465 170.703 182.239 165.139 182.239C159.574 182.239 166.717 165.946 166.717 165.946Z" fill="#DC8E6C"/>
  <path d="M133.887 95.7784C109.549 90.0557 100.695 174.676 104.574 181.994C108.454 189.312 163.561 186.89 166.649 186.304C167.537 182.859 168.588 166.69 167.51 164.75C165.994 164.154 139.417 163.827 139.417 163.827C140.106 161.071 148.743 126.128 149.036 122.139C150.393 103.413 147.534 98.9895 133.887 95.7784Z" fill="#9E9E9E"/>
  <path d="M252.12 29.6865H237.505C236.064 29.6865 234.896 30.8542 234.896 32.2946V32.2981C234.896 33.7385 236.064 34.9062 237.505 34.9062H252.12C253.56 34.9062 254.728 33.7385 254.728 32.2981V32.2946C254.728 30.8542 253.56 29.6865 252.12 29.6865Z" fill="#DB0011"/>
  <path d="M250.622 49.2381L246.325 51.7187C245.875 51.9784 245.721 52.5537 245.981 53.0035L245.983 53.0065C246.242 53.4564 246.818 53.6105 247.268 53.3508L251.564 50.8702C252.014 50.6105 252.168 50.0352 251.908 49.5854L251.907 49.5824C251.647 49.1325 251.072 48.9784 250.622 49.2381Z" fill="#212121"/>
  <path d="M251.716 46.0724L247.231 43.9514C246.762 43.7294 246.201 43.93 245.979 44.3996L245.977 44.4027C245.755 44.8723 245.956 45.433 246.425 45.6551L250.91 47.7761C251.38 47.9982 251.941 47.7975 252.163 47.3279L252.164 47.3248C252.386 46.8552 252.186 46.2945 251.716 46.0724Z" fill="#212121"/>
  <path d="M237.81 47.9632L239.23 52.7169C239.379 53.2147 239.903 53.4976 240.4 53.349L240.404 53.348C240.901 53.1993 241.184 52.6753 241.036 52.1776L239.616 47.4238C239.467 46.9261 238.943 46.6431 238.445 46.7918L238.442 46.7928C237.944 46.9414 237.661 47.4654 237.81 47.9632Z" fill="#212121"/>
  <path d="M240.375 48.7636L243.551 52.5752C243.884 52.9743 244.477 53.0283 244.876 52.6958L244.879 52.6936C245.278 52.3611 245.332 51.768 244.999 51.3689L241.823 47.5572C241.491 47.1581 240.898 47.1042 240.499 47.4367L240.496 47.4389C240.097 47.7714 240.043 48.3645 240.375 48.7636Z" fill="#212121"/>
  <path d="M244.152 49.2296L249.102 49.5653C249.62 49.6004 250.069 49.2088 250.104 48.6905L250.104 48.6871C250.139 48.1688 249.747 47.7201 249.229 47.685L244.279 47.3493C243.761 47.3141 243.312 47.7058 243.277 48.2241L243.277 48.2275C243.242 48.7458 243.633 49.1944 244.152 49.2296Z" fill="#212121"/>
  <path d="M158.194 93.3116L165.433 96.0059L167.969 93.9284L170.58 96.0059L174.208 92.3125" stroke="#D8D8D8" stroke-width="2" stroke-miterlimit="10" stroke-linecap="round"/>
</svg>
