<svg width="1536" height="846" viewBox="0 0 1536 846" fill="none" xmlns="http://www.w3.org/2000/svg">
<path d="M691.433 388.659C716.414 235.26 623.418 82.3034 538.547 0H0.5V846C56.5 846 99.0666 850.73 235.5 804.5C406.042 746.713 660.208 580.409 691.433 388.659Z" fill="#B0E4EA"/>
<path d="M952 846.5H-1V628.101C57.8006 598.777 228.735 554.3 480 557.499C639.017 559.524 809 682.5 952 846.5Z" fill="#F1F1F1"/>
<path d="M373.447 571.926L326.764 743.555" stroke="#FD8369" stroke-width="4" stroke-miterlimit="10" stroke-linecap="round"/>
<path d="M390.61 571.926L437.293 743.555" stroke="#FD8369" stroke-width="4" stroke-miterlimit="10" stroke-linecap="round"/>
<path d="M356.284 575.358H267.037L162 325.466H251.247L356.284 575.358Z" fill="#FD8369"/>
<path d="M386.491 442.174V692.066" stroke="#FD8369" stroke-width="4" stroke-miterlimit="10" stroke-linecap="round"/>
<path d="M420.13 442.174V730.511" stroke="#FD8369" stroke-width="4" stroke-miterlimit="10" stroke-linecap="round"/>
<path d="M472.782 723.732L461.057 723.796L461.127 736.84L472.853 736.776L472.782 723.732Z" fill="#DE8E68"/>
<path d="M460.819 746.115L504.496 748.134L505.258 744.53L475.119 733.669L461.135 734.143L460.819 746.115Z" fill="black"/>
<path d="M413.017 732.291L400.054 723.93L390.751 738.353L403.715 746.714L413.017 732.291Z" fill="#DE8E68"/>
<path d="M460.635 690.694V725.02H472.306C472.306 725.02 492.215 678.337 498.393 647.443" fill="#56CAD8"/>
<path d="M351.829 475.181C359.031 473.753 404.341 466.201 453.77 466.201C510.751 466.201 535.122 472.723 540.958 478.558C546.793 484.394 524.481 571.925 521.049 578.79" fill="#56CAD8"/>
<path d="M255.366 462.082C251.247 469.634 252.386 471.007 251.247 496.408C247.127 588.401 378.939 573.984 467.499 598.699C444.844 669.41 398.848 721.585 398.848 725.018C398.848 728.451 409.372 736.249 411.205 735.316C446.217 717.466 554.09 598.939 552.627 578.79C549.881 541.031 372.76 474.439 349.418 474.439" fill="#74D5DE"/>
<path d="M393.568 359.724C413.951 376.955 425.622 414.027 426.995 414.027C477.11 414.027 525.167 427.071 528.599 427.071C532.032 427.071 538.897 422.265 541.643 422.265C544.389 422.265 556.746 427.757 556.746 430.504C556.746 433.25 409.832 431.19 406.399 431.19C403.31 428.101 376.879 403.043 376.879 398.924" fill="#D9805A"/>
<path d="M527.913 347.435L539.584 385.88" stroke="#FD8369" stroke-width="4" stroke-miterlimit="10" stroke-linecap="round"/>
<path d="M328.136 291.827C314.042 302.564 329.509 380.387 342.553 385.193C355.597 389.999 399.534 361.165 400.221 350.867C400.907 340.57 342.553 280.843 328.136 291.827Z" fill="#FED07D"/>
<path d="M253.306 439.429C269.096 371.464 322.644 273.292 334.315 262.308C358.343 262.308 390.609 316.542 390.609 348.809C390.609 385.194 357.004 471.901 350.105 476.501C337.747 484.739 270.469 478.56 252.619 462.084C249.386 459.105 253.306 439.429 253.306 439.429Z" fill="#FED385"/>
<path d="M336.719 236.219C341.079 236.219 344.614 232.684 344.614 228.324C344.614 223.963 341.079 220.429 336.719 220.429C332.359 220.429 328.824 223.963 328.824 228.324C328.824 232.684 332.359 236.219 336.719 236.219Z" fill="#DE8E68"/>
<path d="M330.196 269.172C329.64 271.032 352.507 275.693 354.224 273.977C354.224 270.545 354.224 255.441 356.283 249.949C358.343 244.457 343.198 228.392 338.756 226.813C334.315 234.159 323.33 223.861 327.45 234.159C331.569 244.457 334.315 255.441 330.196 269.172Z" fill="#D9805A"/>
<path d="M352.166 256.128C362.782 256.128 371.388 239.838 371.388 219.743C371.388 199.648 362.782 183.357 352.166 183.357C341.55 183.357 332.943 199.648 332.943 219.743C332.943 239.838 341.55 256.128 352.166 256.128Z" fill="#DE8E68"/>
<path d="M317.84 189.536C297.244 189.536 293.125 171 269.097 171C249.188 171 242.082 184.394 233.398 190.909C225.16 197.088 194.267 204.639 194.267 238.279C194.267 261.62 212.116 282.902 232.025 282.902C256.74 282.902 280.768 252.009 306.855 252.009C317.84 252.009 315.78 256.128 328.824 256.128C333.63 256.128 333.63 252.695 333.63 251.322C333.63 249.949 335.689 247.203 335.689 244.457C335.689 236.219 328.824 239.652 328.824 228.667C328.824 223.862 333.63 220.615 338.435 220.615C343.241 220.615 363.836 203.266 363.836 190.909C365.209 192.282 367.269 198.461 367.269 199.147C367.955 199.147 368.642 195.715 368.642 194.342C368.642 180.611 354.912 177.179 350.106 177.179C339.122 177.179 334.316 189.536 317.84 189.536Z" fill="black"/>
<path d="M326.764 300.752C312.67 311.489 328.137 389.312 341.181 394.118C354.225 398.924 398.162 370.09 398.849 359.792C399.535 349.494 341.181 289.767 326.764 300.752Z" fill="#FED892"/>
<path d="M391.983 366.657C394.043 369.403 406.4 386.566 406.4 386.566C413.265 386.566 437.98 385.193 521.048 361.165C523.794 360.478 530.268 372.087 525.854 374.895C510.75 384.507 407.773 430.503 385.118 430.503C379.626 430.503 350.105 394.118 350.105 389.312" fill="#DE8E68"/>
<path d="M530.316 375.582C535.814 375.582 540.27 371.125 540.27 365.627C540.27 360.13 535.814 355.673 530.316 355.673C524.818 355.673 520.361 360.13 520.361 365.627C520.361 371.125 524.818 375.582 530.316 375.582Z" fill="#DE8E68"/>
<path d="M383.745 748.361L430.428 782L433.861 778.568L408.46 744.928L392.711 735.393L383.745 748.361Z" fill="black"/>
<path d="M661.098 431.877H373.447V444.921H661.098V431.877Z" fill="#FD8369"/>
<path d="M613.041 442.174V692.066" stroke="#FD8369" stroke-width="4" stroke-miterlimit="10" stroke-linecap="round"/>
<path d="M647.368 442.174V730.511" stroke="#FD8369" stroke-width="4" stroke-miterlimit="10" stroke-linecap="round"/>
<path d="M295.872 571.926L249.188 743.555" stroke="#FD8369" stroke-width="4" stroke-miterlimit="10" stroke-linecap="round"/>
</svg>
