<svg width="531" height="147" viewBox="0 0 531 147" fill="none" xmlns="http://www.w3.org/2000/svg">
<path d="M214.541 1.7478H72.0058L0.733154 73.3425L72.0058 144.937H214.541L285.814 73.3425L214.541 1.7478Z" fill="white"/>
<path d="M285.814 73.3425L214.542 1.7478V144.927L285.814 73.3425Z" fill="#DB0011"/>
<path d="M143.27 73.3425L214.543 1.7478H72.0076L143.27 73.3425Z" fill="#DB0011"/>
<path d="M0.733154 73.3425L72.0058 144.927V1.7478L0.733154 73.3425Z" fill="#DB0011"/>
<path d="M143.27 73.3428L72.0076 144.927H214.543L143.27 73.3428Z" fill="#DB0011"/>
<path d="M348.369 36.0859H322.533V61.7052H309.57V1.74832H322.533V26.2665H348.369V1.71802H361.332V61.6749H348.369V36.0859Z" fill="white"/>
<path d="M392.367 62.7854C379.494 62.7854 368.925 57.6434 368.673 43.2982H381.636C381.797 49.6828 385.518 53.5015 392.618 53.5015C397.898 53.5015 403.842 50.8446 403.842 44.8741C403.842 40.2271 399.819 38.7421 393.111 36.7923L388.817 35.5497C379.404 32.812 370.081 29.155 370.081 18.3759C370.081 5.03082 382.461 0.54541 393.775 0.54541C405.411 0.54541 415.397 4.58632 415.488 17.8809H402.524C402.032 12.4055 398.894 9.25357 392.779 9.25357C387.992 9.25357 383.205 11.8296 383.205 17.1333C383.205 21.5278 387.168 22.8512 395.585 25.5081L400.543 27.084C410.781 30.3168 417.217 33.8829 417.217 43.8336C417.217 57.5828 404.093 62.7854 392.367 62.7854Z" fill="white"/>
<path d="M424.519 1.7478H445.236C451.763 1.7478 454.408 1.91955 456.962 2.49538C464.233 4.15215 469.674 8.88 469.674 16.9315C469.674 24.6395 464.806 28.6198 457.787 30.4483C465.832 31.9334 471.866 36.0854 471.866 44.9552C471.866 58.5528 458.491 61.7047 448.001 61.7047H424.519V1.7478ZM445.326 26.7105C451.018 26.7105 456.801 25.5487 456.801 18.6287C456.801 12.4057 451.35 10.7489 446.151 10.7489H437.1V26.7509L445.326 26.7105ZM446.523 52.7541C452.557 52.7541 458.491 51.3398 458.491 44.046C458.491 36.9138 453.372 35.257 447.267 35.257H437.07V52.7541H446.523Z" fill="white"/>
<path d="M505.597 62.7838C486.368 62.7838 477.699 50.4288 477.699 32.1841C477.699 14.101 487.273 0.584229 506.26 0.584229C518.148 0.584229 529.713 5.89802 530.035 19.4957H516.659C516.005 13.5252 512.043 10.4036 506.26 10.4036C494.625 10.4036 491.075 23.0112 491.075 32.6286C491.075 42.2459 494.625 53.2776 505.848 53.2776C511.711 53.2776 516.005 50.1257 516.911 44.0744H530.367C528.878 57.6418 517.987 62.7838 505.597 62.7838Z" fill="white"/>
<path d="M309.609 84.9802H314.969V140.421H344.948V144.897H309.609V84.9802Z" fill="white"/>
<path d="M351.989 84.9802H358.023V91.284H351.989V84.9802ZM352.481 103.063H357.51V144.937H352.481V103.063Z" fill="white"/>
<path d="M386.635 88.3846C380.52 88.3846 379.524 90.6172 379.524 96.4664V103.043H388.777V106.771H379.524V144.917H374.496V106.791H366.068V103.043H374.496V96.82C374.496 90.2636 375.502 84.374 384.322 84.374C386.051 84.374 387.781 84.4649 389.521 84.6266V88.5261C388.777 88.4654 387.62 88.3846 386.635 88.3846Z" fill="white"/>
<path d="M398.431 125.784C398.431 134.239 403.137 142.119 412.299 142.119C418.906 142.119 423.04 137.977 424.106 131.673H428.903C427.163 141.038 421.058 145.816 411.645 145.816C398.934 145.816 393.312 136.441 393.312 124.662C393.312 112.641 399.175 102.356 412.299 102.356C425.594 102.356 429.144 113.55 429.144 124.743H398.431V125.784ZM411.977 106.296C403.55 106.296 399.265 113.428 398.602 121.056H424.025V120.217C424.025 112.843 419.902 106.296 411.977 106.296Z" fill="white"/>
</svg>
