<svg width="443" height="143" viewBox="0 0 443 143" fill="none" xmlns="http://www.w3.org/2000/svg">
<path d="M213.53 0.729996H71.8V142.46H213.53V0.729996Z" fill="white"/>
<path d="M284.4 71.6L213.53 0.729996V142.46L284.4 71.6Z" fill="#E30613"/>
<path d="M142.66 71.6L213.53 0.729996H71.8L142.66 71.6Z" fill="#E30613"/>
<path d="M0.929932 71.6L71.7999 142.46V0.729996L0.929932 71.6Z" fill="#E30613"/>
<path d="M142.66 71.6L71.8 142.46H213.53L142.66 71.6Z" fill="#E30613"/>
<path d="M318.74 142.31V106.86C318.74 106.86 318.34 107.32 318.07 107.59C315.75 110.1 314.07 112.75 311.45 115.21L308.33 112.29C313.399 107.335 317.375 101.374 320 94.79C321.581 90.568 322.798 86.2189 323.64 81.79L327.35 83.52C326.505 88.7639 325.014 93.8829 322.91 98.76V142.3L318.74 142.31Z" fill="white"/>
<path d="M355 120.18C354.364 118.982 353.809 117.743 353.34 116.47H366.6V112.55H348.7V106.06H361.49L361.56 85.12H331.06V106.06L344.65 105.99V112.62L326.29 112.55V116.47H340.47C339.69 118.201 338.784 119.872 337.76 121.47C334.469 126.919 329.748 131.363 324.11 134.32L327.55 137.44C335.37 133.2 341.6 125.18 344.55 117.22L344.49 142.34H348.66L348.8 116.76C349.743 119.066 350.85 121.301 352.11 123.45C355.092 128.705 359.416 133.074 364.64 136.11C365.371 136.639 366.172 137.063 367.02 137.37L370.2 134.37C364.07 131.11 358 126.47 355 120.18ZM335.25 102.18L335.17 89H357.38V102.12L335.25 102.18Z" fill="white"/>
<path d="M385.53 142.31V85.45H402V88.76C399.54 95.59 397.22 101.42 395.9 105C399.21 109.24 401.73 113.88 401.27 119.45C401.14 120.504 400.768 121.513 400.181 122.398C399.594 123.283 398.81 124.02 397.89 124.55C396.057 125.268 394.074 125.519 392.12 125.28L390.86 121.1C392.59 121.17 394.86 121.97 396.36 120.51C398.15 118.59 397.16 115.67 396.49 113.51C395.57 110.6 393.65 108.14 391.49 105.69C393.775 100.342 395.778 94.8779 397.49 89.32H389.6V142.32L385.53 142.31Z" fill="white"/>
<path d="M413.57 126.14C413.423 127.506 413.11 128.849 412.64 130.14C415.22 131.34 417.81 132.27 420.06 134.25L417.61 137.17C415.686 135.555 413.488 134.299 411.12 133.46C408.95 137.167 405.811 140.213 402.04 142.27L398.66 139.56C403.89 137.24 408.4 132.27 409.66 126.63L409.99 125.17L413.57 126.14Z" fill="white"/>
<path d="M411.71 100.89H427.55V97.58C429.67 99.23 431.93 101.58 434.31 102.68C436.153 103.663 438.057 104.528 440.01 105.27L442.6 101.69C438.543 100.148 434.744 97.9999 431.33 95.32C427.401 92.0979 424.058 88.2208 421.45 83.86L422.05 82.67L418.34 80.81C413.764 89.7703 406.606 97.1518 397.79 102L400.64 105.38C404.675 103.19 408.398 100.469 411.71 97.29V100.89ZM419 87.57C421.346 91.0487 424.08 94.2493 427.15 97.11H412C414.583 94.1208 416.924 90.9308 419 87.57V87.57Z" fill="white"/>
<path d="M418.47 106.59H404.36V122.5H418.47V106.59ZM414.63 118.72H408.2V110.37H414.63V118.72Z" fill="white"/>
<path d="M430.4 130.85C430.915 129.252 431.27 127.608 431.46 125.94L427.68 125.15C427.495 128.165 426.524 131.08 424.862 133.603C423.201 136.126 420.907 138.169 418.21 139.53L421.52 142.31C424.691 140.339 427.241 137.514 428.88 134.16C432.689 135.508 436.087 137.811 438.75 140.85L441.53 138.14C438.453 134.859 434.637 132.36 430.4 130.85V130.85Z" fill="white"/>
<path d="M422.25 122.5H436.5V106.59H422.25V122.5ZM426.09 110.37H432.65V118.72H426.09V110.37Z" fill="white"/>
<path d="M317.19 28.86C315.286 24.5356 312.071 20.9187 308 18.52L311.4 15C314.4 17 318.77 20.72 321.12 25.27L317.19 28.86ZM312.36 59.81L308 56.64C314.75 49.2 317.72 39.82 319.23 32.31L323.92 34.37C322.187 43.6622 318.22 52.3933 312.36 59.81V59.81ZM321.18 13.42C319.323 9.33176 316.078 6.03343 312.02 4.11L316.02 0.729996C319.659 2.79129 322.702 5.76135 324.85 9.35001L321.18 13.42ZM324.98 59.79L325.05 2.66H369.17V7.66H351.38C353.067 9.00714 354.473 10.6718 355.52 12.56L354.41 13.56H367.93V18.56H354.76V24.42H365.76V29.42L354.76 29.35V35.07H365.76V40.07H354.76V46.55H368.41V51.55H335.18V28.17C334.392 29.4454 333.516 30.665 332.56 31.82C331.67 31.1316 330.882 30.3201 330.22 29.41C330.08 29.62 330.15 28.1 330.22 54.85H370.48L370.55 59.79H324.98ZM330.22 7.69V26C333.94 22.07 336.83 15 337.94 7.67L330.22 7.69ZM340.35 18.69V24.55H349.52L349.59 18.69H340.35ZM340.35 29.58V35.23H349.52L349.59 29.58H340.35ZM349.52 40.26H340.42L340.35 46.68H349.52V40.26ZM345.31 8.83L346.42 7.66H341.73L343.11 8.35001C342.715 10.1544 342.183 11.9261 341.52 13.65H350C349.45 12.25 347.59 10.66 345.31 8.8V8.83Z" fill="white"/>
<path d="M440.6 31.82H385.72V36.58H440.6V31.82Z" fill="white"/>
<path d="M422.4 25.28V22.31H416.74L416.67 18.45L422.33 18.52V15.9H416.74V12.18H422.33L422.4 9.56H416.74L416.81 5.83H422.33L422.4 2.03999H427.09V5.83L432.94 5.89999V9.56L427.15 9.63V12.18L432.81 12.25L432.88 15.97H427.15L427.09 18.52L432.94 18.45V22.31H427.15L427.09 25.28L433.22 25.21L433.36 5.28H438.53V29.83H387.72V5.42L392.96 5.49001L392.89 25.28H399.03L398.96 22.38H393.65V18.59H398.96L399.03 15.97H393.65V12.18H399.03L398.96 9.69H393.65V5.97H398.96V2.11L403.85 2.03999L403.92 5.89999L409.57 5.97L409.5 9.69H403.85V12.11L409.57 12.18V15.97H403.92V18.52L409.64 18.59L409.57 22.45H403.92L403.85 25.28L410.61 25.21V0.729996H415.85V25.21L422.4 25.28Z" fill="white"/>
<path d="M423.91 54.85C425.014 53.6076 425.9 52.1876 426.53 50.65L433.29 50.58L433.36 38.44L393.17 38.37L393.1 50.65L399.37 50.58C400.816 51.8723 402.132 53.3024 403.3 54.85H383.72L383.79 59.85L442.6 59.79V54.89L423.91 54.85ZM398.41 46.3L398.34 42.99H428.05V46.3H398.41ZM417.41 54.85H409C408.099 53.3172 407.037 51.8856 405.83 50.58H421C420.192 52.3045 418.935 53.7795 417.36 54.85H417.41Z" fill="white"/>
</svg>
