<svg width="443" height="354" viewBox="0 0 443 354" fill="none" xmlns="http://www.w3.org/2000/svg">
<g clip-path="url(#clip0)">
<path d="M485.948 118.811C494.674 28.6837 351.721 -96.5878 279.154 -147.958C266.86 -156.594 231.688 -170.196 189.357 -155.515C136.442 -137.164 39.1494 -69.6767 113.897 138.388C173.695 304.839 300.081 302.394 355.8 280.365C395.546 264.067 477.221 208.939 485.948 118.811Z" fill="#EDEDED"/>
<ellipse cx="307" cy="267" rx="53" ry="11" fill="#D7D8D6"/>
<path d="M320.238 258.487H324.949V261.474H320.238V258.487Z" fill="#DE8E68"/>
<path d="M289.475 258.487H294.98V261.474H289.475V258.487Z" fill="#DE8E68"/>
<path d="M295.181 190.926C295.052 193.179 289.305 258.487 289.305 258.487H295.181L310.461 209.442C310.461 209.442 306.489 189.817 306.211 189.868C304.9 190.175 297.712 191.353 295.181 190.926Z" fill="black"/>
<path d="M303.76 190.362L319.594 259.014H325.267C325.267 259.014 325.765 183.774 325.267 183.774C319.945 185.856 309.894 189.269 303.76 190.362Z" fill="#212121"/>
<path d="M291.125 152.992C290.219 153.35 285.378 157.054 283.346 159.494C281.831 158.453 264.537 145.193 264.186 144.46C263.503 144.101 262.043 146.132 264.186 147.787C262.727 147.736 254.098 147.531 254.098 147.787C254.098 148.043 252.232 148.777 264.907 150.654C266.588 152.531 281.813 169.067 284.288 169.067C286.764 169.067 296.852 160.023 297.277 158.402C297.702 156.781 291.125 152.992 291.125 152.992Z" fill="#DE8E68"/>
<path d="M304.296 145.634C308.249 149.03 301.007 159.269 298.956 159.713C296.351 160.293 290.402 155.737 289.127 152.58C288.554 151.095 301.044 142.853 304.296 145.634Z" fill="#A8000B"/>
<path d="M311.387 140.688C333.373 140.688 328.385 179.887 326.98 182.566C325.576 185.245 297.419 193.027 295.201 190.928C292.984 188.829 288.901 140.688 311.387 140.688Z" fill="#DB0011"/>
<path d="M307.595 135.412H314.246V144.337C314.246 145.48 307.595 145.48 307.595 144.337V135.412Z" fill="#D37C59"/>
<path d="M311.003 138.624C306.819 138.624 303.428 133.368 303.428 126.883C303.428 120.399 306.819 115.143 311.003 115.143C315.187 115.143 318.578 120.399 318.578 126.883C318.578 133.368 315.187 138.624 311.003 138.624Z" fill="#DE8E68"/>
<path d="M312.256 112.512C316.08 112.512 321.143 114.218 324.82 114.218C328.145 114.218 334.187 112 337.383 112C339.416 112 349.023 112.87 349.023 120.021C349.023 123.246 345.328 126.335 344.589 127.188C343.85 128.041 342.501 132.819 339.046 132.819C334.224 132.819 330.898 129.577 326.482 129.577C323.434 129.577 322.639 130.26 321.124 130.26C320.016 130.26 318.353 129.782 318.353 129.748C318.353 129.219 318.464 124.799 317.799 124.082C316.875 123.058 305.106 124.577 305.106 120.976C304.274 121.659 303.498 124.56 303.498 125.157C302.962 124.645 300.967 122.427 300.967 120.038C300.985 117.853 302.648 112.512 312.256 112.512Z" fill="black"/>
<path d="M328.116 200.738C326.167 200.738 324.587 198.682 324.587 196.147C324.587 193.612 326.167 191.557 328.116 191.557C330.065 191.557 331.645 193.612 331.645 196.147C331.645 198.682 330.065 200.738 328.116 200.738Z" fill="#DE8E68"/>
<path d="M330.347 157.648C330.809 158.604 333.858 169.27 333.211 178.383C332.564 187.495 330.883 192.632 330.883 193.349C330.883 194.065 325.23 193.775 325.23 193.349C325.23 192.922 326.689 179.953 326.375 177.649C326.061 175.345 321.83 162.017 321.941 160.379C322.052 158.741 330.347 157.648 330.347 157.648Z" fill="#DE8E68"/>
<path d="M322.046 146.283C327.09 144.799 333.058 155.43 332.485 157.273C331.765 159.594 324.725 162.12 321.196 161.608C319.533 161.352 317.908 147.512 322.046 146.283Z" fill="#A8000B"/>
<path d="M325.192 260.789V262.103L330.809 271.83H327.15L319.834 265.704V260.789H325.192Z" fill="black"/>
<path d="M295.164 260.586V265.518H279.552V263.572L289.455 260.586H295.164Z" fill="black"/>
</g>
<defs>
<clipPath id="clip0">
<rect width="443" height="354" fill="white"/>
</clipPath>
</defs>
</svg>
