<svg width="61" height="25" viewBox="0 0 61 25" fill="none" xmlns="http://www.w3.org/2000/svg">
<g clip-path="url(#clip0)">
<path d="M15.7869 1C13.1305 3.46367 10.5154 5.89982 7.8866 8.3222C5.25776 5.91358 2.64269 3.53249 9.15527e-05 1.11011C9.15527e-05 7.6065 9.15527e-05 14.0341 9.15527e-05 20.4754C2.05086 20.4754 4.08786 20.4754 6.12487 20.4754C6.12487 19.3055 6.12487 18.1631 6.12487 16.9932C6.02852 16.9932 5.94594 16.9932 5.86336 16.9932C4.87238 16.9932 3.86765 16.9932 2.87667 16.9932C2.71151 16.9932 2.65645 16.9382 2.65645 16.773C2.65645 15.782 2.67022 14.7911 2.65645 13.8001C2.65645 13.6212 2.72527 13.5799 2.89043 13.5799C3.88141 13.5799 4.88615 13.5799 5.87712 13.5799C5.9597 13.5799 6.04228 13.5661 6.15239 13.5661C6.15239 12.41 6.15239 11.2676 6.15239 10.1252C7.29477 10.1252 8.40961 10.1252 9.53822 10.1252C9.53822 11.2814 9.53822 12.4237 9.53822 13.5799C9.64833 13.5799 9.74468 13.5799 9.84102 13.5799C10.8182 13.5799 11.8092 13.5799 12.7864 13.5799C12.9653 13.5799 13.0204 13.6349 13.0204 13.8139C13.0066 14.7911 13.0204 15.782 13.0204 16.7592C13.0204 16.8281 13.0066 16.8969 13.0066 16.9932C11.8505 16.9932 10.6944 16.9932 9.55199 16.9932C9.55199 18.1769 9.55199 19.3193 9.55199 20.4754C11.644 20.4754 13.7223 20.4754 15.8006 20.4754C15.7869 13.9928 15.7869 7.52392 15.7869 1ZM34.4778 25.6092C34.4778 23.7649 34.4778 21.9481 34.4778 20.1313C34.8907 20.1313 35.2898 20.1313 35.6752 20.1313C36.2533 20.1451 36.7212 19.9249 37.1341 19.5395C37.5333 19.1541 37.8085 18.6999 38.015 18.1907C38.5105 16.9932 38.6068 15.7132 38.6481 14.4332C38.7032 12.988 38.6206 11.5429 38.4417 10.1115C38.3315 9.24436 38.07 8.41855 37.5608 7.70284C37.1204 7.06972 36.5285 6.73939 35.7578 6.75316C35.2623 6.76692 34.7668 6.75316 34.2713 6.75316C33.5831 6.75316 32.8949 6.75316 32.2068 6.75316C32.138 6.75316 32.0554 6.75316 31.9728 6.75316C31.9728 13.0569 31.9728 19.333 31.9728 25.623C32.7848 25.6092 33.6106 25.6092 34.4778 25.6092ZM30.4726 20.4479C30.4726 14.2956 30.4726 8.15704 30.4726 2.0185C29.6192 2.0185 28.7796 2.0185 27.9263 2.0185C27.9263 3.71142 27.9263 5.39057 27.9263 7.04219C27.5134 7.04219 27.128 7.04219 26.7289 7.04219C26.2334 7.04219 25.8067 7.20736 25.4351 7.51015C24.8846 7.96435 24.5542 8.56995 24.3065 9.24436C23.8661 10.4693 23.7972 11.7493 23.756 13.0156C23.7147 14.3506 23.7972 15.6857 23.9624 17.0208C24.0588 17.819 24.2927 18.5898 24.7194 19.278C25.2011 20.0763 25.8893 20.4616 26.8115 20.4479C27.9538 20.4341 29.0824 20.4479 30.2248 20.4479C30.3212 20.4479 30.39 20.4479 30.4726 20.4479ZM40.0658 10.3317C40.1759 10.3317 40.2584 10.3317 40.341 10.3317C41.332 10.3317 42.323 10.3317 43.3139 10.3317C43.6305 10.3317 43.8232 10.5244 43.8232 10.8409C43.8232 11.1437 43.7131 11.3227 43.424 11.419C43.0249 11.5566 42.6258 11.653 42.2266 11.7906C40.8365 12.2586 39.9006 13.1394 39.584 14.6259C39.35 15.7545 39.4051 16.8556 39.6666 17.9567C39.7905 18.4659 39.9143 18.9752 40.2722 19.4018C40.8503 20.0763 41.6348 20.2965 42.4881 20.324C43.6856 20.3515 44.883 20.3378 46.0804 20.3378C46.1492 20.3378 46.2318 20.3378 46.3282 20.324C46.3282 20.2001 46.3282 20.1038 46.3282 20.0074C46.3282 16.718 46.3144 13.4147 46.3282 10.1252C46.3282 9.45081 46.1492 8.84522 45.8464 8.25338C45.3922 7.38628 44.7041 6.94585 43.6993 6.97338C42.5707 7.0009 41.4559 6.98714 40.3273 6.98714C40.2584 6.98714 40.1759 6.98714 40.0933 6.98714C40.0933 8.04693 40.0933 9.06543 40.0933 10.0839C40.0657 10.1528 40.0658 10.2216 40.0658 10.3317ZM19.0764 15.5618C19.1865 15.5618 19.269 15.5618 19.3516 15.5618C20.5353 15.5618 21.719 15.5618 22.8889 15.5618C23.054 15.5618 23.1091 15.5205 23.1091 15.3416C23.1091 14.6534 23.1091 13.979 23.1091 13.2908C23.0953 12.2723 23.0403 11.2401 22.8338 10.2353C22.6686 9.39576 22.3796 8.59747 21.8704 7.89553C20.9344 6.61552 18.8424 6.42283 17.7963 7.92306C17.5486 8.28091 17.3421 8.68005 17.177 9.0792C16.6815 10.2904 16.475 11.5704 16.4475 12.8642C16.42 14.3644 16.3374 15.8784 16.6953 17.3648C16.8742 18.1218 17.0944 18.8651 17.5624 19.4982C18.0166 20.1038 18.5809 20.4754 19.3929 20.4479C20.4389 20.4204 21.485 20.4341 22.531 20.4341C22.5998 20.4341 22.6824 20.4341 22.7512 20.4341C22.7512 19.1679 22.7512 17.9292 22.7512 16.6767C22.6549 16.6767 22.5861 16.6767 22.5035 16.6767C21.7052 16.6767 20.9069 16.6767 20.1086 16.6767C19.3929 16.6767 19.3103 16.7593 19.1039 15.8509C19.0764 15.782 19.0764 15.6857 19.0764 15.5618ZM53.1549 7.01467C51.985 7.01467 50.8426 7.0009 49.7002 7.01467C49.2185 7.01467 48.7781 7.16606 48.434 7.52392C48.0761 7.9093 47.7733 8.3222 47.5806 8.81769C47.2641 9.65726 47.2228 10.5106 47.2366 11.3915C47.2641 12.3687 47.4843 13.3046 47.966 14.1579C48.3789 14.8599 48.957 15.3416 49.8379 15.3278C49.9893 15.3278 50.1544 15.3278 50.3058 15.3278C50.4847 15.3416 50.6637 15.3278 50.8288 15.3691C51.1179 15.438 51.3106 15.7683 51.2693 16.0573C51.2142 16.4427 51.0628 16.5666 50.6637 16.5666C49.6314 16.5666 48.5991 16.5666 47.5669 16.5666C47.5118 16.5666 47.4568 16.5803 47.4292 16.5803C47.4292 17.8466 47.4292 19.0853 47.4292 20.3515C47.5256 20.3515 47.5944 20.3515 47.677 20.3515C48.7918 20.3515 49.8929 20.3515 51.0078 20.3515C51.3794 20.3515 51.7097 20.2552 52.0263 20.0763C52.8521 19.567 53.3613 18.81 53.554 17.8603C53.7605 16.8969 53.7329 15.9059 53.6779 14.9287C53.6366 14.1717 53.4577 13.4285 53.0585 12.7816C52.6869 12.1485 52.1639 11.653 51.3656 11.5979C50.994 11.5704 50.6086 11.5566 50.237 11.5429C49.9067 11.5291 49.714 11.3364 49.714 11.0061C49.714 10.6482 49.9755 10.3867 50.3609 10.3867C51.2142 10.3867 52.0676 10.3867 52.9209 10.3867C53.0035 10.3867 53.0861 10.3867 53.1686 10.3867C53.1549 9.24436 53.1549 8.14328 53.1549 7.01467ZM60.422 7.02843C60.3807 7.01467 60.367 7.01467 60.3394 7.01467C59.2246 7.01467 58.1235 7.0009 57.0087 7.01467C56.5132 7.02843 56.0452 7.1523 55.6736 7.53768C55.2056 8.03317 54.8616 8.56995 54.6964 9.2306C54.5588 9.75361 54.4899 10.2766 54.4762 10.8134C54.4486 11.9007 54.6 12.933 55.0818 13.9102C55.591 14.9287 56.3343 15.438 57.5454 15.3416C57.7244 15.3278 57.9033 15.3416 58.0685 15.3829C58.3575 15.4517 58.5639 15.782 58.5227 16.0711C58.4676 16.4427 58.3024 16.5803 57.9171 16.5803C56.8848 16.5803 55.8525 16.5803 54.8203 16.5803C54.7652 16.5803 54.7102 16.5941 54.6689 16.5941C54.6689 17.8603 54.6689 19.0991 54.6689 20.3653C54.7652 20.3653 54.834 20.3791 54.9028 20.3791C56.0177 20.3791 57.1188 20.3791 58.2336 20.3791C58.6052 20.3791 58.9493 20.2827 59.2659 20.09C59.9816 19.6496 60.4771 19.0165 60.6973 18.2182C61.0414 16.8969 61.0414 15.5481 60.8074 14.1992C60.7111 13.6212 60.5184 13.0569 60.1605 12.5751C59.7614 12.0521 59.2934 11.6392 58.5915 11.5979C58.2199 11.5704 57.8345 11.5566 57.4629 11.5429C57.1463 11.5291 56.9536 11.3227 56.9398 11.0061C56.9398 10.6482 57.2151 10.3867 57.6005 10.3867C58.4538 10.3867 59.2934 10.3867 60.1468 10.3867C60.2293 10.3867 60.3119 10.3867 60.3945 10.3867C60.422 9.24436 60.422 8.14328 60.422 7.02843ZM53.4301 22.9116C53.3889 23.0217 53.3751 23.0905 53.3476 23.1593C53.1549 23.5584 52.8658 23.875 52.5218 24.1503C52.4529 24.2053 52.3703 24.2604 52.4392 24.3705C52.5493 24.5494 52.6456 24.7421 52.7557 24.9486C52.9759 24.7696 53.1824 24.6182 53.4439 24.4118C53.4439 24.5632 53.4439 24.632 53.4439 24.7146C53.4439 25.0449 53.4577 25.389 53.4439 25.7193C53.4439 25.8845 53.499 25.9395 53.6641 25.9395C53.8706 25.9258 54.0908 25.9258 54.311 25.9395C54.4624 25.9533 54.5312 25.8982 54.5175 25.7331C54.5037 25.2789 54.5175 24.8384 54.5175 24.3843C54.5175 24.3154 54.5312 24.2329 54.5312 24.1227C54.7102 24.2329 54.8478 24.3154 55.013 24.398C55.0818 24.2329 55.1231 24.109 55.1919 23.9851C55.302 23.7924 55.2882 23.6548 55.0818 23.5171C54.8753 23.3933 54.6826 23.2281 54.6 22.9528C54.7652 22.9528 54.8891 22.9528 55.0267 22.9528C54.9854 23.2419 55.1506 23.2556 55.357 23.2419C55.8801 23.2281 56.3893 23.2281 56.9123 23.2419C56.9811 23.2419 57.05 23.3107 57.105 23.3382C57.0362 23.3657 56.9811 23.4346 56.9123 23.4346C56.5132 23.4483 56.1003 23.4346 55.7011 23.4483C55.6323 23.4483 55.5084 23.5309 55.5084 23.5722C55.4947 24.0539 55.4947 24.5356 55.4947 25.0449C55.7149 25.0449 55.9213 25.0449 56.114 25.0449C56.114 25.0724 56.1278 25.1 56.1278 25.1275C55.7424 25.2514 55.3433 25.3752 54.9441 25.4991C55.1781 25.6092 55.3983 25.7331 55.6323 25.8432C55.6874 25.8707 55.7562 25.8845 55.8112 25.8707C56.3205 25.7744 56.7884 25.5817 57.2426 25.3202C57.1188 25.2376 56.9949 25.1688 56.8848 25.1C56.8848 25.0862 56.8986 25.0724 56.8986 25.0587C57.3665 25.0587 57.8345 25.0587 58.3024 25.0587C58.3024 25.0724 58.3162 25.1 58.3162 25.1137C58.1786 25.1825 58.0547 25.2514 57.9033 25.3339C58.385 25.623 58.8805 25.8157 59.4035 25.9395C59.4448 25.9533 59.4999 25.9395 59.5412 25.912C59.7476 25.7744 59.9403 25.623 60.1468 25.4716C59.7751 25.3752 59.4035 25.2926 59.087 25.0587C59.2521 25.0311 59.4035 25.0174 59.5549 25.0311C59.665 25.0311 59.7201 24.9898 59.7201 24.866C59.7201 24.4531 59.7201 24.0264 59.7201 23.6135C59.7201 23.4896 59.6788 23.4483 59.5549 23.4483C59.3347 23.4483 59.1145 23.4483 58.8943 23.4483C58.6878 23.4483 58.4814 23.4483 58.2749 23.4483C58.2336 23.4483 58.1923 23.3933 58.151 23.3657C58.1923 23.3245 58.2199 23.2694 58.2611 23.2419C58.3024 23.2143 58.3713 23.2281 58.4263 23.2281C58.9218 23.2281 59.4173 23.2281 59.9265 23.2281C59.9954 23.2281 60.1192 23.2143 60.1192 23.1868C60.1468 23.063 60.1605 22.9116 60.133 22.7877C60.1192 22.7464 59.9816 22.7189 59.899 22.7189C58.4676 22.7189 57.0224 22.7189 55.591 22.7189C55.4121 22.7189 55.2882 22.7051 55.3295 22.4849C55.357 22.3335 55.2745 22.2922 55.1231 22.2922C54.9717 22.306 54.8203 22.2922 54.6689 22.2922C54.545 22.2922 54.5037 22.2371 54.5037 22.127C54.5037 21.8931 54.5037 21.6591 54.5037 21.4251C54.5037 21.2737 54.4624 21.2186 54.311 21.2186C54.0633 21.2324 53.8018 21.2462 53.5403 21.2737C53.4852 21.2737 53.4301 21.315 53.3889 21.3287C53.4026 21.4526 53.4301 21.549 53.4301 21.6453C53.4301 21.8518 53.4852 22.127 53.3751 22.2371C53.2787 22.3472 52.9897 22.2922 52.7833 22.2922C52.3566 22.306 52.4116 22.2371 52.3979 22.6776C52.3979 22.8565 52.4667 22.8978 52.6319 22.8978C52.8934 22.9116 53.1411 22.9116 53.4301 22.9116ZM36.0193 23.5997C36.033 23.5997 36.0606 23.6135 36.0743 23.6135C36.0881 23.6961 36.0881 23.7787 36.0881 23.8612C36.0881 24.4668 36.1018 25.0724 36.0881 25.678C36.0881 25.8982 36.1569 25.9671 36.3634 25.9533C36.5423 25.9395 36.7212 25.9395 36.9001 25.9533C37.1066 25.9671 37.1754 25.8982 37.1616 25.6918C37.1479 24.6733 37.1616 23.641 37.1616 22.6225C37.1616 22.3885 37.2442 22.2096 37.4094 22.0032C37.5333 22.1683 37.6296 22.2922 37.7259 22.4298C37.8085 22.5399 37.8911 22.5812 38.0287 22.5537C38.3866 22.4849 38.7582 22.4574 39.1298 22.4023C39.2812 22.3748 39.35 22.4298 39.3363 22.595C39.3225 22.7464 39.3225 22.8978 39.3363 23.0492C39.35 23.2143 39.2812 23.2556 39.1161 23.2556C38.6756 23.2419 38.2352 23.2556 37.7948 23.2556C37.258 23.2556 37.3406 23.1593 37.3268 23.7374C37.3268 23.9025 37.3819 23.9438 37.547 23.9438C38.07 23.9438 38.6068 23.9438 39.1298 23.9438C39.2812 23.9438 39.35 23.9989 39.35 24.1503C39.3363 24.4255 39.3363 24.7008 39.35 24.9761C39.3638 25.1688 39.295 25.2238 39.1023 25.2238C38.6481 25.2101 38.1939 25.2238 37.7397 25.2238C37.5608 25.2238 37.492 25.2789 37.5195 25.4578C37.5195 25.5129 37.5195 25.5541 37.5195 25.6092C37.492 25.8157 37.5746 25.8707 37.781 25.8707C39.2124 25.8569 40.6438 25.8707 42.0752 25.8707C42.5294 25.8707 42.4744 25.9258 42.4881 25.4578C42.4881 25.2651 42.4193 25.2238 42.2404 25.2238C41.7174 25.2376 41.2081 25.2238 40.6851 25.2238C40.5337 25.2238 40.4787 25.1688 40.4787 25.0311C40.4787 24.7421 40.4787 24.4531 40.4787 24.1503C40.4787 23.9989 40.5337 23.9438 40.6851 23.9438C41.1806 23.9576 41.6761 23.9438 42.1853 23.9438C42.6808 23.9438 42.5982 24.0126 42.6258 23.5171C42.6258 23.3245 42.5707 23.2556 42.378 23.2556C41.8137 23.2694 41.2494 23.2556 40.6851 23.2556C40.5337 23.2556 40.4787 23.2006 40.4787 23.063C40.4787 22.9116 40.4787 22.7602 40.4787 22.6088C40.4787 22.1821 40.4787 22.1958 40.8916 22.0995C41.2907 22.0032 41.6761 21.8793 42.1028 21.7692C41.8137 21.604 41.5797 21.4801 41.332 21.3563C41.2769 21.3287 41.1944 21.3287 41.1393 21.3425C40.107 21.5214 39.0748 21.7141 38.0425 21.8931C37.8636 21.9206 37.6709 21.9343 37.4369 21.9481C37.5333 21.7417 37.6021 21.5765 37.6847 21.3838C37.3406 21.3563 37.024 21.315 36.7074 21.3012C36.6524 21.3012 36.5698 21.37 36.5285 21.4389C36.3909 21.6591 36.2945 21.893 36.1294 22.0995C35.7991 22.5262 35.455 22.9391 35.1109 23.352C35.2898 23.5447 35.4825 23.7511 35.6889 23.9713C35.8128 23.8337 35.9092 23.7236 36.0193 23.5997ZM46.9062 21.1498C46.9062 21.3838 46.8925 21.549 46.9062 21.7141C46.92 21.9068 46.8649 21.9756 46.6585 21.9756C45.8602 21.9619 45.0619 21.9756 44.2636 21.9756C44.1398 21.9756 44.0434 21.9756 44.0434 22.1546C44.0434 22.9253 44.0434 23.6961 44.0434 24.4531C44.0434 24.5769 44.0985 24.632 44.2223 24.632C44.4563 24.632 44.6903 24.632 44.9243 24.632C45.0619 24.632 45.1307 24.5907 45.117 24.4531C45.1032 24.2879 45.172 24.2466 45.3372 24.2466C45.8051 24.2604 46.2731 24.2604 46.7411 24.2466C46.8925 24.2466 46.9613 24.2879 46.9475 24.4531C46.9338 24.8247 46.9475 25.1963 46.9475 25.5679C46.9475 25.7468 47.0163 25.8019 47.1815 25.8019C47.4017 25.7881 47.6219 25.7881 47.8421 25.8019C48.0073 25.8157 48.0761 25.7606 48.0624 25.5817C48.0486 25.2376 48.0624 24.8935 48.0624 24.5632C48.0624 24.2604 48.0624 24.2604 48.3514 24.2604C48.723 24.2604 49.1084 24.2604 49.48 24.2604C49.5488 24.2604 49.6314 24.2741 49.7002 24.2741C49.7278 24.4118 49.6727 24.5769 49.8792 24.5632C50.1682 24.5494 50.4572 24.5632 50.76 24.5494C50.8151 24.5494 50.9114 24.4531 50.9114 24.398C50.9252 23.641 50.9252 22.884 50.9114 22.1408C50.9114 22.0857 50.8288 22.0032 50.7875 22.0032C50.5398 21.9894 50.3058 22.0032 50.0581 22.0032C49.4662 22.0169 48.8606 22.0169 48.2688 22.0307C48.1449 22.0307 48.0899 21.9756 48.1037 21.8518C48.1037 21.6728 48.1174 21.4939 48.1037 21.315C48.1037 21.2599 48.0348 21.1498 47.9935 21.1498C47.6219 21.1223 47.2503 21.1361 46.9062 21.1498ZM56.2241 21.6315C55.9076 21.6315 55.6461 21.6453 55.3708 21.6315C55.1643 21.6178 55.1919 21.7554 55.1919 21.8931C55.1919 22.0169 55.1506 22.1683 55.3708 22.1546C55.5773 22.1408 55.7837 22.1683 55.9902 22.1546C56.1553 22.1408 56.2517 22.1958 56.2241 22.3748C56.1966 22.5812 56.2792 22.6225 56.4719 22.6225C57.2289 22.6088 57.9859 22.6088 58.7291 22.6225C58.9218 22.6225 59.0319 22.5812 58.9906 22.361C58.9631 22.1958 59.0457 22.1408 59.2108 22.1408C59.431 22.1546 59.6513 22.127 59.8715 22.1408C60.0779 22.1546 60.0917 22.0444 60.0917 21.8793C60.0917 21.7141 60.0779 21.604 59.8715 21.6178C59.5962 21.6315 59.3209 21.6178 59.0319 21.6178C59.0319 21.5077 59.0457 21.4251 59.0319 21.3563C59.0181 21.315 58.9631 21.2462 58.9218 21.2324C58.6052 21.2186 58.2887 21.2324 57.9583 21.2324C57.9583 21.37 57.9583 21.4801 57.9583 21.6178C57.7794 21.6178 57.6143 21.604 57.4629 21.6178C57.3115 21.6315 57.2426 21.5765 57.2426 21.4113C57.2426 21.3563 57.1876 21.2324 57.1463 21.2324C56.8297 21.2186 56.4994 21.2186 56.1828 21.2186C56.2104 21.3838 56.2241 21.4939 56.2241 21.6315Z" fill="#009444"/>
<path d="M15.7869 1C15.7869 7.52392 15.7869 13.9928 15.7869 20.4754C13.7086 20.4754 11.6303 20.4754 9.53822 20.4754C9.53822 19.333 9.53822 18.1769 9.53822 16.9932C10.6806 16.9932 11.823 16.9932 12.9929 16.9932C12.9929 16.8969 13.0066 16.8281 13.0066 16.7593C13.0066 15.782 13.0066 14.7911 13.0066 13.8139C13.0066 13.6349 12.9516 13.5799 12.7727 13.5799C11.7954 13.5936 10.8045 13.5799 9.82726 13.5799C9.73091 13.5799 9.64833 13.5799 9.52446 13.5799C9.52446 12.4237 9.52446 11.2814 9.52446 10.1252C8.38209 10.1252 7.281 10.1252 6.13863 10.1252C6.13863 11.2676 6.13863 12.41 6.13863 13.5661C6.02852 13.5661 5.94594 13.5799 5.86336 13.5799C4.87238 13.5799 3.86765 13.5799 2.87667 13.5799C2.71151 13.5799 2.64269 13.6212 2.64269 13.8001C2.65645 14.7911 2.65645 15.782 2.64269 16.773C2.64269 16.9382 2.69774 16.9932 2.86291 16.9932C3.85388 16.9795 4.85862 16.9932 5.8496 16.9932C5.93218 16.9932 6.01476 16.9932 6.1111 16.9932C6.1111 18.1631 6.1111 19.3055 6.1111 20.4754C4.0741 20.4754 2.0371 20.4754 -0.0136719 20.4754C9.16617e-05 14.0341 9.16617e-05 7.6065 9.16617e-05 1.11011C2.64269 3.51873 5.25776 5.91358 7.8866 8.3222C10.5154 5.89982 13.1305 3.46367 15.7869 1Z" fill="#BE1E2D"/>
<path d="M34.4777 25.6092C33.6106 25.6092 32.7848 25.6092 31.959 25.6092C31.959 19.3193 31.959 13.0431 31.959 6.7394C32.0416 6.7394 32.1104 6.7394 32.193 6.7394C32.8812 6.7394 33.5693 6.7394 34.2575 6.7394C34.753 6.7394 35.2485 6.7394 35.744 6.7394C36.5147 6.72563 37.1066 7.06972 37.547 7.68908C38.0563 8.41855 38.3178 9.2306 38.4279 10.0977C38.6068 11.5291 38.6894 12.9743 38.6343 14.4195C38.593 15.6995 38.4967 16.9795 38.0012 18.1769C37.7948 18.6861 37.5195 19.1403 37.1203 19.5257C36.7074 19.9111 36.2395 20.1313 35.6614 20.1176C35.276 20.1176 34.8769 20.1176 34.464 20.1176C34.4777 21.9481 34.4777 23.7787 34.4777 25.6092ZM34.519 16.2775C34.753 16.2775 34.9595 16.2775 35.1659 16.2775C35.455 16.2913 35.6752 16.1537 35.8541 15.9472C36.0606 15.6995 36.1156 15.4104 36.1156 15.1076C36.1294 14.0203 36.1294 12.933 36.1294 11.8457C36.1294 11.5704 36.1156 11.3089 36.0881 11.0336C36.0468 10.5794 35.7302 10.1665 35.3448 10.1252C35.0696 10.0977 34.7943 10.1252 34.5053 10.1252C34.519 12.176 34.519 14.213 34.519 16.2775Z" fill="#BE1E2D"/>
<path d="M30.4726 20.4479C30.39 20.4479 30.3212 20.4479 30.2386 20.4479C29.0963 20.4479 27.9676 20.4341 26.8253 20.4479C25.8894 20.4616 25.2012 20.0763 24.7332 19.278C24.3203 18.576 24.0726 17.819 23.9762 17.0208C23.8111 15.6995 23.7285 14.3644 23.7698 13.0156C23.8111 11.7356 23.8661 10.4556 24.3203 9.24436C24.5681 8.58371 24.8846 7.97811 25.4489 7.51015C25.8205 7.20736 26.2472 7.04219 26.7427 7.04219C27.1281 7.04219 27.5272 7.04219 27.9401 7.04219C27.9401 5.39057 27.9401 3.71142 27.9401 2.0185C28.7935 2.0185 29.633 2.0185 30.4864 2.0185C30.4726 8.15704 30.4726 14.2956 30.4726 20.4479ZM27.9814 10.4968C27.7474 10.4968 27.5272 10.4693 27.307 10.5106C27.1143 10.5381 26.9216 10.6069 26.7702 10.7171C26.495 10.9097 26.3986 11.2263 26.3986 11.5429C26.3848 12.9055 26.3848 14.2681 26.3986 15.6306C26.3986 16.1124 26.6876 16.539 27.0868 16.6216C27.3758 16.6767 27.6924 16.6354 27.9952 16.6354C27.9814 14.5984 27.9814 12.5614 27.9814 10.4968Z" fill="#BE1E2D"/>
<path d="M40.0657 10.3317C40.0657 10.2216 40.0657 10.139 40.0657 10.0702C40.0657 9.05167 40.0657 8.0194 40.0657 6.97338C40.1483 6.97338 40.2309 6.97338 40.2997 6.97338C41.4283 6.97338 42.5431 7.0009 43.6718 6.95961C44.6765 6.93208 45.3647 7.37252 45.8189 8.23962C46.1217 8.83145 46.3144 9.43705 46.3006 10.1115C46.2868 13.4009 46.3006 16.7042 46.3006 19.9937C46.3006 20.09 46.3006 20.1864 46.3006 20.3102C46.2043 20.3102 46.1354 20.324 46.0529 20.324C44.8554 20.324 43.658 20.3378 42.4606 20.3102C41.6072 20.2965 40.8365 20.0763 40.2446 19.3881C39.8868 18.9752 39.7629 18.4659 39.639 17.9429C39.3775 16.8418 39.3225 15.7407 39.5565 14.6121C39.873 13.1119 40.8089 12.2448 42.1991 11.7768C42.5982 11.6392 42.9973 11.5429 43.3965 11.4052C43.6855 11.3089 43.7956 11.13 43.7956 10.8272C43.7956 10.5106 43.6029 10.3179 43.2864 10.3179C42.2954 10.3179 41.3044 10.3179 40.3135 10.3179C40.2584 10.3317 40.1758 10.3317 40.0657 10.3317ZM43.7268 14.6672C43.6718 14.6947 43.6167 14.7085 43.5754 14.736C43.1212 15.0113 42.667 15.2866 42.1991 15.5481C41.9513 15.6857 41.8687 15.9059 41.8825 16.1674C41.8963 16.4152 42.0201 16.5253 42.2679 16.5253C42.5844 16.539 42.8872 16.539 43.2038 16.5528C43.369 16.5528 43.5479 16.5528 43.7268 16.5528C43.7268 15.9197 43.7268 15.3003 43.7268 14.6672Z" fill="#BE1E2D"/>
<path d="M19.0764 15.5618C19.0902 15.6857 19.0764 15.782 19.1039 15.8646C19.3104 16.773 19.4067 16.6904 20.1087 16.6904C20.9069 16.6904 21.7052 16.6904 22.5035 16.6904C22.5861 16.6904 22.6549 16.6904 22.7513 16.6904C22.7513 17.9429 22.7513 19.1816 22.7513 20.4479C22.6824 20.4479 22.5999 20.4479 22.531 20.4479C21.485 20.4479 20.439 20.4204 19.393 20.4616C18.5947 20.4892 18.0166 20.1313 17.5624 19.512C17.0944 18.8788 16.8742 18.1356 16.6953 17.3786C16.3375 15.8921 16.42 14.3782 16.4476 12.8779C16.4751 11.5842 16.6815 10.3042 17.177 9.09296C17.3422 8.69382 17.5486 8.29468 17.7964 7.93682C18.8424 6.4366 20.9345 6.62929 21.8704 7.9093C22.3796 8.61124 22.6687 9.40952 22.8338 10.2491C23.0403 11.2538 23.0954 12.2723 23.1091 13.3046C23.1229 13.9928 23.1091 14.6672 23.1091 15.3554C23.1091 15.5205 23.0541 15.5756 22.8889 15.5756C21.7052 15.5756 20.5216 15.5756 19.3517 15.5756C19.2691 15.5618 19.1865 15.5618 19.0764 15.5618ZM20.7831 12.4237C20.8381 11.8594 20.8106 11.3089 20.4665 10.8272C20.15 10.373 19.6132 10.3867 19.2966 10.8409C18.9663 11.3227 18.9801 11.8594 19.0351 12.4237C19.6269 12.4237 20.1912 12.4237 20.7831 12.4237Z" fill="#BE1E2D"/>
<path d="M53.1549 7.01467C53.1549 8.14328 53.1549 9.24436 53.1549 10.3867C53.0723 10.3867 52.9897 10.3867 52.9071 10.3867C52.0538 10.3867 51.2004 10.3867 50.3471 10.3867C49.9617 10.3867 49.7002 10.6482 49.7002 11.0061C49.7002 11.3364 49.8929 11.5291 50.2232 11.5429C50.5948 11.5566 50.9802 11.5704 51.3518 11.5979C52.1501 11.6667 52.6731 12.1622 53.0585 12.8091C53.4439 13.4698 53.6366 14.1992 53.6779 14.9562C53.7192 15.9334 53.7604 16.9244 53.554 17.8879C53.3475 18.8375 52.8521 19.5945 52.0262 20.1038C51.7234 20.2965 51.3794 20.3791 51.0077 20.3791C49.8929 20.3791 48.7918 20.3791 47.677 20.3791C47.6082 20.3791 47.5393 20.3791 47.4292 20.3791C47.4292 19.1128 47.4292 17.8603 47.4292 16.6079C47.4568 16.6079 47.5118 16.5941 47.5669 16.5941C48.5991 16.5941 49.6314 16.5941 50.6637 16.5941C51.049 16.5941 51.2004 16.4702 51.2693 16.0848C51.3105 15.782 51.1316 15.4655 50.8288 15.3967C50.6637 15.3554 50.4847 15.3554 50.3058 15.3554C50.1544 15.3554 49.9892 15.3554 49.8378 15.3554C48.957 15.3691 48.3789 14.8874 47.966 14.1855C47.4705 13.3321 47.2503 12.3962 47.2365 11.419C47.209 10.5381 47.2641 9.67103 47.5806 8.84522C47.7733 8.34973 48.0761 7.93682 48.434 7.55145C48.7781 7.17983 49.2322 7.04219 49.7002 7.04219C50.8426 7.0009 51.985 7.01467 53.1549 7.01467Z" fill="#BE1E2D"/>
<path d="M60.422 7.02843C60.422 8.14328 60.422 9.24436 60.422 10.373C60.3257 10.373 60.2431 10.373 60.1743 10.373C59.3209 10.373 58.4813 10.373 57.628 10.373C57.2289 10.373 56.9673 10.6345 56.9673 10.9923C56.9673 11.3089 57.1738 11.5153 57.4904 11.5291C57.862 11.5429 58.2474 11.5566 58.619 11.5842C59.3209 11.6255 59.8026 12.0384 60.188 12.5614C60.5459 13.0431 60.7386 13.6074 60.8349 14.1855C61.0689 15.5343 61.0689 16.8694 60.7248 18.2044C60.5183 19.0027 60.0229 19.6358 59.2934 20.0763C58.9768 20.269 58.6327 20.3653 58.2611 20.3653C57.1463 20.3653 56.0452 20.3653 54.9303 20.3653C54.8615 20.3653 54.7927 20.3653 54.6964 20.3515C54.6964 19.0991 54.6964 17.8466 54.6964 16.5803C54.7377 16.5803 54.7927 16.5666 54.8478 16.5666C55.88 16.5666 56.9123 16.5666 57.9446 16.5666C58.3299 16.5666 58.4951 16.4289 58.5502 16.0573C58.5914 15.7683 58.385 15.438 58.096 15.3691C57.9308 15.3278 57.7381 15.3141 57.5729 15.3278C56.348 15.438 55.6048 14.9149 55.1093 13.8964C54.6276 12.9192 54.4761 11.8732 54.5037 10.7996C54.5174 10.2629 54.5863 9.73985 54.7239 9.21683C54.8891 8.55618 55.2331 8.00564 55.7011 7.52392C56.059 7.13854 56.5269 7.0009 57.0362 7.0009C58.151 6.98714 59.2521 7.0009 60.3669 7.0009C60.3669 7.01467 60.3807 7.01467 60.422 7.02843Z" fill="#BE1E2D"/>
<path d="M53.4302 22.9116C53.1411 22.9116 52.8934 22.8978 52.6457 22.9116C52.4805 22.9116 52.4117 22.8703 52.4117 22.6913C52.4254 22.2509 52.3842 22.306 52.7971 22.306C53.0035 22.306 53.2788 22.361 53.3889 22.2509C53.499 22.1408 53.4302 21.8655 53.4439 21.6591C53.4439 21.5627 53.4164 21.4664 53.4027 21.3425C53.4439 21.3287 53.499 21.3012 53.5541 21.2875C53.8018 21.2599 54.0633 21.2599 54.3248 21.2324C54.4762 21.2186 54.5313 21.2875 54.5175 21.4389C54.5037 21.6728 54.5175 21.9068 54.5175 22.1408C54.5175 22.2509 54.5588 22.306 54.6827 22.306C54.8341 22.306 54.9855 22.306 55.1369 22.306C55.2745 22.2922 55.3571 22.3472 55.3433 22.4986C55.3158 22.7189 55.4259 22.7326 55.6048 22.7326C57.0362 22.7326 58.4814 22.7326 59.9128 22.7326C59.9954 22.7326 60.133 22.7602 60.1468 22.8014C60.1743 22.9253 60.1605 23.0629 60.133 23.2006C60.133 23.2281 60.0091 23.2419 59.9403 23.2419C59.4448 23.2419 58.9494 23.2419 58.4401 23.2419C58.3851 23.2419 58.3162 23.2281 58.2749 23.2556C58.2337 23.2832 58.1924 23.3382 58.1648 23.3795C58.2061 23.407 58.2474 23.4483 58.2887 23.4621C58.4952 23.4759 58.7016 23.4621 58.9081 23.4621C59.1283 23.4621 59.3485 23.4621 59.5687 23.4621C59.6926 23.4621 59.7339 23.5034 59.7339 23.6273C59.7339 24.0402 59.7339 24.4668 59.7339 24.8797C59.7339 25.0036 59.6788 25.0449 59.5687 25.0449C59.4173 25.0449 59.2659 25.0449 59.1008 25.0724C59.4173 25.3202 59.7889 25.389 60.1605 25.4853C59.9541 25.6367 59.7614 25.7881 59.555 25.9258C59.5137 25.9533 59.4586 25.9671 59.4173 25.9533C58.8943 25.8157 58.4126 25.623 57.9171 25.3477C58.0685 25.2651 58.2061 25.1963 58.33 25.1275C58.33 25.1137 58.3162 25.0862 58.3162 25.0724C57.8483 25.0724 57.3803 25.0724 56.9124 25.0724C56.9124 25.0862 56.8986 25.1 56.8986 25.1137C57.0087 25.1825 57.1326 25.2514 57.2564 25.3339C56.8022 25.5954 56.3343 25.7881 55.825 25.8845C55.77 25.8982 55.7012 25.8845 55.6461 25.8569C55.4121 25.7468 55.1919 25.6367 54.9579 25.5129C55.3708 25.389 55.7562 25.2651 56.1416 25.1412C56.1416 25.1137 56.1278 25.0862 56.1278 25.0587C55.9214 25.0587 55.7149 25.0587 55.5085 25.0587C55.5085 24.5494 55.5085 24.0677 55.5222 23.586C55.5222 23.5447 55.6461 23.4621 55.7149 23.4621C56.1141 23.4483 56.527 23.4621 56.9261 23.4483C56.9949 23.4483 57.05 23.3795 57.1188 23.352C57.05 23.3107 56.9812 23.2556 56.9261 23.2556C56.4031 23.2419 55.8939 23.2419 55.3708 23.2556C55.1644 23.2556 54.9992 23.2419 55.0405 22.9666C54.9029 22.9666 54.779 22.9666 54.6138 22.9666C54.6964 23.2419 54.8891 23.407 55.0956 23.5309C55.3158 23.6685 55.3158 23.7924 55.2057 23.9989C55.1369 24.1227 55.0956 24.2604 55.0267 24.4118C54.8616 24.3154 54.724 24.2328 54.545 24.1365C54.5313 24.2466 54.5313 24.3154 54.5313 24.398C54.5313 24.8522 54.5313 25.2926 54.5313 25.7468C54.5313 25.912 54.4762 25.9671 54.3248 25.9533C54.1184 25.9395 53.8981 25.9395 53.6779 25.9533C53.5128 25.9671 53.4439 25.912 53.4577 25.7331C53.4715 25.4028 53.4577 25.0587 53.4577 24.7283C53.4577 24.6458 53.4577 24.5769 53.4577 24.4255C53.21 24.6182 53.0035 24.7834 52.7695 24.9623C52.6594 24.7559 52.5493 24.5632 52.453 24.3842C52.3842 24.2741 52.453 24.2191 52.5355 24.164C52.8796 23.8888 53.1549 23.5584 53.3614 23.1731C53.3751 23.1042 53.3889 23.0217 53.4302 22.9116ZM56.5958 24.2604C56.6921 24.1778 56.7472 24.109 56.816 24.0539C56.7472 24.0126 56.6784 23.9438 56.6096 23.9301C56.527 23.9163 56.3756 23.8888 56.4031 24.0539C56.4169 24.1227 56.5132 24.1778 56.5958 24.2604ZM56.5958 24.8109C56.6921 24.7283 56.7472 24.6595 56.8022 24.6045C56.7334 24.5632 56.6646 24.4944 56.5958 24.4944C56.527 24.4944 56.4582 24.5632 56.4031 24.6045C56.4582 24.6733 56.5132 24.7283 56.5958 24.8109ZM58.3575 24.8109C58.4401 24.7421 58.5502 24.687 58.564 24.632C58.5777 24.4806 58.4401 24.4944 58.3575 24.5081C58.2887 24.5219 58.2199 24.5907 58.1648 24.632C58.2199 24.6733 58.2749 24.7283 58.3575 24.8109ZM58.3575 24.2053C58.4401 24.1503 58.4952 24.0952 58.564 24.0539C58.4952 24.0126 58.4263 23.9576 58.3575 23.9576C58.2887 23.9576 58.2199 24.0264 58.1648 24.0677C58.2199 24.0952 58.2749 24.1365 58.3575 24.2053Z" fill="black"/>
<path d="M36.0193 23.5997C35.9092 23.7098 35.7991 23.8337 35.6752 23.9576C35.4687 23.7374 35.276 23.5171 35.0971 23.3382C35.4412 22.9116 35.7991 22.5124 36.1156 22.0857C36.267 21.8793 36.3771 21.6453 36.5148 21.4251C36.5561 21.37 36.6386 21.2875 36.6937 21.2875C37.0103 21.3012 37.3268 21.3425 37.6709 21.37C37.5883 21.5627 37.5195 21.7279 37.4232 21.9343C37.6571 21.9068 37.8361 21.9068 38.0288 21.8793C39.061 21.7004 40.0933 21.5077 41.1256 21.3287C41.1944 21.315 41.2632 21.315 41.3182 21.3425C41.5522 21.4664 41.7862 21.604 42.089 21.7554C41.6623 21.8793 41.277 21.9894 40.8778 22.0857C40.4649 22.1821 40.4649 22.1683 40.4649 22.595C40.4649 22.7464 40.4787 22.8978 40.4649 23.0492C40.4649 23.2006 40.52 23.2419 40.6714 23.2419C41.2357 23.2419 41.8 23.2419 42.3643 23.2419C42.5707 23.2419 42.6258 23.3107 42.612 23.5034C42.5982 23.9989 42.6671 23.9301 42.1716 23.9301C41.6761 23.9301 41.1806 23.9301 40.6714 23.9301C40.52 23.9301 40.4511 23.9851 40.4649 24.1365C40.4787 24.4255 40.4649 24.7146 40.4649 25.0174C40.4649 25.1688 40.52 25.2238 40.6714 25.2101C41.1944 25.2101 41.7036 25.2101 42.2266 25.2101C42.4056 25.2101 42.4881 25.2514 42.4744 25.444C42.4606 25.912 42.5157 25.8569 42.0615 25.8569C40.6301 25.8569 39.1987 25.8569 37.7672 25.8569C37.5608 25.8569 37.4782 25.8019 37.5057 25.5954C37.5195 25.5404 37.5057 25.4991 37.5057 25.444C37.4782 25.2651 37.547 25.2101 37.726 25.2101C38.1802 25.2238 38.6344 25.2101 39.0885 25.2101C39.2812 25.2101 39.3501 25.155 39.3363 24.9623C39.3225 24.687 39.3225 24.4118 39.3363 24.1365C39.3363 23.9851 39.2812 23.9301 39.1161 23.9301C38.5931 23.9438 38.0563 23.9301 37.5333 23.9301C37.3819 23.9301 37.3131 23.8888 37.3131 23.7236C37.3268 23.1593 37.2442 23.2556 37.781 23.2419C38.2214 23.2419 38.6619 23.2419 39.1023 23.2419C39.2537 23.2419 39.3225 23.1868 39.3225 23.0354C39.3088 22.884 39.3088 22.7326 39.3225 22.5812C39.3363 22.4161 39.2675 22.361 39.1161 22.3885C38.7445 22.4436 38.3866 22.4711 38.015 22.5399C37.8774 22.5675 37.781 22.5262 37.7122 22.4161C37.6158 22.2784 37.5195 22.1408 37.3956 21.9894C37.2305 22.1821 37.1479 22.3748 37.1479 22.6088C37.1479 23.6273 37.1479 24.6595 37.1479 25.678C37.1479 25.8845 37.0791 25.9533 36.8864 25.9395C36.7075 25.9258 36.5285 25.9258 36.3496 25.9395C36.1432 25.9533 36.0606 25.8982 36.0743 25.6643C36.0881 25.0587 36.0743 24.4531 36.0743 23.8475C36.0743 23.7649 36.0606 23.6823 36.0606 23.5997C36.0606 23.6135 36.0468 23.6135 36.0193 23.5997Z" fill="black"/>
<path d="M46.9062 21.1498C47.2366 21.1361 47.6219 21.1223 47.9936 21.1223C48.0349 21.1223 48.0899 21.2324 48.1037 21.2875C48.1174 21.4664 48.1174 21.6453 48.1037 21.8242C48.1037 21.9481 48.145 22.0169 48.2688 22.0032C48.8607 21.9894 49.4663 21.9756 50.0581 21.9756C50.3058 21.9756 50.5398 21.9619 50.7876 21.9756C50.8289 21.9756 50.9114 22.072 50.9114 22.1133C50.9252 22.8703 50.9252 23.6273 50.9114 24.3705C50.9114 24.4255 50.8151 24.5081 50.76 24.5219C50.471 24.5356 50.182 24.5219 49.8792 24.5356C49.659 24.5356 49.7278 24.3842 49.7002 24.2466C49.6177 24.2466 49.5488 24.2328 49.48 24.2328C49.1084 24.2328 48.723 24.2328 48.3514 24.2328C48.0624 24.2328 48.0624 24.2329 48.0624 24.5356C48.0624 24.8797 48.0486 25.2238 48.0624 25.5542C48.0624 25.7331 48.0073 25.7744 47.8422 25.7744C47.6357 25.7744 47.4155 25.7744 47.1953 25.7744C47.0164 25.7881 46.9475 25.7331 46.9613 25.5404C46.9751 25.1688 46.9613 24.7972 46.9613 24.4255C46.9613 24.2604 46.9062 24.2191 46.7548 24.2191C46.2869 24.2329 45.8189 24.2329 45.351 24.2191C45.1996 24.2191 45.117 24.2604 45.1307 24.4255C45.1445 24.5632 45.0757 24.6182 44.9381 24.6045C44.7041 24.6045 44.4701 24.6045 44.2361 24.6045C44.1122 24.6045 44.0572 24.5632 44.0572 24.4255C44.0572 23.6548 44.0572 22.884 44.0572 22.127C44.0572 21.9481 44.1535 21.9481 44.2774 21.9481C45.0757 21.9481 45.874 21.9481 46.6723 21.9481C46.8787 21.9481 46.9338 21.8793 46.92 21.6866C46.9062 21.5627 46.9062 21.3838 46.9062 21.1498ZM45.9978 23.5584C46.2181 23.5584 46.4383 23.5584 46.6585 23.5584C46.8099 23.5584 46.8787 23.5171 46.8787 23.352C46.865 23.1868 46.8787 23.0217 46.8787 22.8565C46.8787 22.7189 46.8237 22.65 46.6723 22.65C46.397 22.65 46.1355 22.65 45.8602 22.65C45.1307 22.65 45.1445 22.65 45.1583 23.3657C45.1583 23.4896 45.1996 23.5447 45.3234 23.5447C45.5574 23.5447 45.7776 23.5584 45.9978 23.5584ZM48.902 23.5584C49.1359 23.5584 49.3562 23.5584 49.5901 23.5584C49.7002 23.5584 49.7415 23.5171 49.7415 23.407C49.7415 23.2281 49.7278 23.0354 49.7415 22.8565C49.7415 22.7189 49.7002 22.6638 49.5626 22.6638C49.2873 22.6638 49.0258 22.6638 48.7506 22.6638C48.0349 22.6638 48.0486 22.6638 48.0761 23.3933C48.0761 23.5171 48.1312 23.5722 48.2551 23.5584C48.4615 23.5447 48.6817 23.5584 48.902 23.5584Z" fill="black"/>
<path d="M56.2242 21.6315C56.2104 21.4939 56.1966 21.3838 56.1829 21.2462C56.4994 21.2462 56.816 21.2462 57.1463 21.2599C57.1876 21.2599 57.2427 21.37 57.2427 21.4389C57.2427 21.604 57.2977 21.6453 57.4629 21.6453C57.628 21.6315 57.7932 21.6453 57.9584 21.6453C57.9584 21.5077 57.9584 21.3976 57.9584 21.2599C58.2887 21.2599 58.6053 21.2599 58.9218 21.2599C58.9631 21.2599 59.0182 21.3287 59.0319 21.3838C59.0457 21.4526 59.0319 21.5352 59.0319 21.6453C59.3347 21.6453 59.61 21.6591 59.8715 21.6453C60.078 21.6315 60.1055 21.7417 60.0917 21.9068C60.0917 22.072 60.078 22.1821 59.8715 22.1683C59.6513 22.1546 59.4311 22.1683 59.2108 22.1683C59.0457 22.1546 58.9631 22.2096 58.9906 22.3885C59.0182 22.595 58.9218 22.65 58.7291 22.65C57.9721 22.6363 57.2151 22.6363 56.4719 22.65C56.2792 22.65 56.1829 22.595 56.2242 22.4023C56.2517 22.2234 56.1691 22.1683 55.9902 22.1821C55.7837 22.1958 55.5773 22.1821 55.3708 22.1821C55.1644 22.1958 55.1919 22.0444 55.1919 21.9206C55.1919 21.7967 55.1644 21.6591 55.3708 21.6591C55.6461 21.6453 55.9214 21.6315 56.2242 21.6315ZM57.6005 22.361C57.6969 22.361 57.7932 22.3748 57.8758 22.361C57.9308 22.3472 57.9859 22.2922 57.9997 22.2371C58.0134 22.2096 57.9308 22.127 57.8896 22.127C57.6969 22.1133 57.5042 22.1133 57.3252 22.127C57.284 22.127 57.2289 22.2096 57.2289 22.2509C57.2289 22.2922 57.284 22.361 57.339 22.361C57.4216 22.3748 57.5042 22.361 57.6005 22.361Z" fill="black"/>
<path d="M34.5191 16.2775C34.5191 14.213 34.5191 12.176 34.5191 10.1252C34.8081 10.1252 35.0834 10.0977 35.3587 10.1252C35.7303 10.1665 36.0606 10.5794 36.1019 11.0336C36.1294 11.3089 36.1432 11.5704 36.1432 11.8457C36.1432 12.933 36.1432 14.0203 36.1294 15.1076C36.1294 15.4104 36.0606 15.6995 35.8679 15.9472C35.689 16.1537 35.4688 16.2913 35.1797 16.2775C34.9595 16.2775 34.7393 16.2775 34.5191 16.2775Z" fill="#4C9C2E"/>
<path d="M27.9814 10.4968C27.9814 12.5476 27.9814 14.5846 27.9814 16.6354C27.6786 16.6354 27.362 16.6904 27.073 16.6216C26.6739 16.539 26.3848 16.1124 26.3848 15.6306C26.3711 14.2681 26.3711 12.9055 26.3848 11.5429C26.3848 11.2263 26.4949 10.9097 26.7565 10.7171C26.9078 10.6069 27.1143 10.5381 27.2932 10.5106C27.5272 10.4831 27.7474 10.4968 27.9814 10.4968Z" fill="#4C9C2E"/>
<path d="M43.7269 14.6672C43.7269 15.3003 43.7269 15.9197 43.7269 16.5528C43.5479 16.5528 43.3828 16.5528 43.2038 16.5528C42.8873 16.5528 42.5845 16.539 42.2679 16.5253C42.0202 16.5115 41.8963 16.4014 41.8825 16.1674C41.8688 15.9059 41.9514 15.6857 42.1991 15.5481C42.6671 15.2866 43.1213 15.0113 43.5755 14.736C43.6305 14.7085 43.6718 14.6947 43.7269 14.6672Z" fill="#4C9C2E"/>
<path d="M20.783 12.4237C20.1912 12.4237 19.6269 12.4237 19.035 12.4237C18.98 11.8732 18.98 11.3227 19.2965 10.8409C19.6131 10.3867 20.1499 10.373 20.4664 10.8272C20.8105 11.3089 20.8243 11.8594 20.783 12.4237Z" fill="#4C9C2E"/>
<path d="M56.5957 24.2604C56.4994 24.164 56.4168 24.1227 56.403 24.0677C56.3755 23.9025 56.5131 23.9301 56.6095 23.9438C56.6783 23.9576 56.7471 24.0264 56.8159 24.0677C56.7471 24.1227 56.6921 24.1778 56.5957 24.2604Z" fill="#4C9C2E"/>
<path d="M56.5957 24.8109C56.4994 24.7146 56.4444 24.6733 56.3893 24.6182C56.4581 24.5769 56.5269 24.5081 56.582 24.5081C56.6508 24.5081 56.7196 24.5769 56.7884 24.6182C56.7471 24.6733 56.6921 24.7283 56.5957 24.8109Z" fill="#4C9C2E"/>
<path d="M58.3575 24.8109C58.2749 24.7421 58.2061 24.687 58.151 24.632C58.2199 24.5907 58.2749 24.5219 58.3437 24.5081C58.4263 24.4944 58.5777 24.4806 58.5502 24.632C58.5502 24.687 58.4538 24.7283 58.3575 24.8109Z" fill="#4C9C2E"/>
<path d="M58.3575 24.2053C58.2749 24.1503 58.2061 24.109 58.151 24.0677C58.2199 24.0264 58.2887 23.9576 58.3437 23.9576C58.4126 23.9576 58.4814 24.0264 58.5502 24.0539C58.5089 24.0952 58.4401 24.1365 58.3575 24.2053Z" fill="#4C9C2E"/>
<path d="M45.9978 23.5584C45.7776 23.5584 45.5574 23.5584 45.3372 23.5584C45.1995 23.5584 45.172 23.5034 45.172 23.3795C45.1445 22.6638 45.1445 22.6638 45.874 22.6638C46.1492 22.6638 46.4107 22.6638 46.686 22.6638C46.8374 22.6638 46.8925 22.7189 46.8925 22.8703C46.8925 23.0354 46.8787 23.2006 46.8925 23.3657C46.9062 23.5309 46.8236 23.5722 46.6722 23.5722C46.4383 23.5447 46.218 23.5584 45.9978 23.5584Z" fill="#4C9C2E"/>
<path d="M48.9019 23.5584C48.6817 23.5584 48.4615 23.5584 48.2412 23.5584C48.1174 23.5584 48.0761 23.5171 48.0623 23.3933C48.0348 22.6638 48.021 22.6638 48.7367 22.6638C49.012 22.6638 49.2735 22.6638 49.5488 22.6638C49.6864 22.6638 49.7415 22.7189 49.7277 22.8565C49.7139 23.0354 49.7277 23.2281 49.7277 23.407C49.7277 23.5171 49.6864 23.5584 49.5763 23.5584C49.3561 23.5447 49.1359 23.5584 48.9019 23.5584Z" fill="#4C9C2E"/>
<path d="M57.6005 22.361C57.5042 22.361 57.4078 22.3748 57.3253 22.361C57.284 22.3472 57.2151 22.2784 57.2151 22.2509C57.2151 22.2096 57.284 22.127 57.3115 22.127C57.5042 22.1133 57.6969 22.1133 57.8758 22.127C57.9171 22.127 57.9859 22.2096 57.9859 22.2371C57.9721 22.2922 57.9171 22.3472 57.862 22.361C57.7932 22.3748 57.6969 22.361 57.6005 22.361Z" fill="#4C9C2E"/>
</g>
<defs>
<clipPath id="clip0">
<rect width="61" height="24.9671" fill="white"/>
</clipPath>
</defs>
</svg>
