<svg width="61" height="25" viewBox="0 0 61 25" fill="none" xmlns="http://www.w3.org/2000/svg">
  <path d="M16.1806 0C13.6263 2.36904 11.1117 4.71161 8.58381 7.04095C6.05595 4.72485 3.54132 2.43521 1.00023 0.105879C1.00023 6.35273 1.00023 12.5334 1.00023 18.7273C2.97222 18.7273 4.93098 18.7273 6.88974 18.7273C6.88974 17.6024 6.88974 16.5039 6.88974 15.3789C6.7971 15.3789 6.71769 15.3789 6.63828 15.3789C5.68537 15.3789 4.71923 15.3789 3.76632 15.3789C3.6075 15.3789 3.55456 15.326 3.55456 15.1672C3.55456 14.2142 3.56779 13.2613 3.55456 12.3084C3.55456 12.1364 3.62073 12.0967 3.77955 12.0967C4.73246 12.0967 5.69861 12.0967 6.65152 12.0967C6.73093 12.0967 6.81034 12.0834 6.91621 12.0834C6.91621 10.9717 6.91621 9.87321 6.91621 8.77471C8.01471 8.77471 9.08673 8.77471 10.172 8.77471C10.172 9.88644 10.172 10.9849 10.172 12.0967C10.2779 12.0967 10.3705 12.0967 10.4632 12.0967C11.4028 12.0967 12.3557 12.0967 13.2954 12.0967C13.4675 12.0967 13.5204 12.1496 13.5204 12.3217C13.5072 13.2613 13.5204 14.2142 13.5204 15.1539C13.5204 15.2201 13.5072 15.2863 13.5072 15.3789C12.3954 15.3789 11.2837 15.3789 10.1852 15.3789C10.1852 16.5171 10.1852 17.6156 10.1852 18.7273C12.1969 18.7273 14.1954 18.7273 16.1939 18.7273C16.1806 12.4937 16.1806 6.27332 16.1806 0ZM34.1536 23.6639C34.1536 21.8905 34.1536 20.1435 34.1536 18.3965C34.5506 18.3965 34.9344 18.3965 35.305 18.3965C35.8609 18.4097 36.3109 18.1979 36.7079 17.8274C37.0917 17.4568 37.3564 17.02 37.5549 16.5303C38.0314 15.3789 38.124 14.1481 38.1637 12.9172C38.2167 11.5276 38.1373 10.1379 37.9652 8.76148C37.8593 7.92768 37.6079 7.13359 37.1182 6.44538C36.6947 5.83657 36.1256 5.51894 35.3844 5.53217C34.908 5.54541 34.4315 5.53217 33.955 5.53217C33.2933 5.53217 32.6316 5.53217 31.9698 5.53217C31.9036 5.53217 31.8242 5.53217 31.7448 5.53217C31.7448 11.5937 31.7448 17.6288 31.7448 23.6772C32.5257 23.6639 33.3198 23.6639 34.1536 23.6639ZM30.3022 18.7009C30.3022 12.7849 30.3022 6.88213 30.3022 0.97938C29.4817 0.97938 28.6743 0.97938 27.8538 0.97938C27.8538 2.60727 27.8538 4.22192 27.8538 5.8101C27.4567 5.8101 27.0862 5.8101 26.7023 5.8101C26.2259 5.8101 25.8156 5.96892 25.4583 6.26009C24.9289 6.69684 24.6112 7.27917 24.373 7.92768C23.9495 9.10558 23.8833 10.3364 23.8436 11.554C23.8039 12.8378 23.8833 14.1216 24.0421 15.4054C24.1348 16.173 24.3598 16.9142 24.77 17.5759C25.2333 18.3435 25.895 18.7141 26.7817 18.7009C27.8802 18.6876 28.9655 18.7009 30.064 18.7009C30.1566 18.7009 30.2228 18.7009 30.3022 18.7009ZM39.5269 8.97324C39.6328 8.97324 39.7122 8.97324 39.7916 8.97324C40.7445 8.97324 41.6974 8.97324 42.6504 8.97324C42.9548 8.97324 43.14 9.15852 43.14 9.46293C43.14 9.75409 43.0342 9.92615 42.7562 10.0188C42.3724 10.1511 41.9886 10.2438 41.6048 10.3761C40.2681 10.8261 39.3681 11.6731 39.0637 13.1025C38.8387 14.1878 38.8917 15.2466 39.1431 16.3053C39.2622 16.795 39.3813 17.2847 39.7254 17.695C40.2813 18.3435 41.0357 18.5553 41.8563 18.5817C43.0077 18.6082 44.1591 18.595 45.3106 18.595C45.3767 18.595 45.4561 18.595 45.5488 18.5817C45.5488 18.4626 45.5488 18.37 45.5488 18.2773C45.5488 15.1142 45.5356 11.9378 45.5488 8.77471C45.5488 8.1262 45.3767 7.54387 45.0856 6.97477C44.6488 6.14098 43.9871 5.71746 43.0209 5.74393C41.9357 5.7704 40.8636 5.75716 39.7784 5.75716C39.7122 5.75716 39.6328 5.75716 39.5534 5.75716C39.5534 6.77625 39.5534 7.75563 39.5534 8.73501C39.5269 8.80118 39.5269 8.86736 39.5269 8.97324ZM19.3438 14.0025C19.4496 14.0025 19.529 14.0025 19.6085 14.0025C20.7467 14.0025 21.8848 14.0025 23.0098 14.0025C23.1686 14.0025 23.2216 13.9628 23.2216 13.7907C23.2216 13.129 23.2216 12.4805 23.2216 11.8187C23.2083 10.8394 23.1554 9.84674 22.9569 8.88059C22.7981 8.07327 22.5201 7.30564 22.0304 6.63067C21.1305 5.39982 19.1188 5.21454 18.1129 6.65714C17.8747 7.00124 17.6762 7.38505 17.5173 7.76886C17.0409 8.93353 16.8424 10.1644 16.8159 11.4085C16.7894 12.851 16.71 14.3069 17.0541 15.7362C17.2262 16.4642 17.4379 17.1788 17.8879 17.7877C18.3247 18.37 18.8673 18.7273 19.6482 18.7009C20.654 18.6744 21.6599 18.6876 22.6657 18.6876C22.7319 18.6876 22.8113 18.6876 22.8775 18.6876C22.8775 17.47 22.8775 16.2789 22.8775 15.0745C22.7848 15.0745 22.7186 15.0745 22.6392 15.0745C21.8716 15.0745 21.104 15.0745 20.3364 15.0745C19.6482 15.0745 19.5687 15.1539 19.3702 14.2804C19.3438 14.2142 19.3438 14.1216 19.3438 14.0025ZM52.1133 5.78363C50.9883 5.78363 49.8898 5.7704 48.7913 5.78363C48.3281 5.78363 47.9046 5.92922 47.5737 6.27332C47.2296 6.6439 46.9384 7.04095 46.7532 7.5174C46.4488 8.32473 46.4091 9.14529 46.4223 9.99232C46.4488 10.932 46.6605 11.832 47.1237 12.6525C47.5208 13.3275 48.0766 13.7907 48.9237 13.7775C49.0693 13.7775 49.2281 13.7775 49.3737 13.7775C49.5457 13.7907 49.7178 13.7775 49.8766 13.8172C50.1545 13.8834 50.3398 14.201 50.3001 14.4789C50.2472 14.8495 50.1016 14.9686 49.7178 14.9686C48.7252 14.9686 47.7325 14.9686 46.7399 14.9686C46.687 14.9686 46.634 14.9819 46.6076 14.9819C46.6076 16.1995 46.6076 17.3906 46.6076 18.6082C46.7002 18.6082 46.7664 18.6082 46.8458 18.6082C47.9178 18.6082 48.9766 18.6082 50.0486 18.6082C50.406 18.6082 50.7236 18.5156 51.028 18.3435C51.8221 17.8538 52.3118 17.1259 52.4971 16.2127C52.6956 15.2863 52.6691 14.3334 52.6162 13.3937C52.5765 12.6658 52.4044 11.9511 52.0206 11.329C51.6633 10.7202 51.1604 10.2438 50.3927 10.1908C50.0354 10.1644 49.6648 10.1511 49.3075 10.1379C48.9899 10.1247 48.8046 9.93938 48.8046 9.62174C48.8046 9.27764 49.056 9.02618 49.4266 9.02618C50.2472 9.02618 51.0677 9.02618 51.8883 9.02618C51.9677 9.02618 52.0471 9.02618 52.1265 9.02618C52.1133 7.92768 52.1133 6.86889 52.1133 5.78363ZM59.1013 5.79687C59.0616 5.78363 59.0484 5.78363 59.0219 5.78363C57.9499 5.78363 56.8911 5.7704 55.819 5.78363C55.3426 5.79687 54.8926 5.91598 54.5353 6.28656C54.0853 6.76301 53.7544 7.27917 53.5956 7.91445C53.4632 8.41737 53.3971 8.9203 53.3838 9.43646C53.3574 10.482 53.5029 11.4746 53.9662 12.4143C54.4559 13.3937 55.1705 13.8834 56.3352 13.7907C56.5073 13.7775 56.6793 13.7907 56.8381 13.8304C57.1161 13.8966 57.3146 14.2142 57.2749 14.4922C57.2219 14.8495 57.0631 14.9819 56.6926 14.9819C55.6999 14.9819 54.7073 14.9819 53.7147 14.9819C53.6618 14.9819 53.6088 14.9951 53.5691 14.9951C53.5691 16.2127 53.5691 17.4038 53.5691 18.6214C53.6618 18.6214 53.7279 18.6347 53.7941 18.6347C54.8661 18.6347 55.9249 18.6347 56.997 18.6347C57.3543 18.6347 57.6852 18.542 57.9896 18.3568C58.6778 17.9332 59.1542 17.3244 59.366 16.5568C59.6969 15.2863 59.6969 13.9892 59.4719 12.6922C59.3792 12.1364 59.1939 11.5937 58.8498 11.1305C58.466 10.6276 58.016 10.2305 57.3411 10.1908C56.9837 10.1644 56.6131 10.1511 56.2558 10.1379C55.9514 10.1247 55.7661 9.92615 55.7529 9.62174C55.7529 9.27764 56.0176 9.02618 56.3881 9.02618C57.2087 9.02618 58.016 9.02618 58.8366 9.02618C58.916 9.02618 58.9954 9.02618 59.0748 9.02618C59.1013 7.92768 59.1013 6.86889 59.1013 5.79687ZM52.378 21.0699C52.3383 21.1758 52.325 21.242 52.2986 21.3081C52.1133 21.6919 51.8354 21.9963 51.5045 22.261C51.4383 22.314 51.3589 22.3669 51.4251 22.4728C51.5309 22.6448 51.6236 22.8301 51.7295 23.0287C51.9412 22.8566 52.1398 22.711 52.3912 22.5125C52.3912 22.6581 52.3912 22.7243 52.3912 22.8037C52.3912 23.1213 52.4045 23.4522 52.3912 23.7698C52.3912 23.9286 52.4442 23.9816 52.603 23.9816C52.8015 23.9683 53.0133 23.9683 53.225 23.9816C53.3706 23.9948 53.4368 23.9419 53.4235 23.783C53.4103 23.3463 53.4235 22.9228 53.4235 22.486C53.4235 22.4199 53.4368 22.3404 53.4368 22.2346C53.6088 22.3404 53.7412 22.4199 53.9 22.4993C53.9662 22.3404 54.0059 22.2213 54.072 22.1022C54.1779 21.9169 54.1647 21.7846 53.9662 21.6522C53.7676 21.5331 53.5824 21.3743 53.5029 21.1096C53.6618 21.1096 53.7809 21.1096 53.9132 21.1096C53.8735 21.3875 54.0323 21.4008 54.2309 21.3875C54.7338 21.3743 55.2235 21.3743 55.7264 21.3875C55.7926 21.3875 55.8588 21.4537 55.9117 21.4802C55.8455 21.5066 55.7926 21.5728 55.7264 21.5728C55.3426 21.5861 54.9455 21.5728 54.5617 21.5861C54.4956 21.5861 54.3764 21.6655 54.3764 21.7052C54.3632 22.1684 54.3632 22.6316 54.3632 23.1213C54.575 23.1213 54.7735 23.1213 54.9588 23.1213C54.9588 23.1478 54.972 23.1742 54.972 23.2007C54.6014 23.3198 54.2176 23.4389 53.8338 23.5581C54.0588 23.6639 54.2706 23.783 54.4956 23.8889C54.5485 23.9154 54.6147 23.9286 54.6676 23.9154C55.1573 23.8228 55.6073 23.6375 56.044 23.386C55.9249 23.3066 55.8058 23.2404 55.6999 23.1742C55.6999 23.161 55.7132 23.1478 55.7132 23.1345C56.1632 23.1345 56.6131 23.1345 57.0631 23.1345C57.0631 23.1478 57.0764 23.1742 57.0764 23.1875C56.944 23.2537 56.8249 23.3198 56.6793 23.3992C57.1425 23.6772 57.619 23.8625 58.1219 23.9816C58.1616 23.9948 58.2146 23.9816 58.2543 23.9551C58.4528 23.8228 58.6381 23.6772 58.8366 23.5316C58.4793 23.4389 58.1219 23.3595 57.8175 23.1345C57.9763 23.1081 58.1219 23.0948 58.2675 23.1081C58.3734 23.1081 58.4263 23.0684 58.4263 22.9492C58.4263 22.5522 58.4263 22.1419 58.4263 21.7449C58.4263 21.6258 58.3866 21.5861 58.2675 21.5861C58.0557 21.5861 57.844 21.5861 57.6322 21.5861C57.4337 21.5861 57.2352 21.5861 57.0367 21.5861C56.997 21.5861 56.9572 21.5331 56.9175 21.5066C56.9572 21.4669 56.9837 21.414 57.0234 21.3875C57.0631 21.3611 57.1293 21.3743 57.1822 21.3743C57.6587 21.3743 58.1352 21.3743 58.6248 21.3743C58.691 21.3743 58.8101 21.3611 58.8101 21.3346C58.8366 21.2155 58.8498 21.0699 58.8234 20.9508C58.8101 20.9111 58.6778 20.8846 58.5984 20.8846C57.2219 20.8846 55.8323 20.8846 54.4559 20.8846C54.2838 20.8846 54.1647 20.8714 54.2044 20.6596C54.2309 20.514 54.1515 20.4743 54.0059 20.4743C53.8603 20.4876 53.7147 20.4743 53.5691 20.4743C53.45 20.4743 53.4103 20.4214 53.4103 20.3155C53.4103 20.0905 53.4103 19.8655 53.4103 19.6405C53.4103 19.495 53.3706 19.442 53.225 19.442C52.9868 19.4552 52.7353 19.4685 52.4839 19.4949C52.4309 19.4949 52.378 19.5347 52.3383 19.5479C52.3515 19.667 52.378 19.7596 52.378 19.8523C52.378 20.0508 52.4309 20.3155 52.325 20.4214C52.2324 20.5273 51.9545 20.4743 51.7559 20.4743C51.3457 20.4876 51.3986 20.4214 51.3854 20.8449C51.3854 21.017 51.4515 21.0567 51.6104 21.0567C51.8618 21.0699 52.1 21.0699 52.378 21.0699ZM35.6359 21.7316C35.6491 21.7316 35.6756 21.7449 35.6888 21.7449C35.702 21.8243 35.702 21.9037 35.702 21.9831C35.702 22.5654 35.7153 23.1478 35.702 23.7301C35.702 23.9419 35.7682 24.008 35.9667 23.9948C36.1388 23.9816 36.3109 23.9816 36.4829 23.9948C36.6814 24.008 36.7476 23.9419 36.7344 23.7433C36.7211 22.764 36.7344 21.7713 36.7344 20.792C36.7344 20.567 36.8138 20.3949 36.9726 20.1964C37.0917 20.3552 37.1844 20.4743 37.277 20.6067C37.3564 20.7126 37.4358 20.7523 37.5682 20.7258C37.9123 20.6596 38.2696 20.6331 38.627 20.5802C38.7725 20.5537 38.8387 20.6067 38.8255 20.7655C38.8122 20.9111 38.8122 21.0567 38.8255 21.2022C38.8387 21.3611 38.7725 21.4008 38.6137 21.4008C38.1902 21.3875 37.7667 21.4008 37.3432 21.4008C36.827 21.4008 36.9064 21.3081 36.8932 21.864C36.8932 22.0228 36.9461 22.0625 37.1049 22.0625C37.6079 22.0625 38.124 22.0625 38.627 22.0625C38.7725 22.0625 38.8387 22.1155 38.8387 22.261C38.8255 22.5257 38.8255 22.7904 38.8387 23.0551C38.8519 23.2404 38.7858 23.2934 38.6005 23.2934C38.1637 23.2801 37.727 23.2934 37.2902 23.2934C37.1182 23.2934 37.052 23.3463 37.0785 23.5183C37.0785 23.5713 37.0785 23.611 37.0785 23.6639C37.052 23.8625 37.1314 23.9154 37.3299 23.9154C38.7064 23.9022 40.0828 23.9154 41.4592 23.9154C41.896 23.9154 41.843 23.9683 41.8563 23.5183C41.8563 23.3331 41.7901 23.2934 41.618 23.2934C41.1151 23.3066 40.6254 23.2934 40.1225 23.2934C39.9769 23.2934 39.924 23.2404 39.924 23.1081C39.924 22.8301 39.924 22.5522 39.924 22.261C39.924 22.1155 39.9769 22.0625 40.1225 22.0625C40.5989 22.0757 41.0754 22.0625 41.5651 22.0625C42.0415 22.0625 41.9621 22.1287 41.9886 21.6522C41.9886 21.4669 41.9357 21.4008 41.7504 21.4008C41.2078 21.414 40.6651 21.4008 40.1225 21.4008C39.9769 21.4008 39.924 21.3478 39.924 21.2155C39.924 21.0699 39.924 20.9243 39.924 20.7787C39.924 20.3685 39.924 20.3817 40.321 20.289C40.7048 20.1964 41.0754 20.0773 41.4857 19.9714C41.2078 19.8126 40.9828 19.6935 40.7445 19.5744C40.6916 19.5479 40.6122 19.5479 40.5592 19.5611C39.5666 19.7332 38.574 19.9185 37.5814 20.0905C37.4093 20.117 37.2241 20.1302 36.9991 20.1435C37.0917 19.9449 37.1579 19.7861 37.2373 19.6008C36.9064 19.5744 36.602 19.5347 36.2976 19.5214C36.2447 19.5214 36.1653 19.5876 36.1256 19.6538C35.9932 19.8655 35.9006 20.0905 35.7418 20.289C35.4241 20.6993 35.0932 21.0964 34.7624 21.4934C34.9344 21.6787 35.1197 21.8772 35.3182 22.089C35.4374 21.9566 35.53 21.8508 35.6359 21.7316ZM46.1047 19.3758C46.1047 19.6008 46.0914 19.7596 46.1047 19.9185C46.1179 20.1038 46.065 20.1699 45.8664 20.1699C45.0988 20.1567 44.3312 20.1699 43.5636 20.1699C43.4444 20.1699 43.3518 20.1699 43.3518 20.342C43.3518 21.0831 43.3518 21.8243 43.3518 22.5522C43.3518 22.6713 43.4047 22.7243 43.5239 22.7243C43.7489 22.7243 43.9738 22.7243 44.1988 22.7243C44.3312 22.7243 44.3974 22.6846 44.3841 22.5522C44.3709 22.3934 44.4371 22.3537 44.5959 22.3537C45.0459 22.3669 45.4958 22.3669 45.9458 22.3537C46.0914 22.3537 46.1576 22.3934 46.1444 22.5522C46.1311 22.9095 46.1444 23.2669 46.1444 23.6242C46.1444 23.7963 46.2105 23.8492 46.3694 23.8492C46.5811 23.836 46.7929 23.836 47.0046 23.8492C47.1634 23.8625 47.2296 23.8095 47.2164 23.6375C47.2031 23.3066 47.2164 22.9757 47.2164 22.6581C47.2164 22.3669 47.2164 22.3669 47.4943 22.3669C47.8517 22.3669 48.2222 22.3669 48.5796 22.3669C48.6458 22.3669 48.7252 22.3801 48.7913 22.3801C48.8178 22.5125 48.7649 22.6713 48.9634 22.6581C49.2413 22.6448 49.5193 22.6581 49.8104 22.6448C49.8634 22.6448 49.956 22.5522 49.956 22.4993C49.9692 21.7713 49.9692 21.0434 49.956 20.3287C49.956 20.2758 49.8766 20.1964 49.8369 20.1964C49.5987 20.1832 49.3737 20.1964 49.1354 20.1964C48.5663 20.2096 47.984 20.2096 47.4149 20.2229C47.2958 20.2229 47.2429 20.1699 47.2561 20.0508C47.2561 19.8788 47.2693 19.7067 47.2561 19.5347C47.2561 19.4817 47.1899 19.3758 47.1502 19.3758C46.7929 19.3494 46.4355 19.3626 46.1047 19.3758ZM55.0647 19.8391C54.7603 19.8391 54.5088 19.8523 54.2441 19.8391C54.0456 19.8258 54.072 19.9582 54.072 20.0905C54.072 20.2096 54.0323 20.3552 54.2441 20.342C54.4426 20.3287 54.6411 20.3552 54.8397 20.342C54.9985 20.3287 55.0911 20.3817 55.0647 20.5537C55.0382 20.7523 55.1176 20.792 55.3029 20.792C56.0308 20.7787 56.7587 20.7787 57.4734 20.792C57.6587 20.792 57.7646 20.7523 57.7249 20.5405C57.6984 20.3817 57.7778 20.3287 57.9366 20.3287C58.1484 20.342 58.3601 20.3155 58.5719 20.3287C58.7704 20.342 58.7837 20.2361 58.7837 20.0773C58.7837 19.9185 58.7704 19.8126 58.5719 19.8258C58.3072 19.8391 58.0425 19.8258 57.7646 19.8258C57.7646 19.7199 57.7778 19.6405 57.7646 19.5744C57.7513 19.5347 57.6984 19.4685 57.6587 19.4552C57.3543 19.442 57.0499 19.4552 56.7323 19.4552C56.7323 19.5876 56.7323 19.6935 56.7323 19.8258C56.5602 19.8258 56.4014 19.8126 56.2558 19.8258C56.1102 19.8391 56.044 19.7861 56.044 19.6273C56.044 19.5744 55.9911 19.4552 55.9514 19.4552C55.647 19.442 55.3294 19.442 55.025 19.442C55.0514 19.6008 55.0647 19.7067 55.0647 19.8391Z" fill="#009444"/>
  <path d="M16.1839 0C16.1839 6.27333 16.1839 12.4937 16.1839 18.7273C14.1854 18.7273 12.1869 18.7273 10.1752 18.7273C10.1752 17.6288 10.1752 16.5171 10.1752 15.3789C11.2737 15.3789 12.3722 15.3789 13.4972 15.3789C13.4972 15.2863 13.5104 15.2201 13.5104 15.1539C13.5104 14.2142 13.5104 13.2613 13.5104 12.3217C13.5104 12.1496 13.4575 12.0967 13.2854 12.0967C12.3457 12.1099 11.3928 12.0967 10.4532 12.0967C10.3605 12.0967 10.2811 12.0967 10.162 12.0967C10.162 10.9849 10.162 9.88645 10.162 8.77472C9.0635 8.77472 8.00471 8.77472 6.90622 8.77472C6.90622 9.87321 6.90622 10.9717 6.90622 12.0834C6.80034 12.0834 6.72093 12.0967 6.64152 12.0967C5.68861 12.0967 4.72246 12.0967 3.76955 12.0967C3.61074 12.0967 3.54456 12.1364 3.54456 12.3084C3.5578 13.2613 3.5578 14.2142 3.54456 15.1672C3.54456 15.326 3.5975 15.3789 3.75632 15.3789C4.70923 15.3657 5.67537 15.3789 6.62828 15.3789C6.70769 15.3789 6.7871 15.3789 6.87975 15.3789C6.87975 16.5039 6.87975 17.6024 6.87975 18.7273C4.92099 18.7273 2.96223 18.7273 0.990234 18.7273C1.00347 12.5334 1.00347 6.35274 1.00347 0.105879C3.54456 2.42198 6.05918 4.72485 8.58704 7.04095C11.1149 4.71161 13.6295 2.36904 16.1839 0Z" fill="#BE1E2D"/>
  <path d="M34.1532 23.6639C33.3195 23.6639 32.5254 23.6639 31.7313 23.6639C31.7313 17.6156 31.7313 11.5805 31.7313 5.51892C31.8107 5.51892 31.8768 5.51892 31.9563 5.51892C32.618 5.51892 33.2797 5.51892 33.9415 5.51892C34.4179 5.51892 34.8944 5.51892 35.3709 5.51892C36.112 5.50569 36.6811 5.83656 37.1046 6.43213C37.5943 7.13358 37.8458 7.91443 37.9517 8.74823C38.1237 10.1247 38.2031 11.5143 38.1502 12.904C38.1105 14.1348 38.0178 15.3657 37.5414 16.5171C37.3429 17.0068 37.0782 17.4435 36.6944 17.8141C36.2973 18.1847 35.8473 18.3964 35.2915 18.3832C34.9209 18.3832 34.5371 18.3832 34.14 18.3832C34.1533 20.1435 34.1532 21.9037 34.1532 23.6639ZM34.193 14.6907C34.4179 14.6907 34.6165 14.6907 34.815 14.6907C35.0929 14.7039 35.3047 14.5716 35.4767 14.373C35.6753 14.1348 35.7282 13.8569 35.7282 13.5657C35.7414 12.5202 35.7414 11.4746 35.7414 10.4291C35.7414 10.1644 35.7282 9.9129 35.7017 9.6482C35.662 9.21145 35.3576 8.8144 34.987 8.7747C34.7224 8.74823 34.4577 8.7747 34.1797 8.7747C34.193 10.7467 34.193 12.7055 34.193 14.6907Z" fill="#BE1E2D"/>
  <path d="M30.3018 18.7009C30.2224 18.7009 30.1562 18.7009 30.0768 18.7009C28.9783 18.7009 27.893 18.6876 26.7945 18.7009C25.8946 18.7141 25.2328 18.3435 24.7828 17.5759C24.3858 16.9009 24.1476 16.173 24.0549 15.4054C23.8961 14.1348 23.8167 12.851 23.8564 11.554C23.8961 10.3232 23.949 9.09234 24.3858 7.92768C24.624 7.2924 24.9284 6.71007 25.4711 6.26008C25.8284 5.96891 26.2387 5.8101 26.7151 5.8101C27.0857 5.8101 27.4695 5.8101 27.8666 5.8101C27.8666 4.22191 27.8666 2.60726 27.8666 0.97937C28.6871 0.97937 29.4945 0.97937 30.315 0.97937C30.3018 6.88212 30.3018 12.7849 30.3018 18.7009ZM27.9063 9.13205C27.6813 9.13205 27.4695 9.10558 27.2578 9.14528C27.0725 9.17175 26.8872 9.23793 26.7416 9.34381C26.4769 9.52909 26.3843 9.8335 26.3843 10.1379C26.371 11.4481 26.371 12.7584 26.3843 14.0687C26.3843 14.5319 26.6622 14.9422 27.046 15.0216C27.3239 15.0745 27.6283 15.0348 27.9195 15.0348C27.9063 13.076 27.9063 11.1173 27.9063 9.13205Z" fill="#BE1E2D"/>
  <path d="M39.5264 8.97325C39.5264 8.86737 39.5264 8.78796 39.5264 8.72179C39.5264 7.74241 39.5264 6.74979 39.5264 5.74394C39.6058 5.74394 39.6852 5.74394 39.7514 5.74394C40.8367 5.74394 41.9087 5.77041 42.994 5.73071C43.9601 5.70424 44.6218 6.12775 45.0586 6.96155C45.3498 7.53065 45.535 8.11298 45.5218 8.76149C45.5086 11.9246 45.5218 15.101 45.5218 18.2641C45.5218 18.3568 45.5218 18.4494 45.5218 18.5685C45.4292 18.5685 45.363 18.5818 45.2836 18.5818C44.1322 18.5818 42.9807 18.595 41.8293 18.5685C41.0087 18.5553 40.2676 18.3435 39.6985 17.6818C39.3544 17.2847 39.2353 16.7951 39.1161 16.2921C38.8647 15.2333 38.8117 14.1746 39.0367 13.0893C39.3411 11.6467 40.2411 10.8129 41.5778 10.3629C41.9616 10.2306 42.3454 10.1379 42.7293 10.0056C43.0072 9.91293 43.1131 9.74087 43.1131 9.4497C43.1131 9.1453 42.9278 8.96001 42.6234 8.96001C41.6705 8.96001 40.7176 8.96001 39.7647 8.96001C39.7117 8.97325 39.6323 8.97325 39.5264 8.97325ZM43.0469 13.1422C42.994 13.1687 42.941 13.1819 42.9013 13.2084C42.4646 13.4731 42.0278 13.7378 41.5778 13.9893C41.3396 14.1216 41.2602 14.3334 41.2734 14.5848C41.2867 14.8231 41.4058 14.9289 41.644 14.9289C41.9484 14.9422 42.2396 14.9422 42.544 14.9554C42.7028 14.9554 42.8748 14.9554 43.0469 14.9554C43.0469 14.3466 43.0469 13.751 43.0469 13.1422Z" fill="#BE1E2D"/>
  <path d="M19.3435 14.0025C19.3567 14.1216 19.3435 14.2142 19.3699 14.2936C19.5684 15.1671 19.6611 15.0877 20.3361 15.0877C21.1037 15.0877 21.8713 15.0877 22.6389 15.0877C22.7183 15.0877 22.7845 15.0877 22.8772 15.0877C22.8772 16.2921 22.8772 17.4832 22.8772 18.7009C22.811 18.7009 22.7316 18.7009 22.6654 18.7009C21.6596 18.7009 20.6537 18.6744 19.6479 18.7141C18.8802 18.7406 18.3244 18.3965 17.8876 17.8009C17.4376 17.1921 17.2259 16.4774 17.0538 15.7495C16.7097 14.3201 16.7891 12.8643 16.8156 11.4217C16.8421 10.1776 17.0406 8.94676 17.517 7.78209C17.6759 7.39828 17.8744 7.01447 18.1126 6.67036C19.1185 5.22776 21.1302 5.41305 22.0301 6.64389C22.5198 7.31887 22.7978 8.08649 22.9566 8.89382C23.1551 9.85996 23.208 10.8393 23.2213 11.832C23.2345 12.4937 23.2213 13.1422 23.2213 13.804C23.2213 13.9628 23.1683 14.0157 23.0095 14.0157C21.8713 14.0157 20.7331 14.0157 19.6082 14.0157C19.5287 14.0025 19.4493 14.0025 19.3435 14.0025ZM20.9846 10.9849C21.0375 10.4423 21.011 9.9129 20.6802 9.44968C20.3758 9.01293 19.8596 9.02617 19.5552 9.46292C19.2376 9.92614 19.2508 10.4423 19.3037 10.9849C19.8728 10.9849 20.4155 10.9849 20.9846 10.9849Z" fill="#BE1E2D"/>
  <path d="M52.1129 5.78363C52.1129 6.86889 52.1129 7.92768 52.1129 9.02617C52.0335 9.02617 51.9541 9.02617 51.8747 9.02617C51.0541 9.02617 50.2336 9.02617 49.413 9.02617C49.0424 9.02617 48.7909 9.27763 48.7909 9.62174C48.7909 9.93938 48.9762 10.1247 49.2939 10.1379C49.6512 10.1511 50.0218 10.1644 50.3791 10.1908C51.1468 10.257 51.6497 10.7335 52.0203 11.3555C52.3908 11.9908 52.5761 12.6922 52.6158 13.4201C52.6555 14.3598 52.6952 15.3127 52.4967 16.2392C52.2982 17.1524 51.8217 17.8803 51.0276 18.37C50.7365 18.5553 50.4056 18.6347 50.0483 18.6347C48.9762 18.6347 47.9174 18.6347 46.8454 18.6347C46.7792 18.6347 46.7131 18.6347 46.6072 18.6347C46.6072 17.4171 46.6072 16.2127 46.6072 15.0083C46.6337 15.0083 46.6866 14.9951 46.7395 14.9951C47.7322 14.9951 48.7248 14.9951 49.7174 14.9951C50.088 14.9951 50.2335 14.876 50.2997 14.5054C50.3394 14.2142 50.1674 13.9098 49.8762 13.8437C49.7174 13.804 49.5453 13.804 49.3733 13.804C49.2277 13.804 49.0689 13.804 48.9233 13.804C48.0763 13.8172 47.5204 13.354 47.1234 12.679C46.6469 11.8584 46.4351 10.9585 46.4219 10.0188C46.3954 9.17175 46.4484 8.33796 46.7528 7.54386C46.9381 7.06741 47.2292 6.67036 47.5733 6.29979C47.9042 5.94245 48.341 5.8101 48.7909 5.8101C49.8894 5.77039 50.9879 5.78363 52.1129 5.78363Z" fill="#BE1E2D"/>
  <path d="M59.1009 5.79686C59.1009 6.86889 59.1009 7.92768 59.1009 9.01294C59.0083 9.01294 58.9289 9.01294 58.8627 9.01294C58.0421 9.01294 57.2348 9.01294 56.4142 9.01294C56.0304 9.01294 55.779 9.2644 55.779 9.60851C55.779 9.91291 55.9775 10.1114 56.2819 10.1247C56.6392 10.1379 57.0098 10.1511 57.3671 10.1776C58.0421 10.2173 58.5053 10.6144 58.8759 11.1173C59.22 11.5805 59.4053 12.1231 59.498 12.679C59.7229 13.976 59.7229 15.2598 59.3921 16.5436C59.1936 17.3112 58.7171 17.92 58.0157 18.3435C57.7113 18.5288 57.3804 18.6215 57.023 18.6215C55.951 18.6215 54.8922 18.6215 53.8202 18.6215C53.754 18.6215 53.6878 18.6215 53.5952 18.6082C53.5952 17.4038 53.5952 16.1995 53.5952 14.9819C53.6349 14.9819 53.6878 14.9686 53.7408 14.9686C54.7334 14.9686 55.726 14.9686 56.7186 14.9686C57.0892 14.9686 57.248 14.8363 57.301 14.4789C57.3407 14.201 57.1421 13.8834 56.8642 13.8172C56.7054 13.7775 56.5201 13.7643 56.3613 13.7775C55.1834 13.8834 54.4687 13.3804 53.9922 12.4011C53.529 11.4614 53.3834 10.4555 53.4099 9.42322C53.4231 8.90706 53.4893 8.40413 53.6217 7.90121C53.7805 7.26593 54.1114 6.73654 54.5613 6.27332C54.9055 5.90274 55.3554 5.77039 55.8451 5.77039C56.9172 5.75716 57.9759 5.77039 59.048 5.77039C59.048 5.78363 59.0612 5.78363 59.1009 5.79686Z" fill="#BE1E2D"/>
  <path d="M52.3777 21.0699C52.0997 21.0699 51.8615 21.0567 51.6233 21.0699C51.4645 21.0699 51.3983 21.0302 51.3983 20.8581C51.4115 20.4346 51.3718 20.4876 51.7689 20.4876C51.9674 20.4876 52.2321 20.5405 52.338 20.4346C52.4438 20.3288 52.3777 20.0641 52.3909 19.8655C52.3909 19.7729 52.3644 19.6802 52.3512 19.5611C52.3909 19.5479 52.4438 19.5214 52.4968 19.5082C52.735 19.4817 52.9865 19.4817 53.2379 19.4553C53.3835 19.442 53.4365 19.5082 53.4232 19.6538C53.41 19.8788 53.4232 20.1038 53.4232 20.3288C53.4232 20.4346 53.4629 20.4876 53.582 20.4876C53.7276 20.4876 53.8732 20.4876 54.0188 20.4876C54.1511 20.4743 54.2305 20.5273 54.2173 20.6729C54.1908 20.8846 54.2967 20.8979 54.4688 20.8979C55.8452 20.8979 57.2349 20.8979 58.6113 20.8979C58.6907 20.8979 58.823 20.9243 58.8363 20.964C58.8627 21.0831 58.8495 21.2155 58.823 21.3478C58.823 21.3743 58.7039 21.3875 58.6378 21.3875C58.1613 21.3875 57.6848 21.3875 57.1952 21.3875C57.1422 21.3875 57.076 21.3743 57.0363 21.4008C56.9966 21.4272 56.9569 21.4802 56.9305 21.5199C56.9702 21.5464 57.0099 21.5861 57.0496 21.5993C57.2481 21.6125 57.4466 21.5993 57.6451 21.5993C57.8569 21.5993 58.0687 21.5993 58.2804 21.5993C58.3995 21.5993 58.4392 21.639 58.4392 21.7581C58.4392 22.1552 58.4392 22.5654 58.4392 22.9625C58.4392 23.0816 58.3863 23.1213 58.2804 23.1213C58.1348 23.1213 57.9892 23.1213 57.8304 23.1478C58.1348 23.386 58.4922 23.4522 58.8495 23.5448C58.651 23.6904 58.4657 23.836 58.2672 23.9683C58.2275 23.9948 58.1745 24.008 58.1348 23.9948C57.6319 23.8625 57.1687 23.6772 56.6922 23.4125C56.8378 23.3331 56.9702 23.2669 57.0893 23.2007C57.0893 23.1875 57.076 23.161 57.076 23.1478C56.6261 23.1478 56.1761 23.1478 55.7261 23.1478C55.7261 23.161 55.7128 23.1742 55.7128 23.1875C55.8187 23.2537 55.9378 23.3198 56.057 23.3992C55.6202 23.6507 55.1702 23.836 54.6805 23.9286C54.6276 23.9419 54.5614 23.9286 54.5085 23.9022C54.2835 23.7963 54.0717 23.6904 53.8467 23.5713C54.2438 23.4522 54.6144 23.3331 54.9849 23.214C54.9849 23.1875 54.9717 23.161 54.9717 23.1345C54.7732 23.1345 54.5747 23.1345 54.3761 23.1345C54.3761 22.6449 54.3761 22.1816 54.3894 21.7184C54.3894 21.6787 54.5085 21.5993 54.5746 21.5993C54.9585 21.5861 55.3555 21.5993 55.7393 21.5861C55.8055 21.5861 55.8584 21.5199 55.9246 21.4934C55.8584 21.4537 55.7923 21.4008 55.7393 21.4008C55.2364 21.3875 54.7467 21.3875 54.2438 21.4008C54.0453 21.4008 53.8864 21.3875 53.9261 21.1228C53.7938 21.1228 53.6747 21.1228 53.5159 21.1228C53.5953 21.3875 53.7806 21.5464 53.9791 21.6655C54.1908 21.7978 54.1908 21.9169 54.085 22.1155C54.0188 22.2346 53.9791 22.3669 53.9129 22.5125C53.7541 22.4199 53.6217 22.3404 53.4497 22.2478C53.4365 22.3537 53.4365 22.4199 53.4365 22.4993C53.4365 22.936 53.4365 23.3595 53.4365 23.7963C53.4365 23.9551 53.3835 24.008 53.2379 23.9948C53.0394 23.9816 52.8276 23.9816 52.6159 23.9948C52.4571 24.008 52.3909 23.9551 52.4041 23.783C52.4174 23.4654 52.4041 23.1345 52.4041 22.8169C52.4041 22.7375 52.4041 22.6713 52.4041 22.5257C52.1659 22.711 51.9674 22.8698 51.7424 23.0419C51.6365 22.8434 51.5306 22.6581 51.438 22.486C51.3718 22.3802 51.438 22.3272 51.5174 22.2743C51.8483 22.0096 52.113 21.6919 52.3115 21.3214C52.3247 21.2552 52.338 21.1758 52.3777 21.0699ZM55.4217 22.3669C55.5143 22.2875 55.5673 22.2213 55.6334 22.1684C55.5673 22.1287 55.5011 22.0625 55.4349 22.0493C55.3555 22.036 55.2099 22.0096 55.2364 22.1684C55.2496 22.2346 55.3423 22.2875 55.4217 22.3669ZM55.4217 22.8963C55.5143 22.8169 55.5673 22.7507 55.6202 22.6978C55.554 22.6581 55.4879 22.5919 55.4217 22.5919C55.3555 22.5919 55.2893 22.6581 55.2364 22.6978C55.2893 22.764 55.3423 22.8169 55.4217 22.8963ZM57.1157 22.8963C57.1952 22.8301 57.301 22.7772 57.3143 22.7243C57.3275 22.5787 57.1952 22.5919 57.1157 22.6051C57.0496 22.6184 56.9834 22.6846 56.9305 22.7243C56.9834 22.764 57.0363 22.8169 57.1157 22.8963ZM57.1157 22.314C57.1952 22.261 57.2481 22.2081 57.3143 22.1684C57.2481 22.1287 57.1819 22.0758 57.1157 22.0758C57.0496 22.0758 56.9834 22.1419 56.9305 22.1816C56.9834 22.2081 57.0363 22.2478 57.1157 22.314Z" fill="#009444"/>
  <path d="M35.6354 21.7316C35.5295 21.8375 35.4237 21.9566 35.3045 22.0757C35.106 21.864 34.9207 21.6522 34.7487 21.4802C35.0795 21.0699 35.4237 20.6861 35.7281 20.2758C35.8736 20.0773 35.9795 19.8523 36.1119 19.6405C36.1516 19.5876 36.231 19.5082 36.2839 19.5082C36.5883 19.5214 36.8927 19.5611 37.2236 19.5876C37.1442 19.7729 37.078 19.9317 36.9854 20.1302C37.2104 20.1037 37.3824 20.1037 37.5677 20.0773C38.5603 19.9052 39.5529 19.7199 40.5455 19.5479C40.6117 19.5346 40.6779 19.5346 40.7308 19.5611C40.9558 19.6802 41.1808 19.8126 41.472 19.9582C41.0617 20.0773 40.6911 20.1832 40.3073 20.2758C39.9103 20.3684 39.9103 20.3552 39.9103 20.7655C39.9103 20.9111 39.9235 21.0567 39.9103 21.2022C39.9103 21.3478 39.9632 21.3875 40.1088 21.3875C40.6514 21.3875 41.1941 21.3875 41.7367 21.3875C41.9352 21.3875 41.9881 21.4537 41.9749 21.639C41.9617 22.1155 42.0278 22.0493 41.5514 22.0493C41.0749 22.0493 40.5985 22.0493 40.1088 22.0493C39.9632 22.0493 39.897 22.1022 39.9103 22.2478C39.9235 22.5257 39.9103 22.8037 39.9103 23.0948C39.9103 23.2404 39.9632 23.2934 40.1088 23.2801C40.6117 23.2801 41.1014 23.2801 41.6043 23.2801C41.7764 23.2801 41.8558 23.3198 41.8426 23.5051C41.8293 23.9551 41.8823 23.9022 41.4455 23.9022C40.0691 23.9022 38.6927 23.9022 37.3162 23.9022C37.1177 23.9022 37.0383 23.8492 37.0648 23.6507C37.078 23.5978 37.0648 23.5581 37.0648 23.5051C37.0383 23.3331 37.1045 23.2801 37.2765 23.2801C37.7133 23.2934 38.15 23.2801 38.5868 23.2801C38.7721 23.2801 38.8382 23.2272 38.825 23.0419C38.8118 22.7772 38.8118 22.5125 38.825 22.2478C38.825 22.1022 38.7721 22.0493 38.6133 22.0493C38.1103 22.0625 37.5942 22.0493 37.0912 22.0493C36.9457 22.0493 36.8795 22.0096 36.8795 21.8508C36.8927 21.3081 36.8133 21.4008 37.3295 21.3875C37.753 21.3875 38.1765 21.3875 38.6 21.3875C38.7456 21.3875 38.8118 21.3346 38.8118 21.189C38.7985 21.0434 38.7985 20.8978 38.8118 20.7523C38.825 20.5934 38.7588 20.5405 38.6133 20.567C38.2559 20.6199 37.9118 20.6464 37.5545 20.7126C37.4221 20.739 37.3295 20.6993 37.2633 20.5934C37.1707 20.4611 37.078 20.3287 36.9589 20.1832C36.8001 20.3684 36.7207 20.5537 36.7207 20.7787C36.7207 21.7581 36.7207 22.7507 36.7207 23.7301C36.7207 23.9286 36.6545 23.9948 36.4692 23.9816C36.2972 23.9683 36.1251 23.9683 35.953 23.9816C35.7545 23.9948 35.6751 23.9419 35.6883 23.7169C35.7016 23.1345 35.6883 22.5522 35.6883 21.9699C35.6883 21.8905 35.6751 21.811 35.6751 21.7316C35.6751 21.7449 35.6619 21.7449 35.6354 21.7316Z" fill="#009444"/>
  <path d="M46.1043 19.3758C46.422 19.3626 46.7925 19.3494 47.1499 19.3494C47.1896 19.3494 47.2425 19.4552 47.2557 19.5082C47.269 19.6802 47.269 19.8523 47.2557 20.0243C47.2557 20.1435 47.2955 20.2096 47.4146 20.1964C47.9837 20.1832 48.566 20.1699 49.1351 20.1699C49.3733 20.1699 49.5983 20.1567 49.8365 20.1699C49.8762 20.1699 49.9557 20.2626 49.9557 20.3023C49.9689 21.0302 49.9689 21.7581 49.9557 22.4728C49.9557 22.5257 49.863 22.6051 49.8101 22.6184C49.5321 22.6316 49.2542 22.6184 48.963 22.6316C48.7513 22.6316 48.8175 22.486 48.791 22.3537C48.7116 22.3537 48.6454 22.3404 48.5792 22.3404C48.2219 22.3404 47.8513 22.3404 47.494 22.3404C47.216 22.3404 47.216 22.3404 47.216 22.6316C47.216 22.9625 47.2028 23.2933 47.216 23.611C47.216 23.783 47.1631 23.8227 47.0043 23.8227C46.8058 23.8227 46.594 23.8227 46.3822 23.8227C46.2102 23.836 46.144 23.783 46.1573 23.5978C46.1705 23.2404 46.1573 22.8831 46.1573 22.5257C46.1573 22.3669 46.1043 22.3272 45.9587 22.3272C45.5087 22.3404 45.0588 22.3404 44.6088 22.3272C44.4632 22.3272 44.3838 22.3669 44.397 22.5257C44.4103 22.6581 44.3441 22.711 44.2117 22.6978C43.9867 22.6978 43.7617 22.6978 43.5368 22.6978C43.4176 22.6978 43.3647 22.6581 43.3647 22.5257C43.3647 21.7846 43.3647 21.0434 43.3647 20.3155C43.3647 20.1435 43.4573 20.1435 43.5765 20.1435C44.3441 20.1435 45.1117 20.1435 45.8793 20.1435C46.0778 20.1435 46.1308 20.0773 46.1176 19.892C46.1043 19.7729 46.1043 19.6008 46.1043 19.3758ZM45.2308 21.6919C45.4426 21.6919 45.6543 21.6919 45.8661 21.6919C46.0117 21.6919 46.0778 21.6522 46.0778 21.4934C46.0646 21.3346 46.0778 21.1758 46.0778 21.017C46.0778 20.8846 46.0249 20.8184 45.8793 20.8184C45.6146 20.8184 45.3632 20.8184 45.0985 20.8184C44.397 20.8184 44.4103 20.8184 44.4235 21.5066C44.4235 21.6258 44.4632 21.6787 44.5823 21.6787C44.8073 21.6787 45.0191 21.6919 45.2308 21.6919ZM48.0234 21.6919C48.2484 21.6919 48.4601 21.6919 48.6851 21.6919C48.791 21.6919 48.8307 21.6522 48.8307 21.5464C48.8307 21.3743 48.8175 21.189 48.8307 21.017C48.8307 20.8846 48.791 20.8317 48.6586 20.8317C48.3939 20.8317 48.1425 20.8317 47.8778 20.8317C47.1896 20.8317 47.2028 20.8317 47.2293 21.5331C47.2293 21.6522 47.2822 21.7052 47.4013 21.6919C47.5999 21.6787 47.8116 21.6919 48.0234 21.6919Z" fill="#009444"/>
  <path d="M55.0644 19.8391C55.0511 19.7067 55.0379 19.6008 55.0247 19.4685C55.3291 19.4685 55.6335 19.4685 55.9511 19.4817C55.9908 19.4817 56.0438 19.5876 56.0438 19.6538C56.0438 19.8126 56.0967 19.8523 56.2555 19.8523C56.4143 19.8391 56.5732 19.8523 56.732 19.8523C56.732 19.7199 56.732 19.6141 56.732 19.4817C57.0496 19.4817 57.354 19.4817 57.6584 19.4817C57.6981 19.4817 57.7511 19.5479 57.7643 19.6008C57.7775 19.667 57.7643 19.7464 57.7643 19.8523C58.0555 19.8523 58.3202 19.8655 58.5716 19.8523C58.7701 19.8391 58.7966 19.9449 58.7834 20.1038C58.7834 20.2626 58.7701 20.3685 58.5716 20.3552C58.3599 20.342 58.1481 20.3552 57.9363 20.3552C57.7775 20.342 57.6981 20.3949 57.7246 20.567C57.7511 20.7655 57.6584 20.8184 57.4731 20.8184C56.7452 20.8052 56.0173 20.8052 55.3026 20.8184C55.1173 20.8184 55.0247 20.7655 55.0644 20.5802C55.0908 20.4082 55.0114 20.3552 54.8394 20.3685C54.6409 20.3817 54.4423 20.3685 54.2438 20.3685C54.0453 20.3817 54.0718 20.2361 54.0718 20.117C54.0718 19.9979 54.0453 19.8655 54.2438 19.8655C54.5085 19.8523 54.7732 19.8391 55.0644 19.8391ZM56.3879 20.5405C56.4805 20.5405 56.5732 20.5537 56.6526 20.5405C56.7055 20.5273 56.7584 20.4743 56.7717 20.4214C56.7849 20.3949 56.7055 20.3155 56.6658 20.3155C56.4805 20.3023 56.2952 20.3023 56.1232 20.3155C56.0835 20.3155 56.0305 20.3949 56.0305 20.4346C56.0305 20.4743 56.0835 20.5405 56.1364 20.5405C56.2158 20.5537 56.2952 20.5405 56.3879 20.5405Z" fill="#009444"/>
  <path d="M34.193 14.6907C34.193 12.7055 34.193 10.7467 34.193 8.7747C34.4709 8.7747 34.7356 8.74823 35.0003 8.7747C35.3577 8.81441 35.6753 9.21145 35.715 9.64821C35.7415 9.9129 35.7547 10.1644 35.7547 10.4291C35.7547 11.4746 35.7547 12.5202 35.7415 13.5657C35.7415 13.8569 35.6753 14.1348 35.49 14.3731C35.3179 14.5716 35.1062 14.7039 34.8283 14.6907C34.6165 14.6907 34.4047 14.6907 34.193 14.6907Z" fill="white"/>
  <path d="M27.9065 9.13206C27.9065 11.1041 27.9065 13.0628 27.9065 15.0348C27.6153 15.0348 27.3109 15.0878 27.033 15.0216C26.6492 14.9422 26.3712 14.5319 26.3712 14.0687C26.358 12.7584 26.358 11.4482 26.3712 10.1379C26.3712 9.83351 26.4771 9.52911 26.7286 9.34382C26.8741 9.23794 27.0727 9.17177 27.2447 9.1453C27.4697 9.11883 27.6815 9.13206 27.9065 9.13206Z" fill="white"/>
  <path d="M43.0469 13.1422C43.0469 13.751 43.0469 14.3466 43.0469 14.9554C42.8749 14.9554 42.716 14.9554 42.544 14.9554C42.2396 14.9554 41.9484 14.9421 41.644 14.9289C41.4058 14.9157 41.2867 14.8098 41.2734 14.5848C41.2602 14.3333 41.3396 14.1216 41.5778 13.9892C42.0278 13.7378 42.4646 13.4731 42.9013 13.2084C42.9543 13.1819 42.994 13.1687 43.0469 13.1422Z" fill="white"/>
  <path d="M20.9845 10.9849C20.4154 10.9849 19.8728 10.9849 19.3037 10.9849C19.2507 10.4555 19.2507 9.92614 19.5551 9.46292C19.8595 9.02617 20.3757 9.01293 20.6801 9.44968C21.011 9.9129 21.0242 10.4423 20.9845 10.9849Z" fill="white"/>
  <path d="M55.4216 22.3669C55.329 22.2743 55.2496 22.2346 55.2363 22.1816C55.2099 22.0228 55.3422 22.0493 55.4349 22.0625C55.501 22.0757 55.5672 22.1419 55.6334 22.1816C55.5672 22.2346 55.5143 22.2875 55.4216 22.3669Z" fill="white"/>
  <path d="M55.4216 22.8963C55.3289 22.8037 55.276 22.764 55.2231 22.711C55.2892 22.6713 55.3554 22.6051 55.4083 22.6051C55.4745 22.6051 55.5407 22.6713 55.6069 22.711C55.5672 22.764 55.5142 22.8169 55.4216 22.8963Z" fill="white"/>
  <path d="M57.1156 22.8963C57.0362 22.8301 56.97 22.7772 56.9171 22.7243C56.9833 22.6846 57.0362 22.6184 57.1024 22.6052C57.1818 22.5919 57.3274 22.5787 57.3009 22.7243C57.3009 22.7772 57.2083 22.8169 57.1156 22.8963Z" fill="white"/>
  <path d="M57.1156 22.314C57.0362 22.261 56.97 22.2213 56.9171 22.1816C56.9833 22.1419 57.0494 22.0757 57.1024 22.0757C57.1685 22.0757 57.2347 22.1419 57.3009 22.1684C57.2612 22.2081 57.195 22.2478 57.1156 22.314Z" fill="white"/>
  <path d="M45.2307 21.6919C45.0189 21.6919 44.8071 21.6919 44.5954 21.6919C44.463 21.6919 44.4366 21.639 44.4366 21.5199C44.4101 20.8317 44.4101 20.8317 45.1115 20.8317C45.3762 20.8317 45.6277 20.8317 45.8924 20.8317C46.038 20.8317 46.0909 20.8846 46.0909 21.0302C46.0909 21.189 46.0777 21.3478 46.0909 21.5067C46.1042 21.6655 46.0247 21.7052 45.8792 21.7052C45.6542 21.6787 45.4424 21.6919 45.2307 21.6919Z" fill="white"/>
  <path d="M48.0234 21.6919C47.8116 21.6919 47.5999 21.6919 47.3881 21.6919C47.269 21.6919 47.2293 21.6522 47.2161 21.5331C47.1896 20.8317 47.1764 20.8317 47.8646 20.8317C48.1293 20.8317 48.3807 20.8317 48.6454 20.8317C48.7778 20.8317 48.8307 20.8846 48.8175 21.017C48.8043 21.189 48.8175 21.3743 48.8175 21.5464C48.8175 21.6522 48.7778 21.6919 48.6719 21.6919C48.4601 21.6787 48.2484 21.6919 48.0234 21.6919Z" fill="white"/>
  <path d="M56.3878 20.5405C56.2952 20.5405 56.2025 20.5537 56.1231 20.5405C56.0834 20.5273 56.0172 20.4611 56.0172 20.4346C56.0172 20.3949 56.0834 20.3155 56.1099 20.3155C56.2952 20.3023 56.4805 20.3023 56.6525 20.3155C56.6922 20.3155 56.7584 20.3949 56.7584 20.4214C56.7452 20.4743 56.6922 20.5273 56.6393 20.5405C56.5731 20.5537 56.4805 20.5405 56.3878 20.5405Z" fill="white"/>
</svg>
