<svg width="152" height="150" viewBox="0 0 152 150" fill="none" xmlns="http://www.w3.org/2000/svg">
<path d="M72.0011 15.9696L19.6695 26.0969C14.1631 27.1625 10.5257 32.6919 11.5453 38.447L27.9396 130.989C28.9592 136.744 34.2495 140.545 39.7559 139.48L92.0876 129.352C97.594 128.287 101.231 122.757 100.212 117.002L83.8175 24.4607C82.7979 18.7056 77.5075 14.9039 72.0011 15.9696Z" fill="#D0D0D0"/>
<path d="M61.3199 18.036L9.70117 28.0254L29.7876 141.408L81.4064 131.419L61.3199 18.036Z" fill="#D0D0D0"/>
<path d="M70.3718 11.0625L11.6623 27.1375C6.24504 28.6208 3.00397 34.4131 4.42313 40.0751L27.2428 131.117C28.662 136.779 34.204 140.167 39.6212 138.683L98.3307 122.608C103.748 121.125 106.989 115.333 105.57 109.671L82.7501 18.6287C81.331 12.9668 75.789 9.57927 70.3718 11.0625Z" fill="#666666"/>
<path d="M57.794 14.5059L1.85156 29.8232L29.8105 141.369L85.7529 126.052L57.794 14.5059Z" fill="#666666"/>
<path d="M67.2048 12.4173L59.7305 14.4307L87.312 126.281L94.7863 124.268L67.2048 12.4173Z" fill="#F3F3F3"/>
<path d="M76.7759 24.3473L13.4922 41.6748L20.8647 71.0884L84.1484 53.7609L76.7759 24.3473Z" fill="#F3F3F3"/>
<path d="M76.7759 24.3473L13.4922 41.6748L20.8647 71.0884L84.1484 53.7609L76.7759 24.3473Z" fill="#F3F3F3"/>
<path d="M54.2278 111.904L29.9707 118.546L33.8622 134.072L58.1193 127.43L54.2278 111.904Z" fill="#F3F3F3"/>
<path d="M127.549 50.7626C128.131 51.0387 129.507 52.1432 130.035 52.7793C130.643 52.4752 141.062 45.6773 142.57 45.7595C144.078 45.8417 143.284 48.9645 143.284 49.2686C143.284 49.5726 130.717 59.799 128.67 59.799C126.622 59.799 123.9 55.1559 123.9 54.8797C123.9 54.6036 127.549 50.7626 127.549 50.7626Z" fill="#DE8E68"/>
<path d="M148.857 23.9042L147.31 23.6741L144.165 23.209L143.72 26.4961L130.51 124.059L129.689 130.12C129.572 130.991 129.79 131.875 130.296 132.578C130.801 133.28 131.553 133.744 132.386 133.868L133.935 134.098C134.768 134.221 135.614 133.993 136.287 133.464C136.959 132.935 137.403 132.148 137.521 131.277L138.341 125.218L151.551 27.6549L151.996 24.3677L148.857 23.9042Z" fill="#DFDFDF"/>
<path d="M149.546 12.9893L144.168 23.2099L151.999 24.3686L149.546 12.9893Z" fill="#F3F3F3"/>
<path d="M150.356 16.7396L149.548 12.9893L147.775 16.3567L150.356 16.7396Z" fill="#DFDFDF"/>
<path d="M138.462 124.239L130.631 123.08L130.233 126.019L138.064 127.178L138.462 124.239Z" fill="#F3F3F3"/>
<path d="M121.776 130.056H117.965V132.457H121.776V130.056Z" fill="#DE8E68"/>
<path d="M129.088 121.396L127.02 124.339L128.871 125.761L130.94 122.818L129.088 121.396Z" fill="#DE8E68"/>
<path d="M103.523 79.0842C103.523 79.0842 101.03 102.456 101.902 105.072C102.773 107.689 127.377 124.756 127.377 124.756L129.663 121.571L111.049 101.544C111.972 100.804 115.597 91.5327 115.69 90.7355C115.782 89.9384 113.005 77.5869 113.005 77.5869L103.523 79.0842Z" fill="#A8000B"/>
<path d="M118.697 45.9097C120.682 42.7083 128.446 49.3446 128.654 50.7349C128.861 52.1253 125.685 57.5997 123.19 57.4616C120.694 57.3236 117.542 47.7734 118.697 45.9097Z" fill="#1C1C1C"/>
<path d="M113.332 40.918C128.466 40.918 124.393 73.3753 124.162 75.987C123.004 78.0661 104.628 80.349 103.52 79.0835C103.058 75.4544 99.0309 40.918 113.332 40.918Z" fill="black"/>
<path d="M111.93 42.5133C111.93 43.4304 116.789 43.6259 116.789 42.5133V36.2764H111.93V42.5133Z" fill="#DE8E68"/>
<path d="M117.415 38.9773C119.651 38.0477 120.494 34.7486 119.299 31.6084C118.104 28.4683 115.322 26.6763 113.087 27.6059C110.851 28.5355 110.008 31.8346 111.203 34.9748C112.399 38.1149 115.18 39.9069 117.415 38.9773Z" fill="#DE8E68"/>
<path d="M112.026 36.9701C112.464 36.6424 112.455 35.8456 112.006 35.1903C111.557 34.535 110.838 34.2695 110.4 34.5971C109.962 34.9248 109.971 35.7216 110.42 36.3769C110.869 37.0322 111.588 37.2978 112.026 36.9701Z" fill="#DE8E68"/>
<path d="M107.129 32.8576C107.129 32.0095 107.885 31.0776 108.028 30.0126C108.102 29.4735 107.942 27.2284 108.544 26.469C109.802 24.8961 110.535 25.2183 111.493 24.8518C113.161 24.214 113.8 23.1572 115.177 23.1572C116.75 23.1572 117.379 24.0053 118.494 24.0053C119.774 24.0053 120.824 23.389 122.622 23.389C123.579 23.389 124.831 24.7038 124.831 25.8543C124.831 28.586 122.4 28.1948 122.4 28.8588C122.4 29.3207 122.548 29.6806 122.548 30.3232C122.548 31.145 121.516 31.6381 120.926 31.6381C119.131 31.6381 118.892 31.4096 118.892 31.4096C118.536 30.6647 118.08 29.9763 117.539 29.365C117.467 29.2861 116.3 30.1474 114.394 30.2148C112.833 30.269 111.732 30.5846 111.732 31.3439C111.732 31.8814 111.92 33.4806 111.909 33.9243C111.898 34.3681 111.752 34.6639 111.65 34.6639C111.548 34.6639 111.493 34.5193 110.9 34.5193C110.257 34.5193 110.206 35.3411 110.096 35.3411C109.452 35.3362 107.129 34.7888 107.129 32.8576Z" fill="#FD8369"/>
<path d="M106.922 56.1856C106.723 56.1856 106.524 56.2258 106.339 56.304C106.321 56.2781 106.297 56.2568 106.27 56.2418C106.243 56.2267 106.213 56.2182 106.182 56.2169C105.668 56.2169 100.796 56.0278 100.282 56.1215C101.129 55.3638 102.914 53.4014 102.914 53.4014L98.8884 48.3721C97.981 48.7205 91.4141 55.6482 91.4141 58.1777C91.4141 60.5197 94.2588 60.8665 96.3173 60.8665C98.8663 60.8665 102.835 60.196 104.966 59.5517C105.174 60.7614 105.971 61.6637 106.924 61.6637C108.036 61.6637 108.937 60.4392 108.937 58.9288C108.937 57.4183 108.034 56.1856 106.922 56.1856Z" fill="#DE8E68"/>
<path d="M108.384 44.4289C110.9 47.3444 103.994 55.399 102.745 55.399C101.497 55.399 97.1504 50.6708 97.6238 47.7339C98.0971 44.7971 106.914 42.7296 108.384 44.4289Z" fill="#1C1C1C"/>
<path d="M124.164 75.9873L122.113 130.582H117.759L111.049 79.1265" fill="#DB0011"/>
<path d="M121.921 131.853V135.417H111.922V134.245L117.605 131.853H121.921Z" fill="black"/>
<path d="M130.646 122.488L132.994 123.969L130.415 134.066L129.331 133.764L128.385 125.716L130.646 122.488Z" fill="black"/>
</svg>
