<svg width="214" height="220" viewBox="0 0 214 220" fill="none" xmlns="http://www.w3.org/2000/svg">
<g clip-path="url(#clip0)">
<path d="M41.6862 34.3547C23.7933 45.6109 11.1207 65.8309 13.1024 84.8903C15.1285 103.905 31.8141 121.799 37.5455 144.353C43.2768 166.907 38.1061 194.197 47.6783 208.08C57.2036 222.009 81.5762 222.612 101.435 216.488C121.352 210.409 136.785 197.603 153.943 186.133C171.101 174.705 189.95 164.573 194.383 149.955C198.816 135.381 188.821 116.312 177.956 102.095C167.135 87.8217 155.367 78.4224 143.21 65.2728C131.054 52.1231 118.465 35.2623 100.616 27.9781C82.7262 20.6887 59.5739 23.0594 41.6862 34.3547Z" fill="#F1F1F1"/>
<path d="M91.2808 159.741L94.2573 102.194" stroke="#D7D8D6" stroke-miterlimit="10" stroke-linecap="round"/>
<path d="M90.9941 159.661L136.626 99.1549" stroke="#D7D8D6" stroke-miterlimit="10" stroke-linecap="round"/>
<path d="M90.9941 159.661L139.494 54.0363" stroke="#D7D8D6" stroke-miterlimit="10" stroke-linecap="round"/>
<path d="M169.208 43.7067C174.181 30.0355 169.576 15.8109 158.924 11.9352C148.272 8.05954 135.606 16.0004 130.634 29.6717C125.661 43.3429 130.266 57.5675 140.918 61.4432C151.57 65.3188 164.236 57.378 169.208 43.7067Z" fill="#212121"/>
<path d="M118.247 73.3264C119.259 58.814 110.913 46.4098 99.6057 45.6209C88.2982 44.8321 78.3112 55.9572 77.2991 70.4697C76.287 84.9822 84.6331 97.3863 95.9407 98.1752C107.248 98.9641 117.235 87.8389 118.247 73.3264Z" fill="#212121"/>
<path d="M172.075 85.0243C179.133 70.5187 174.935 53.9311 162.698 47.9749C150.461 42.0187 134.82 48.9494 127.762 63.455C120.704 77.9606 124.902 94.5482 137.139 100.504C149.376 106.461 165.017 99.5299 172.075 85.0243Z" fill="#DB0011"/>
<path d="M132.128 31.1475C134.215 17.4259 126.696 4.90108 115.335 3.17239C103.974 1.44369 93.0718 11.1658 90.9847 24.8873C88.8977 38.6088 96.4159 51.1337 107.777 52.8624C119.138 54.5911 130.041 44.869 132.128 31.1475Z" fill="#DB0011"/>
<path d="M138.472 67.3248C142.38 54.4458 137.801 41.6544 128.246 38.7544C118.69 35.8543 107.776 43.9438 103.869 56.8227C99.9619 69.7017 104.541 82.4931 114.096 85.3931C123.651 88.2932 134.565 80.2037 138.472 67.3248Z" fill="#D7D8D6"/>
<path d="M95.9013 97.3868L98.2481 102.9C98.3164 103.062 98.341 103.239 98.3195 103.413C98.298 103.588 98.2311 103.753 98.1256 103.894C98.02 104.034 97.8794 104.145 97.7179 104.214C97.5564 104.283 97.3795 104.308 97.2051 104.288L91.2625 103.555C91.0877 103.534 90.9216 103.467 90.7808 103.361C90.6401 103.255 90.5298 103.114 90.4611 102.952C90.3923 102.789 90.3675 102.612 90.3892 102.437C90.4109 102.262 90.4783 102.096 90.5846 101.956L94.1908 97.1755C94.297 97.0378 94.4373 96.9301 94.5979 96.8631C94.7584 96.796 94.9336 96.772 95.1063 96.7933C95.2789 96.8146 95.443 96.8806 95.5825 96.9846C95.7219 97.0887 95.8318 97.2273 95.9013 97.3868Z" fill="#212121"/>
<path d="M91.2807 159.741L82.3511 67.4683" stroke="#D7D8D6" stroke-miterlimit="10" stroke-linecap="round"/>
<path d="M91.2808 159.741L112.117 86.3196" stroke="#D7D8D6" stroke-miterlimit="10" stroke-linecap="round"/>
<path d="M114.658 81.2496L116.059 87.8975C116.099 88.0926 116.093 88.2962 116.041 88.4878C115.988 88.6794 115.891 88.8522 115.759 88.9889C115.628 89.1257 115.466 89.2215 115.29 89.2667C115.115 89.3119 114.932 89.305 114.759 89.2467L108.877 87.2645C108.704 87.2064 108.549 87.0988 108.425 86.9525C108.302 86.8063 108.215 86.6265 108.174 86.4313C108.134 86.2361 108.14 86.0323 108.192 85.8405C108.244 85.6487 108.341 85.4757 108.473 85.3388L112.954 80.6761C113.086 80.5388 113.248 80.4424 113.423 80.3966C113.599 80.3509 113.782 80.3574 113.955 80.4156C114.128 80.4738 114.284 80.5815 114.407 80.7279C114.53 80.8743 114.617 81.0543 114.658 81.2496Z" fill="#D7D8D6"/>
<path d="M138.167 98.1404L137.75 104.113C137.738 104.289 137.68 104.459 137.582 104.606C137.483 104.753 137.348 104.871 137.189 104.948C137.03 105.026 136.853 105.059 136.677 105.046C136.501 105.034 136.331 104.974 136.185 104.874L131.231 101.526C131.085 101.427 130.967 101.292 130.89 101.134C130.813 100.976 130.779 100.8 130.792 100.624C130.804 100.449 130.862 100.279 130.961 100.134C131.06 99.9879 131.195 99.8707 131.353 99.7939L136.733 97.1702C136.891 97.094 137.066 97.0606 137.241 97.0733C137.415 97.086 137.584 97.1444 137.729 97.2426C137.874 97.3408 137.991 97.4754 138.068 97.633C138.145 97.7905 138.179 97.9655 138.167 98.1404Z" fill="#DB0011"/>
<path d="M82.6441 65.8118C96.2092 64.7202 106.157 50.7997 104.864 34.7196C103.57 18.6394 91.5248 6.48882 77.9597 7.58044C64.3946 8.67207 54.4466 22.5925 55.7401 38.6727C57.0336 54.7529 69.0789 66.9035 82.6441 65.8118Z" fill="#D7D8D6"/>
<path d="M83.1089 63.5373L86.4987 68.4664C86.5971 68.6113 86.6559 68.7793 86.6694 68.9539C86.6828 69.1285 86.6503 69.3036 86.5752 69.4618C86.5001 69.6199 86.3849 69.7557 86.2411 69.8556C86.0973 69.9555 85.9299 70.0161 85.7555 70.0313L79.7973 70.5242C79.6221 70.5378 79.4464 70.5051 79.2878 70.4295C79.1291 70.3538 78.9931 70.2379 78.8933 70.0932C78.7936 69.9485 78.7335 69.7802 78.7192 69.605C78.7048 69.4298 78.7367 69.254 78.8116 69.095L81.3801 63.6859C81.4545 63.5265 81.5696 63.3895 81.7138 63.2888C81.858 63.188 82.0262 63.127 82.2015 63.112C82.3768 63.0969 82.5529 63.1283 82.7122 63.2029C82.8715 63.2776 83.0083 63.3929 83.1089 63.5373Z" fill="#D7D8D6"/>
<path d="M66.9366 207.701L124.038 219.051L134.203 167.891L77.1018 156.541L66.9366 207.701Z" fill="#DB0011"/>
<path d="M79.4062 174.279L136.506 185.629L134.214 167.889L77.1116 156.539L79.4062 174.279Z" fill="#A8000B"/>
<path d="M34.2491 201.198L66.9419 207.697L77.107 156.537L44.4143 150.039L34.2491 201.198Z" fill="#A8000B"/>
<path d="M68.3711 172.083L35.7405 165.597L44.4835 150.05L77.1116 156.539L68.3711 172.083Z" fill="#DB0011"/>
<path d="M88.8614 212.058L102.115 214.692L105.113 199.6L91.8602 196.966L88.8614 212.058Z" fill="#A8000B"/>
<path d="M74.5499 187.901L94.5088 191.869L96.6979 180.851L76.739 176.884L74.5499 187.901Z" fill="white"/>
<path d="M88.5098 189.002L93.0212 189.899L94.6116 181.895L90.1001 180.998L88.5098 189.002Z" fill="#D7D8D6"/>
<path d="M77.559 180.135L88.8325 182.376L89.1354 180.851L77.8619 178.611L77.559 180.135Z" fill="#D7D8D6"/>
<path d="M77.0377 182.744L88.3113 184.984L88.6142 183.46L77.3407 181.219L77.0377 182.744Z" fill="#D7D8D6"/>
</g>
<defs>
<clipPath id="clip0">
<rect width="182.561" height="217.023" fill="white" transform="translate(12.8984 2.97656)"/>
</clipPath>
</defs>
</svg>
