<svg width="215" height="215" viewBox="0 0 215 215" fill="none"
  xmlns="http://www.w3.org/2000/svg">
  <path d="M154.377 48.9382C163.653 60.903 165.199 77.8274 166.105 93.3436C167.011 108.86 167.316 122.938 163.586 139.761C159.847 156.552 152.093 176.058 137.441 185.006C122.789 193.988 101.215 192.413 83.2031 184.403C65.1916 176.426 50.7749 162.014 41.5002 145.09C32.2594 128.132 28.159 108.702 35.9558 95.9575C43.7526 83.2132 63.4093 77.1899 77.8937 66.1645C92.4101 55.1373 101.752 39.1185 114.96 34.594C128.132 30.0375 145.102 37.0072 154.377 48.9382Z" fill="#F2F2F2"/>
  <path d="M47.3828 52.7109H167.355" stroke="#DEDEDE" stroke-width="5" stroke-miterlimit="10"/>
  <path d="M27 52.7109H32.0228" stroke="#DEDEDE" stroke-width="5" stroke-miterlimit="10"/>
  <path d="M182.978 52.7109H188" stroke="#DEDEDE" stroke-width="5" stroke-miterlimit="10"/>
  <path d="M98.6433 109.355C96.1506 99.4107 88.6725 88.4013 85.8237 85.0274C82.9749 81.6535 75.3188 64.2515 68.5529 55.1953C66.5943 55.728 65.1699 56.4383 65.1699 57.3262C65.1699 58.214 67.3065 72.2422 75.6749 87.1583C77.3165 90.0829 82.6188 113.261 92.5896 119.121C97.1513 121.797 98.6433 109.355 98.6433 109.355Z" fill="#DE8E68"/>
  <path d="M116.093 109.355C118.585 99.4107 126.064 88.4013 128.912 85.0274C131.761 81.6535 139.417 64.2515 146.183 55.1953C148.142 55.728 149.566 56.4383 149.566 57.3262C149.566 58.214 147.43 72.2422 139.061 87.1583C137.421 90.0829 132.117 113.261 122.146 119.121C117.594 121.797 116.093 109.355 116.093 109.355Z" fill="#DE8E68"/>
  <path d="M148.32 57.5029C150.975 57.5029 153.127 55.3564 153.127 52.7085C153.127 50.0606 150.975 47.9141 148.32 47.9141C145.665 47.9141 143.513 50.0606 143.513 52.7085C143.513 55.3564 145.665 57.5029 148.32 57.5029Z" fill="#DE8E68"/>
  <path d="M65.1706 57.5029C67.8257 57.5029 69.978 55.3564 69.978 52.7085C69.978 50.0606 67.8257 47.9141 65.1706 47.9141C62.5156 47.9141 60.3633 50.0606 60.3633 52.7085C60.3633 55.3564 62.5156 57.5029 65.1706 57.5029Z" fill="#DE8E68"/>
  <path d="M107.055 101.543C87.1137 101.543 83.8198 155.081 88.182 159.431C92.5443 163.782 124.593 162.539 127.709 159.431C130.825 156.324 128.243 101.543 107.055 101.543Z" fill="#DE8E68"/>
  <path d="M99.267 88.9351C100.594 88.9351 101.671 87.8618 101.671 86.5378C101.671 85.2139 100.594 84.1406 99.267 84.1406C97.9394 84.1406 96.8633 85.2139 96.8633 86.5378C96.8633 87.8618 97.9394 88.9351 99.267 88.9351Z" fill="#DE8E68"/>
  <path d="M115.469 88.9351C116.797 88.9351 117.873 87.8618 117.873 86.5378C117.873 85.2139 116.797 84.1406 115.469 84.1406C114.142 84.1406 113.065 85.2139 113.065 86.5378C113.065 87.8618 114.142 88.9351 115.469 88.9351Z" fill="#DE8E68"/>
  <path d="M125.41 124.647C121.462 123.291 118.196 120.46 116.297 116.751C114.399 113.042 114.017 108.744 115.231 104.759C112.881 102.731 110.169 101.547 107.055 101.547C104.163 101.547 101.622 102.676 99.3986 104.615C100.069 106.561 100.345 108.621 100.209 110.674C100.073 112.727 99.5285 114.733 98.6074 116.574C97.6862 118.415 96.4068 120.055 94.8436 121.397C93.2804 122.74 91.4648 123.759 89.5026 124.395C85.6941 139.528 85.7635 157.026 88.1761 159.435C92.5383 163.786 124.587 162.543 127.703 159.435C129.441 157.713 129.413 140.021 125.41 124.647Z" fill="black"/>
  <path d="M101.824 152.206C101.19 150.67 87.8627 131.902 67.2819 131.902C65.0634 131.902 78.4777 165.463 78.4777 168.468C78.4777 171.472 103.999 175.926 107.373 175.926V152.005L101.824 152.206Z" fill="#A8000B"/>
  <path d="M66.3259 131.895C64.2445 131.895 62.5762 134.185 62.5762 137.135C62.5762 153.036 83.611 187.21 85.1583 187.21H93.6317C88.1798 169.055 85.8776 131.895 66.3259 131.895Z" fill="#DB0011"/>
  <path d="M112.913 152.206C113.549 150.67 126.876 131.902 147.455 131.902C149.673 131.902 136.259 165.463 136.259 168.468C136.259 171.472 110.735 175.926 107.361 175.926V152.005L112.913 152.206Z" fill="#A8000B"/>
  <path d="M148.087 131.895C150.168 131.895 151.837 134.185 151.837 137.135C151.837 153.036 130.802 187.21 129.255 187.21H120.781C126.233 169.055 128.534 131.895 148.087 131.895Z" fill="#DB0011"/>
  <path d="M93.347 194.999L93.6319 187.203H85.1585L73.9502 192.745V194.999H93.347Z" fill="black"/>
  <path d="M121.066 194.999L120.781 187.203H129.255L140.461 192.745V194.999H121.066Z" fill="black"/>
  <path d="M111.464 107.223C111.464 109.531 103.273 109.531 103.273 107.223V94.793H111.464V107.223Z" fill="#D37C59"/>
  <path d="M116.527 85.6613C117.149 85.7057 119.12 81.9962 119.12 77.216C119.12 75.973 118.408 69.758 115.381 69.758C114.49 69.758 113.956 72.4216 114.134 73.1318C114.134 71.7113 110.682 63.543 105.766 63.543C103.807 63.543 103.451 65.8514 103.451 66.5617C103.451 68.6926 103.629 70.8234 104.342 72.0664C103.629 71.001 102.193 68.3374 99.5342 68.3374C98.1098 68.3374 96.8635 68.9429 96.8635 69.758C96.8635 71.9279 98.644 73.8421 99.1781 74.3748C98.644 74.0197 97.9567 73.6646 96.3293 73.6646C95.2147 73.6646 94.5488 75.4403 94.5488 76.3281C94.5488 80.2898 96.356 84.809 98.3769 85.3435C100.398 85.878 110.183 78.8319 110.183 78.8319C110.183 78.8319 114.287 85.5015 116.527 85.6613Z" fill="black"/>
  <path d="M107.368 97.0135C112.236 97.0135 116.182 92.2037 116.182 86.2704C116.182 80.3372 112.236 75.5273 107.368 75.5273C102.501 75.5273 98.5547 80.3372 98.5547 86.2704C98.5547 92.2037 102.501 97.0135 107.368 97.0135Z" fill="#DE8E68"/>
  <path d="M116.182 84.1392C115.147 83.9616 103.789 80.6481 102.091 76.5195C100.392 72.391 107.61 74.3674 107.61 74.3674L115.112 77.5441L116.182 84.1392Z" fill="black"/>
  <path d="M47.3819 24H38.5488V81.4214H47.3819V24Z" fill="#DEDEDE"/>
  <path d="M176.189 24H167.355V81.4214H176.189V24Z" fill="#DEDEDE"/>
  <path d="M37.9987 36.0859H31.8809V69.3381H37.9987V36.0859Z" fill="#DEDEDE"/>
  <path d="M182.997 36.0859H176.879V69.3381H182.997V36.0859Z" fill="#DEDEDE"/>
</svg>
