<svg width="215" height="215" viewBox="0 0 215 215" fill="none"
  xmlns="http://www.w3.org/2000/svg">
  <path d="M172.96 48.5984C165.837 32.196 152.03 20.0687 138.291 21.0393C124.581 22.0513 110.911 36.1642 94.4764 40.3282C78.0418 44.4923 58.7859 38.7508 48.3556 46.6964C37.8941 54.5983 36.195 76.2768 39.543 94.2162C42.8562 112.205 51.2148 126.482 58.5284 142.239C65.8122 157.994 72.0805 175.201 82.3083 179.758C92.5044 184.312 106.668 176.207 117.404 167.123C128.18 158.082 135.517 147.994 145.557 137.717C155.597 127.44 168.316 116.932 174.456 101.341C180.602 85.7136 180.11 64.9979 172.96 48.5984Z" fill="#F2F2F2"/>
  <path d="M98.1888 185.472V192.234H79.8203V189.373L91.2005 184.148L98.1888 185.472Z" fill="#333333"/>
  <path d="M138.036 179.984C138.965 182.065 141.158 187.457 141.158 187.457L131.992 193.217H123.687L122.714 190.034L133.147 182.052L138.036 179.984Z" fill="#333333"/>
  <path d="M106.287 47.4566C110.564 47.4566 114.032 43.0853 114.032 37.6931C114.032 32.3009 110.564 27.9297 106.287 27.9297C102.009 27.9297 98.541 32.3009 98.541 37.6931C98.541 43.0853 102.009 47.4566 106.287 47.4566Z" fill="#DE8E68"/>
  <path d="M100.646 20.2506C99.6309 18.8566 96.7664 19.1713 94.2478 20.9841C93.2946 21.6563 92.4845 22.5112 91.8646 23.4991C91.7826 23.4626 91.6942 23.4422 91.6044 23.4392C90.3816 23.4392 70.0539 34.308 70.2465 39.3224C70.439 44.3367 77.2583 52.3784 79.6389 53.9207C79.6389 53.9207 90.3816 48.9064 89.804 47.2965C89.2264 45.6866 83.0394 40.5344 81.9545 39.5148C83.2293 38.849 93.4335 28.7423 94.5861 27.5979C95.7958 27.3392 96.936 26.8239 97.9294 26.0869C100.443 24.2715 101.663 21.6603 100.646 20.2506Z" fill="#DE8E68"/>
  <path d="M94.8072 62.7223C97.1488 60.8394 93.2722 45.0499 89.1171 44.6623C84.9621 44.2748 77.7162 52.1006 78.0076 54.3217C78.2989 56.5428 88.8908 67.4558 94.8072 62.7223Z" fill="black"/>
  <path d="M85.124 100.286C85.124 102.491 86.4559 178.79 88.8534 185.406C90.9845 186.288 96.5786 186.509 98.4433 185.847C100.308 185.186 112.207 101.494 112.207 97.8202C112.207 94.1463 85.124 100.286 85.124 100.286Z" fill="#A8000B"/>
  <path d="M132.376 183.06C129.858 179.743 97.0699 115.338 94.499 99.4573C97.1912 97.7083 117.225 94.9201 118.847 98.0953C120.469 101.27 139.941 179.772 139.274 180.791C138.607 181.811 134.269 183.4 132.376 183.06Z" fill="#DB0011"/>
  <path d="M106.396 50.3281C123.177 50.3281 122.136 96.7525 118.494 99.6134C114.851 102.474 86.3619 102.604 84.5407 100.524C82.7194 98.4431 78.4161 50.3281 106.396 50.3281Z" fill="#212121"/>
  <path d="M118.606 34.3716C118.606 32.3924 116.714 30.9645 116.714 29.867C116.714 28.7695 117.362 26.8032 115.913 25.3962C114.151 23.6875 111.344 24.4001 108.831 24.4001C106.468 24.4001 105.165 21.6562 101.941 21.6562C99.7922 21.6562 100.065 24.4443 99.2615 25.1361C98.6656 25.6563 94.0215 26.655 94.0215 28.7773C94.0215 31.1492 94.0839 34.3326 99.0117 34.3326C99.3395 33.1934 100.573 30.6915 101.978 29.5783C102.701 29.8904 106.661 31.5237 107.642 31.8124C108.623 32.1011 110.056 36.2988 111.576 36.806C113.095 37.3131 113.191 40.109 114.302 39.9893C115.413 39.8697 118.606 39.4016 118.606 34.3716Z" fill="black"/>
  <path d="M112.954 40.5038C114.085 40.5038 115.001 39.5874 115.001 38.457C115.001 37.3266 114.085 36.4102 112.954 36.4102C111.823 36.4102 110.906 37.3266 110.906 38.457C110.906 39.5874 111.823 40.5038 112.954 40.5038Z" fill="#DE8E68"/>
  <path d="M110.158 53.9651C109.83 55.0965 102.948 53.7233 103.081 52.4437L104.257 41.0781L112.549 42.8623C112.549 42.8623 110.491 52.839 110.158 53.9651Z" fill="#DE8E68"/>
  <path d="M152.364 99.855C151.589 99.0713 150.588 98.5486 149.502 98.3595C146.031 92.76 134.238 75.501 129.037 69.2305C125.287 71.9223 120.711 76.6298 120.711 76.6298C122.623 78.7728 136.946 95.7119 144.567 102.354C144.562 103.05 144.698 103.74 144.966 104.382C145.235 105.024 145.63 105.606 146.128 106.092C148.056 108.022 151.016 108.188 152.739 106.469C154.461 104.75 154.292 101.785 152.364 99.855Z" fill="#DE8E68"/>
  <path d="M112.986 57.9309C119.717 52.9296 130.813 65.0233 130.631 68.2041C130.449 71.3849 121.92 78.4383 119.004 78.4461C115.442 78.4513 107.257 62.1884 112.986 57.9309Z" fill="black"/>
</svg>
