<svg width="221" height="209" viewBox="0 0 221 209" fill="none" xmlns="http://www.w3.org/2000/svg">
<path d="M190.082 95.2248C189.605 89.9428 182.216 81.6309 154.215 58.6571C142.361 48.9313 120.111 37.5387 106.742 32.9425C89.2866 26.9414 66.9083 18.4002 51.3598 24.7008C35.7967 31.0493 27.0308 52.2559 27.0619 72.0668C27.1228 91.8608 35.9463 110.276 46.0198 128.024C56.0934 145.771 67.3956 162.86 82.0128 166.235C96.5785 169.584 114.485 159.204 131.65 151.184C148.816 143.164 165.282 137.519 176.744 125.301C186.191 115.27 191.239 108.048 190.082 95.2248Z" fill="#F1F1F1"/>
<path d="M169.612 89.7604C170.317 90.095 171.984 91.4333 172.625 92.2041C173.362 91.8356 185.986 83.5986 187.813 83.6982C189.641 83.7977 188.678 87.5817 188.678 87.9501C188.678 88.3186 173.452 100.71 170.971 100.71C168.49 100.71 165.191 95.0839 165.191 94.7493C165.191 94.4147 169.612 89.7604 169.612 89.7604Z" fill="#DE8E68"/>
<path d="M195.428 57.2125L193.553 56.9337L189.742 56.3701L189.202 60.3532L173.196 178.571L172.202 185.916C172.059 186.971 172.324 188.042 172.936 188.894C173.549 189.745 174.46 190.307 175.47 190.457L177.347 190.736C178.356 190.885 179.381 190.608 180.196 189.967C181.011 189.326 181.548 188.374 181.691 187.318L182.686 179.975L198.692 61.7573L199.231 57.7742L195.428 57.2125Z" fill="#9E9E9E"/>
<path d="M196.267 43.9883L189.75 56.3737L199.239 57.7778L196.267 43.9883Z" fill="#D7D8D6"/>
<path d="M197.244 48.533L196.265 43.9883L194.117 48.069L197.244 48.533Z" fill="#9E9E9E"/>
<path d="M182.834 178.791L173.344 177.387L172.861 180.948L182.351 182.352L182.834 178.791Z" fill="#F3F3F3"/>
<path d="M162.615 185.84H157.996V188.75H162.615V185.84Z" fill="#DE8E68"/>
<path d="M171.472 175.347L168.965 178.913L171.208 180.636L173.715 177.07L171.472 175.347Z" fill="#DE8E68"/>
<path d="M140.497 124.076C140.497 124.076 137.477 152.396 138.532 155.566C139.588 158.737 169.401 179.417 169.401 179.417L172.172 175.558L149.617 151.291C150.735 150.394 155.127 139.16 155.24 138.194C155.352 137.228 151.987 122.262 151.987 122.262L140.497 124.076Z" fill="#A8000B"/>
<path d="M158.884 83.8796C161.289 80.0001 170.698 88.0419 170.95 89.7268C171.201 91.4116 167.352 98.0455 164.328 97.8782C161.304 97.7109 157.484 86.138 158.884 83.8796Z" fill="#1C1C1C"/>
<path d="M152.384 77.8301C170.722 77.8301 165.787 117.159 165.507 120.324C164.105 122.843 141.837 125.609 140.496 124.076C139.936 119.678 135.056 77.8301 152.384 77.8301Z" fill="black"/>
<path d="M150.684 79.764C150.684 80.8753 156.572 81.1123 156.572 79.764V72.2061H150.684V79.764Z" fill="#DE8E68"/>
<path d="M157.334 75.4805C160.043 74.354 161.065 70.3561 159.617 66.5509C158.168 62.7457 154.798 60.5741 152.089 61.7006C149.38 62.827 148.358 66.825 149.806 70.6302C151.255 74.4354 154.625 76.607 157.334 75.4805Z" fill="#DE8E68"/>
<path d="M150.802 73.0482C151.332 72.6511 151.321 71.6855 150.777 70.8915C150.233 70.0974 149.362 69.7756 148.832 70.1726C148.301 70.5697 148.312 71.5353 148.856 72.3294C149.4 73.1235 150.272 73.4453 150.802 73.0482Z" fill="#DE8E68"/>
<path d="M144.867 68.0627C144.867 67.0351 145.784 65.9059 145.957 64.6154C146.047 63.9621 145.852 61.2417 146.582 60.3216C148.106 58.4157 148.994 58.806 150.155 58.3619C152.177 57.5892 152.95 56.3086 154.619 56.3086C156.525 56.3086 157.287 57.3362 158.638 57.3362C160.189 57.3362 161.462 56.5894 163.64 56.5894C164.8 56.5894 166.317 58.1826 166.317 59.5767C166.317 62.8867 163.371 62.4127 163.371 63.2173C163.371 63.7769 163.55 64.2131 163.55 64.9918C163.55 65.9875 162.3 66.585 161.586 66.585C159.41 66.585 159.12 66.3082 159.12 66.3082C158.689 65.4055 158.137 64.5713 157.481 63.8307C157.394 63.7351 155.98 64.7787 153.67 64.8603C151.778 64.926 150.445 65.3084 150.445 66.2285C150.445 66.8797 150.673 68.8175 150.66 69.3552C150.646 69.893 150.469 70.2514 150.345 70.2514C150.222 70.2514 150.155 70.0762 149.437 70.0762C148.657 70.0762 148.596 71.072 148.463 71.072C147.682 71.066 144.867 70.4028 144.867 68.0627Z" fill="black"/>
<path d="M144.616 96.3282C144.374 96.3282 144.134 96.3769 143.909 96.4716C143.887 96.4402 143.858 96.4144 143.825 96.3962C143.792 96.3779 143.756 96.3676 143.719 96.366C143.095 96.366 137.192 96.137 136.569 96.2505C137.596 95.3324 139.759 92.9545 139.759 92.9545L134.881 86.8604C133.781 87.2826 125.824 95.6769 125.824 98.7419C125.824 101.58 129.271 102 131.765 102C134.854 102 139.664 101.188 142.246 100.407C142.497 101.873 143.463 102.966 144.618 102.966C145.965 102.966 147.057 101.482 147.057 99.6521C147.057 97.8218 145.963 96.3282 144.616 96.3282Z" fill="#DE8E68"/>
<path d="M146.387 82.0823C149.436 85.6153 141.067 95.3759 139.554 95.3759C138.041 95.3759 132.775 89.6462 133.348 86.0873C133.922 82.5284 144.606 80.023 146.387 82.0823Z" fill="#1C1C1C"/>
<path d="M165.509 120.324L163.024 186.477H157.748L149.617 124.128" fill="#DB0011"/>
<path d="M162.789 188.017V192.336H150.672V190.916L157.558 188.017H162.789Z" fill="black"/>
<path d="M173.361 176.666L176.206 178.46L173.081 190.696L171.768 190.33L170.621 180.577L173.361 176.666Z" fill="black"/>
<rect x="27.7812" y="74.3438" width="91.8006" height="129.943" rx="4" transform="rotate(-10.6716 27.7812 74.3438)" fill="#D7D8D6"/>
<rect x="53.5742" y="137.9" width="64.6483" height="5.17186" transform="rotate(-10.6716 53.5742 137.9)" fill="#9E9E9E"/>
<rect x="60.2773" y="173.478" width="64.6483" height="5.17186" transform="rotate(-10.6716 60.2773 173.478)" fill="#9E9E9E"/>
<rect x="50.8711" y="122.909" width="33.6171" height="10.3437" transform="rotate(-10.6716 50.8711 122.909)" fill="#9E9E9E"/>
<rect x="57.5742" y="158.488" width="33.6171" height="10.3437" transform="rotate(-10.6716 57.5742 158.488)" fill="#9E9E9E"/>
<path d="M81.3341 102.624C75.1623 103.265 69.6163 98.7627 68.9752 92.591C68.3342 86.4192 72.8366 80.8732 79.0083 80.2321C85.1801 79.5911 90.7261 84.0934 91.3672 90.2652C92.0082 96.437 87.5059 101.983 81.3341 102.624ZM78.7176 77.4331C70.9784 78.237 65.3724 85.1425 66.1762 92.8817C66.9801 100.621 73.8856 106.227 81.6248 105.423C89.364 104.619 94.97 97.7137 94.1662 89.9745C93.3623 82.2353 86.4568 76.6293 78.7176 77.4331Z" fill="#A8000B"/>
<path fill-rule="evenodd" clip-rule="evenodd" d="M78.651 91.5885L74.7894 96.3452L76.4686 97.7084L80.3302 92.9517L85.0863 96.8128L86.4495 95.1336L81.6934 91.2725L85.5565 86.5139L83.8773 85.1507L80.0142 89.9093L75.255 86.0457L73.8918 87.7249L78.651 91.5885Z" fill="#A8000B"/>
</svg>
