<svg width="24" height="24" viewBox="0 0 24 24" fill="none" xmlns="http://www.w3.org/2000/svg">
<path d="M5.19699 15.803C6.66099 17.268 8.58099 18 10.5 18C12.232 18 13.96 17.398 15.358 16.206L20.126 20.973L20.975 20.125L16.207 15.357C18.72 12.41 18.59 7.981 15.805 5.196C14.339 3.732 12.419 3 10.5 3C8.58099 3 6.66099 3.732 5.19699 5.197C2.26799 8.126 2.26799 12.874 5.19699 15.803ZM4.19999 10.5C4.19999 8.817 4.85599 7.235 6.04499 6.045C7.23399 4.855 8.81699 4.2 10.5 4.2C12.183 4.2 13.765 4.855 14.955 6.045C17.411 8.501 17.411 12.498 14.955 14.955C13.765 16.145 12.183 16.8 10.5 16.8C8.81699 16.8 7.23499 16.145 6.04499 14.955C4.85499 13.765 4.19999 12.183 4.19999 10.5Z" fill="#333333"/>
</svg>
